<svg xmlns="http://www.w3.org/2000/svg" xmlns:xlink="http://www.w3.org/1999/xlink" width="1596" height="126" xmlns:v="https://vecta.io/nano"><defs><clipPath id="A"><path d="M0 0h1596v126H0z"/></clipPath><path id="B" d="M919.124 66.282q-.45-.662-.86-1.343l-.013-.023a27.66 27.66 0 0 1-2.278-5.205l-5.976 3.44 5.652 9.83 5.993-3.492q-.488-.54-.947-1.1c-.56-.675-1.084-1.38-1.57-2.108z"/><path id="C" d="M918.25 39.857l.008-.014a26.87 26.87 0 0 1 3.381-4.56l-5.993-3.492-5.65 9.782 5.978 3.484a27.66 27.66 0 0 1 2.277-5.2z"/><path id="D" d="M939.997 39.113a13.27 13.27 0 0 0-13.268 13.268 13.27 13.27 0 0 0 13.268 13.268 13.27 13.27 0 0 0 13.268-13.268c-.023-7.318-5.95-13.245-13.268-13.268z"/><path id="E" d="M200.847 45.517h-2.128c-.588 0-1.064-.476-1.064-1.064s.476-1.064 1.064-1.064h3.19a2.01 2.01 0 0 0 2.128-2.128 2.01 2.01 0 0 0-2.128-2.128 2.01 2.01 0 0 0-2.127-2.127 2.01 2.01 0 0 0-2.128 2.128v.213a5.26 5.26 0 0 0 1.064 10.426h2.128c.588 0 1.064.476 1.064 1.064s-.476 1.064-1.064 1.064h-3.192a2.13 2.13 0 0 0-2.082 2.128 2.13 2.13 0 0 0 2.082 2.127 2.01 2.01 0 0 0 2.128 2.128 2.01 2.01 0 0 0 2.128-2.128v-.213a5.26 5.26 0 0 0-1.064-10.426z"/><path id="F" d="M217.72 48.623c-.284-1.046-1.257-1.754-2.34-1.7-2.59.406-5.155-.876-6.383-3.194-1.255-2.22-1.088-4.97.426-7.02a1.99 1.99 0 0 0-.213-2.766 29.07 29.07 0 0 0-11.913-6.808 2.17 2.17 0 0 0-2.553 1.277 6.55 6.55 0 0 1-11.915 0 1.98 1.98 0 0 0-2.553-1.277 27.31 27.31 0 0 0-11.917 7.021 1.99 1.99 0 0 0-.213 2.766 6.49 6.49 0 0 1 .426 7.021 6.87 6.87 0 0 1-6.383 3.191 2.11 2.11 0 0 0-2.34 1.7c-.6 2.218-.897 4.512-.852 6.81a26.43 26.43 0 0 0 .851 7.019 1.96 1.96 0 0 0 2.34 1.489c2.59-.407 5.154.875 6.383 3.19 1.255 2.22 1.088 4.97-.426 7.02a1.99 1.99 0 0 0 .213 2.766 30.3 30.3 0 0 0 12.128 7.021 2.17 2.17 0 0 0 2.553-1.277 6.55 6.55 0 0 1 11.915 0c.315.78 1.075 1.285 1.915 1.277h.638a30.3 30.3 0 0 0 12.128-7.021 2 2 0 0 0 .213-2.766 6.49 6.49 0 0 1-.426-7.021 6.87 6.87 0 0 1 6.383-3.191 2.11 2.11 0 0 0 2.34-1.7 26.43 26.43 0 0 0 .852-7.02 25.61 25.61 0 0 0-1.277-6.809zm-28.936 24.04a17.02 17.02 0 0 1-12.034-29.058 17.02 17.02 0 0 1 29.056 12.039c-.03 9.39-7.633 16.992-17.022 17.02z"/><path id="G" d="M328.43 52.377c-2.615-.872-4.358-2.18-4.358-3.486s1.744-2.833 4.358-3.486c1.072-.4 1.714-1.5 1.525-2.615-.746-3.843-2.306-7.48-4.575-10.67-.608-.953-1.867-1.244-2.832-.654-2.4 1.307-4.793 1.525-5.665.654s-.654-3.268.654-5.665a2.31 2.31 0 0 0-.655-2.835 33 33 0 0 0-10.676-4.577c-1.125-.19-2.225.453-2.615 1.525-.875 2.614-2.175 4.357-3.485 4.357s-2.833-1.743-3.5-4.357c-.4-1.072-1.5-1.714-2.615-1.525-3.843.746-7.482 2.307-10.672 4.577-.473.22-.835.624-1 1.12s-.12 1.036.128 1.496c1.307 2.4 1.525 4.793.654 5.665s-3.05.654-5.665-.654a2.31 2.31 0 0 0-2.832.654 33 33 0 0 0-4.575 10.673c-.19 1.125.453 2.225 1.525 2.615 2.615.872 4.358 2.18 4.358 3.486s-1.744 2.832-4.358 3.486c-1.072.4-1.714 1.5-1.525 2.615.746 3.845 2.306 7.485 4.577 10.676.608.953 1.867 1.244 2.832.654 2.4-1.307 4.793-1.525 5.665-.654s.652 3.27-.655 5.67a2.31 2.31 0 0 0 .654 2.832 33 33 0 0 0 10.675 4.568c1.125.19 2.225-.453 2.615-1.525.872-2.615 2.18-4.358 3.486-4.358s2.832 1.743 3.486 4.358c.29.947 1.19 1.576 2.18 1.525h.436c3.845-.745 7.485-2.305 10.676-4.575.948-.61 1.237-1.863.65-2.825-1.307-2.4-1.525-4.793-.654-5.665s3.268-.654 5.665.654a2.31 2.31 0 0 0 2.832-.654 33 33 0 0 0 4.575-10.676c.16-.49.1-1.026-.137-1.48s-.668-.787-1.167-.92zm-28.324 11.765c-8.423 0-15.25-6.828-15.25-15.25s6.828-15.25 15.25-15.25 15.25 6.828 15.25 15.25a15.16 15.16 0 0 1-15.251 15.251z"/><path id="H" d="M337.996 56c-9.94 0-18 8.06-18 18s8.06 18 18 18 18-8.06 18-18-8.06-18-18-18zm-24 18c0-13.255 10.745-24 24-24s24 10.745 24 24-10.745 24-24 24-24-10.745-24-24z"/><path id="I" d="M1332.72 28.623c-.284-1.046-1.257-1.754-2.34-1.7-2.59.406-5.155-.876-6.383-3.194-1.255-2.22-1.088-4.97.426-7.02a1.99 1.99 0 0 0-.213-2.766 29.07 29.07 0 0 0-11.913-6.808 2.17 2.17 0 0 0-2.553 1.277 6.55 6.55 0 0 1-11.915 0 1.98 1.98 0 0 0-2.553-1.277 27.31 27.31 0 0 0-11.917 7.021 1.99 1.99 0 0 0-.213 2.766 6.49 6.49 0 0 1 .426 7.021 6.87 6.87 0 0 1-6.383 3.191 2.11 2.11 0 0 0-2.34 1.7c-.6 2.218-.897 4.512-.852 6.81a26.43 26.43 0 0 0 .851 7.019 1.96 1.96 0 0 0 2.34 1.489c2.59-.407 5.154.875 6.383 3.19 1.255 2.22 1.088 4.97-.426 7.02a1.99 1.99 0 0 0 .213 2.766 30.3 30.3 0 0 0 12.128 7.021 2.17 2.17 0 0 0 2.553-1.277 6.55 6.55 0 0 1 11.915 0c.315.78 1.075 1.285 1.915 1.277h.638a30.3 30.3 0 0 0 12.128-7.021 2 2 0 0 0 .213-2.766 6.49 6.49 0 0 1-.426-7.021 6.87 6.87 0 0 1 6.383-3.191 2.11 2.11 0 0 0 2.34-1.7 26.43 26.43 0 0 0 .852-7.02 25.61 25.61 0 0 0-1.277-6.809zm-28.936 15.532c-4.7-.001-8.5-3.812-8.51-8.512s3.81-8.5 8.512-8.5 8.5 3.81 8.5 8.51a8.54 8.54 0 0 1-8.513 8.511z"/><path id="J" d="M610.996 41a12 12 0 0 0-2 23.82v-2.56a10.56 10.56 0 0 1-5-9.26 10.34 10.34 0 0 1 6.3-9.88 2.1 2.1 0 0 1 1.4 0 10.34 10.34 0 0 1 6.3 9.88 10.56 10.56 0 0 1-5 9.26v2.56a12 12 0 0 0-2-23.82z"/><path id="K" d="M679.557 74.42a8.3 8.3 0 0 0 7.442-8.416 8.3 8.3 0 0 0-7.434-8.419c-.353-.04-.657-.27-.795-.596s-.09-.704.13-.985a8.29 8.29 0 0 0-.7-11.209 8.29 8.29 0 0 0-11.2-.699.97.97 0 0 1-.981.132.94.94 0 0 1-.6-.787 8.3 8.3 0 0 0-8.419-7.437 8.3 8.3 0 0 0-8.419 7.434.94.94 0 0 1-.6.791.92.92 0 0 1-.981-.133 8.29 8.29 0 0 0-11.209.7 8.29 8.29 0 0 0-.699 11.208c.217.28.267.654.13.98s-.436.556-.787.6a8.3 8.3 0 0 0-7.436 8.418 8.3 8.3 0 0 0 7.434 8.419c.352.043.653.272.79.6s.086.702-.13.982a8.29 8.29 0 0 0 .7 11.209 8.29 8.29 0 0 0 11.208.691c.28-.217.654-.267.98-.13s.556.436.6.787a8.3 8.3 0 0 0 8.418 7.444 8.3 8.3 0 0 0 8.419-7.434.94.94 0 0 1 .6-.791c.325-.14.702-.093.98.125 3.377 2.612 8.17 2.307 11.188-.712s3.324-7.81.712-11.188c-.217-.28-.267-.654-.13-.98s.436-.556.787-.6zm-.923-7.44c-3.03.376-5.624 2.35-6.793 5.17s-.733 6.05 1.143 8.46c.3.392.277.955-.077 1.308s-.917.384-1.308.072c-2.41-1.875-5.64-2.312-8.46-1.143s-4.795 3.763-5.17 6.793c-.063.492-.482.86-.978.86s-.915-.37-.978-.86a8.39 8.39 0 0 0-5.171-6.793c-1.037-.434-2.15-.658-3.274-.66a8.42 8.42 0 0 0-5.185 1.8c-.174.18-.418.276-.67.26s-.48-.14-.63-.34a.86.86 0 0 1-.081-1.3c1.875-2.41 2.312-5.64 1.143-8.46s-3.763-4.795-6.793-5.17c-.492-.063-.86-.482-.86-.978s.37-.915.86-.978c3.03-.376 5.624-2.35 6.793-5.17s.733-6.05-1.143-8.46a.86.86 0 0 1 .081-1.3.86.86 0 0 1 1.3-.081c2.41 1.875 5.64 2.312 8.46 1.143s4.795-3.763 5.17-6.793c.063-.492.482-.86.978-.86s.915.37.978.86c.376 3.03 2.35 5.624 5.17 6.793s6.05.733 8.46-1.143a.86.86 0 0 1 1.3.081.86.86 0 0 1 .081 1.3c-1.875 2.41-2.312 5.64-1.143 8.46s3.763 4.795 6.793 5.17c.492.063.86.482.86.978s-.37.915-.86.978z"/><path id="L" d="M733.79 62.352l-.057-1.754 3.262-2.985-.19-.977a30.63 30.63 0 0 0-2.334-7.182l-.422-.9-4.392-.5c-.626-.99-1.315-1.936-2.064-2.836l.884-4.334-.727-.68a30.63 30.63 0 0 0-6.11-4.439l-.87-.48-3.84 2.178a26.69 26.69 0 0 0-3.343-1.085l-1.83-4.02-.988-.122c-2.508-.312-5.044-.312-7.552 0l-.988.122-1.83 4.02c-1.137.288-2.254.65-3.343 1.085l-3.84-2.176-.87.48c-2.212 1.222-4.264 2.713-6.1 4.44l-.727.68.884 4.334a26.94 26.94 0 0 0-2.064 2.836l-4.392.5-.422.9a30.62 30.62 0 0 0-2.334 7.183l-.19.977 3.264 2.985-.057 1.754.057 1.754-3.262 2.983.19.977a30.62 30.62 0 0 0 2.334 7.183l.422.9 4.392.5c.626.99 1.315 1.936 2.064 2.836l-.884 4.334.727.68a30.63 30.63 0 0 0 6.11 4.439l.87.48 3.842-2.177a26.7 26.7 0 0 0 3.343 1.085l1.83 4.02.988.123a30.61 30.61 0 0 0 7.552 0l.988-.123 1.83-4.02a26.7 26.7 0 0 0 3.343-1.085l3.842 2.177.87-.48c2.21-1.223 4.262-2.714 6.106-4.44l.727-.68-.884-4.334c.75-.9 1.438-1.847 2.064-2.836l4.392-.5.422-.9c1.07-2.29 1.855-4.7 2.334-7.182l.19-.977-3.264-2.985.057-1.754zm-46.477 0c0-10.87 8.812-19.682 19.682-19.682s19.682 8.812 19.682 19.682-8.812 19.682-19.682 19.682c-10.866-.01-19.672-8.816-19.682-19.682z"/><path id="M" d="M857.613 45.044l.688-.35.7-.45-.643-1.906q-.882-2.572-1.98-5.04l-.164-.366q-.628-1.4-1.338-2.774l-.284-.583q-.374-.7-.748-1.413l-.56-.972-.486-.83-1.33-2.1-.18-.277-1.346-1.92-.27-.38q-.718-.935-1.465-1.824l-.254-.32-.658-.83-1.024-1.226a22.84 22.84 0 0 1-21.516.187 22.83 22.83 0 0 1-10.682-19.35v-.486h-.045C809.125.622 804.094.006 799.045 0h-1.19c-.8 0-1.607.045-2.4.1a63.02 63.02 0 0 0-2.5.194l-.964.1q-1.01.15-2 .292l-1.84.29h-.112c-.688.12-1.368.232-2.056.38h-.075c-.207 7.79-4.373 14.935-11.05 18.952-1.127.676-2.3 1.254-3.536 1.727-1.99.55-4.044.83-6.108.83-4.126.006-8.175-1.11-11.715-3.23l-.045.052a38.13 38.13 0 0 0-1.1 1.226h-.045l-.112.127a62.29 62.29 0 0 0-6.676 9.009l-.142.24a72.77 72.77 0 0 0-1.406 2.452l-.277.5c-.4.748-.748 1.5-1.13 2.243-.12.254-.254.508-.374.748-.314.665-.6 1.346-.9 2.034-.142.336-.3.665-.434 1-.262.635-.493 1.293-.748 1.936-.127.36-.277.7-.4 1.062v.075a22.92 22.92 0 0 1 9.329 12.024h0c3.282 10.13-.865 21.183-10 26.653h-.055l.052.172.052.157v.1q.42 1.338.9 2.654l.166.322c.314.86.658 1.712 1.01 2.557l.224.516c.366.852.748 1.7 1.15 2.542v.067a66.92 66.92 0 0 0 1.293 2.512l.164.314a34.13 34.13 0 0 0 1.249 2.183l.187.3.21.336q.673 1.092 1.39 2.153l.41.583q.658.9 1.308 1.742l.628.822q.568.748 1.16 1.45l.36.45.937 1.12c5.134-2.802 11.15-3.522 16.8-2.01a22.84 22.84 0 0 1 15.111 21.476v.06c4.995 1.25 10.125 1.884 15.274 1.884h.912c.867 0 1.742-.045 2.61-.1l1.1-.075 1.5-.127q.92-.1 1.84-.2l.65-.1a61.73 61.73 0 0 0 2.28-.351h.146l2.063-.39v-.067c.23-7.765 4.393-14.88 11.05-18.885a22.6 22.6 0 0 1 3.14-1.555c6.13-1.835 12.746-1.022 18.247 2.244.4-.42.748-.852 1.15-1.278h.052c4.85-5.424 8.716-11.653 11.424-18.406.217-.538.41-1.084.613-1.622l.42-1.106c-6.593-4.103-10.652-11.274-10.776-19.04s3.704-15.062 10.163-19.374z"/></defs><g clip-path="url(#A)"><g fill="#2c2c3f"><circle cx="189.996" cy="58" r="21"/><circle cx="156.996" cy="79" r="21"/><circle cx="114.996" cy="50" r="18"/><circle cx="29.996" cy="61" r="18"/><circle cx="73.996" cy="52" r="18"/><circle cx="259.996" cy="58" r="17"/><circle cx="216.996" cy="60" r="17"/><circle cx="337.996" cy="77" r="21"/><circle cx="378.496" cy="49.5" r="17.5"/><circle cx="424.496" cy="53.5" r="16.5"/><circle cx="472.996" cy="67" r="18"/><circle cx="519.996" cy="56" r="21"/><circle cx="563.996" cy="67" r="18"/><circle cx="544.996" cy="64" r="9"/><circle cx="610.996" cy="58" r="21"/><circle cx="707.996" cy="62" r="21"/><circle cx="896.996" cy="67" r="21"/><circle cx="854.996" cy="56" r="21"/><circle cx="739.996" cy="56" r="21"/><circle cx="1059.996" cy="56" r="21"/><circle cx="940.996" cy="56" r="21"/><circle cx="984.996" cy="52" r="15"/><circle cx="1032.996" cy="43" r="21"/><circle cx="1076.996" cy="64" r="21"/><circle cx="1123.996" cy="37" r="21"/><circle cx="1170.996" cy="62" r="21"/><circle cx="1214.996" cy="37" r="21"/><circle cx="1193.996" cy="58" r="15"/><circle cx="1144.996" cy="50" r="15"/><circle cx="1258.996" cy="47" r="21"/><circle cx="1302.996" cy="37" r="21"/><circle cx="1349.496" cy="49.5" r="17.5"/><circle cx="1391.996" cy="38" r="18"/><circle cx="1442.496" cy="49.5" r="17.5"/><circle cx="1423.996" cy="43" r="12"/><circle cx="1531.496" cy="49.5" r="23.5"/><circle cx="1565.496" cy="43.5" r="23.5"/><circle cx="1485.996" cy="41" r="21"/><circle cx="657.996" cy="67" r="24"/><circle cx="295.996" cy="49" r="21"/><circle cx="1105.996" cy="48" r="15"/><circle cx="1126.996" cy="56" r="15"/></g><path d="M921.54 69.928l-1.2-.7c-1.425-.822-2.303-2.343-2.303-4a4.61 4.61 0 0 1 2.303-3.99l1.2-.7c1.587-.915 2.746-2.424 3.22-4.194a6.91 6.91 0 0 0-.69-5.243l-2.3-4a6.92 6.92 0 0 0-9.445-2.525l-1.2.7c-1.425.822-3.18.822-4.605-.001s-2.303-2.343-2.303-3.988v-1.4A6.92 6.92 0 0 0 897.3 33h-4.606a6.92 6.92 0 0 0-6.908 6.908v1.4a4.6 4.6 0 0 1-2.302 3.99 4.61 4.61 0 0 1-4.607.001l-1.2-.7a6.92 6.92 0 0 0-9.442 2.526l-2.3 3.988a6.9 6.9 0 0 0 2.529 9.437l1.214.7c1.425.822 2.303 2.343 2.303 3.988a4.61 4.61 0 0 1-2.303 3.99l-1.2.7a6.9 6.9 0 0 0-2.532 9.437l2.3 4a6.92 6.92 0 0 0 9.437 2.529l1.2-.7c1.425-.822 3.18-.822 4.605.001s2.303 2.343 2.303 3.988v1.4a6.92 6.92 0 0 0 6.908 6.908h4.606a6.92 6.92 0 0 0 6.908-6.908v-1.4c0-1.645.878-3.166 2.303-3.988a4.61 4.61 0 0 1 4.605-.001l1.2.7a6.92 6.92 0 0 0 9.437-2.529l2.3-4a6.9 6.9 0 0 0-2.518-9.437zm-26.543 6.826c-6.36 0-11.514-5.155-11.514-11.514s5.155-11.514 11.514-11.514S906.5 58.88 906.5 65.24a11.53 11.53 0 0 1-11.514 11.514zm44.323.706h-.048a24.45 24.45 0 0 1-4.87-.63v6.942H945.6v-6.95a23.97 23.97 0 0 1-5.615.645c-.23.004-.425 0-.654-.006z"/><use xlink:href="#B"/><use xlink:href="#C"/><path d="M939.292 27.3h.676a24.03 24.03 0 0 1 5.622.645V21h-11.188v6.942c1.596-.373 3.225-.584 4.863-.63.022-.001.006-.002.027-.002z"/><use xlink:href="#D"/><path d="M961.68 64.93a24.91 24.91 0 0 1-3.367 4.565l6.03 3.5 5.652-9.83-6.026-3.443a24.83 24.83 0 0 1-2.289 5.22zm2.288-19.875l6.028-3.488-5.65-9.782-6.035 3.484a23.17 23.17 0 0 1 3.369 4.573 24.82 24.82 0 0 1 2.289 5.213zm-17.9-15.403a24.86 24.86 0 0 0-5.277-.784h-.054q-.37-.013-.74-.013l-.723.012h-.122a24.56 24.56 0 0 0-5.383.821 23.52 23.52 0 0 0-13.319 35.78 27.66 27.66 0 0 0 1.616 2.133 23.58 23.58 0 0 0 11.71 7.476 24.69 24.69 0 0 0 5.376.82h.123a21.79 21.79 0 0 0 .723.012l.74-.013h.054a24.88 24.88 0 0 0 5.271-.783 23.55 23.55 0 0 0 .005-45.466zm-6.07 37.554a14.82 14.82 0 0 1-13.694-9.15c-2.294-5.54-1.026-11.914 3.213-16.153a14.82 14.82 0 0 1 16.153-3.212c5.538 2.295 9.15 7.7 9.15 13.694-.023 8.177-6.646 14.8-14.823 14.823zM137.996 45h-2.82a22.68 22.68 0 0 0-2-4.72l2-2a6 6 0 0 0 0-8.5 6.18 6.18 0 0 0-8.5 0l-2 2a22.68 22.68 0 0 0-4.72-2V27a6 6 0 1 0-12 0v2.82a22.68 22.68 0 0 0-4.72 2l-2-2a6.2 6.2 0 0 0-8.5 0 6 6 0 0 0 0 8.5l2 2a22.68 22.68 0 0 0-2 4.72h-2.74a6 6 0 1 0 0 12h2.82a22.68 22.68 0 0 0 2 4.72l-2 2a6 6 0 0 0 0 8.5 6.18 6.18 0 0 0 8.5 0l2-2a22.68 22.68 0 0 0 4.72 2V75a6 6 0 1 0 12 0v-2.82a22.68 22.68 0 0 0 4.72-2l2 2a6.18 6.18 0 0 0 8.5 0 6 6 0 0 0 0-8.5l-2-2a22.68 22.68 0 0 0 2-4.72h2.74a6 6 0 1 0 0-12zm-15.32 8.32a8.62 8.62 0 0 1-.9 2.2 9 9 0 0 1-3.28 3.26 8.18 8.18 0 0 1-2.18.9 9.11 9.11 0 0 1-6.84-.9 9 9 0 0 1-3.26-3.28 8.18 8.18 0 0 1-.9-2.18 8.58 8.58 0 0 1 0-4.64 8.74 8.74 0 0 1 .9-2.2 9 9 0 0 1 3.28-3.26 8.18 8.18 0 0 1 2.18-.9 9.11 9.11 0 0 1 6.84.9 9 9 0 0 1 3.26 3.28 8.18 8.18 0 0 1 .9 2.18 8.56 8.56 0 0 1 0 4.64z"/><path d="M1009.996 46h-2.82a22.68 22.68 0 0 0-2-4.72l2-2a6 6 0 0 0 0-8.5 6.18 6.18 0 0 0-8.5 0l-2 2a22.68 22.68 0 0 0-4.72-2V28a6 6 0 1 0-12 0v2.82a22.68 22.68 0 0 0-4.72 2l-2-2a6.2 6.2 0 0 0-8.5 0 6 6 0 0 0 0 8.5l2 2a22.68 22.68 0 0 0-2 4.72h-2.74a6 6 0 1 0 0 12h2.82a22.68 22.68 0 0 0 2 4.72l-2 2a6 6 0 0 0 0 8.5 6.18 6.18 0 0 0 8.5 0l2-2a22.68 22.68 0 0 0 4.72 2V76a6 6 0 1 0 12 0v-2.82a22.68 22.68 0 0 0 4.72-2l2 2a6.18 6.18 0 0 0 8.5 0 6 6 0 0 0 0-8.5l-2-2a22.68 22.68 0 0 0 2-4.72h2.74a6 6 0 1 0 0-12zm-15.32 8.32a8.62 8.62 0 0 1-.9 2.2 9 9 0 0 1-3.28 3.26 8.18 8.18 0 0 1-2.18.9 9.11 9.11 0 0 1-6.84-.9 9 9 0 0 1-3.26-3.28 8.18 8.18 0 0 1-.9-2.18 8.58 8.58 0 0 1 0-4.64 8.74 8.74 0 0 1 .9-2.2 9 9 0 0 1 3.28-3.26 8.18 8.18 0 0 1 2.18-.9 9.11 9.11 0 0 1 6.84.9 9 9 0 0 1 3.26 3.28 8.18 8.18 0 0 1 .9 2.18 8.56 8.56 0 0 1 0 4.64z"/><circle cx="155.995" cy="75.999" r="8.181"/><path d="M185.996 76a8.18 8.18 0 0 0-6.872-8.181c-.308-.93-.672-1.84-1.09-2.727a8.18 8.18 0 0 0-11.375-11.373c-.886-.42-1.797-.783-2.727-1.09a7.88 7.88 0 0 0-2.263-4.418 8.02 8.02 0 0 0-5.672-2.21 8.18 8.18 0 0 0-8.181 6.872c-.93.308-1.84.673-2.727 1.09-3.25-2.347-7.72-1.99-10.555.845s-3.192 7.306-.845 10.555c-.42.886-.784 1.797-1.092 2.728a7.88 7.88 0 0 0-4.418 2.264A8.02 8.02 0 0 0 125.996 76a8.18 8.18 0 0 0 6.872 8.181 24.16 24.16 0 0 0 1.091 2.727c-1.005 1.366-1.54 3.022-1.527 4.718a8.02 8.02 0 0 0 2.373 5.836 8.18 8.18 0 0 0 10.554.845c.886.42 1.797.784 2.728 1.093a8.18 8.18 0 0 0 16.09 0 24.19 24.19 0 0 0 2.727-1.091 8.18 8.18 0 0 0 11.372-11.374c.42-.886.783-1.797 1.09-2.727A8.18 8.18 0 0 0 185.996 76zm-30 13.635c-5.515 0-10.488-3.322-12.6-8.417s-.944-10.96 2.956-14.86 9.765-5.067 14.86-2.956 8.418 7.083 8.417 12.6a13.64 13.64 0 0 1-13.635 13.635z"/><circle cx="1030.995" cy="39.999" r="8.181"/><path d="M1060.996 40a8.18 8.18 0 0 0-6.872-8.181c-.308-.93-.672-1.84-1.09-2.727a8.18 8.18 0 0 0-11.375-11.373c-.886-.42-1.797-.783-2.727-1.09a7.88 7.88 0 0 0-2.263-4.418 8.02 8.02 0 0 0-5.672-2.21 8.18 8.18 0 0 0-8.181 6.872c-.93.308-1.84.673-2.727 1.09-3.25-2.347-7.72-1.99-10.555.845s-3.192 7.306-.845 10.555c-.42.886-.784 1.797-1.092 2.728a7.88 7.88 0 0 0-4.418 2.264 8.02 8.02 0 0 0-2.182 5.645 8.18 8.18 0 0 0 6.872 8.181 24.16 24.16 0 0 0 1.091 2.727c-1.005 1.366-1.54 3.022-1.527 4.718a8.02 8.02 0 0 0 2.373 5.836 8.18 8.18 0 0 0 10.554.845c.886.42 1.797.784 2.728 1.093a8.18 8.18 0 0 0 16.09 0 24.19 24.19 0 0 0 2.727-1.091 8.18 8.18 0 0 0 11.372-11.374c.42-.886.783-1.797 1.09-2.727a8.18 8.18 0 0 0 6.629-8.208zm-30 13.635c-5.515 0-10.488-3.322-12.6-8.417s-.944-10.96 2.956-14.86 9.765-5.067 14.86-2.956 8.418 7.083 8.417 12.6a13.64 13.64 0 0 1-13.635 13.635z"/><use xlink:href="#E"/><use xlink:href="#F"/><path d="M1077.847 60.517h-2.128c-.588 0-1.064-.476-1.064-1.064s.476-1.064 1.064-1.064h3.2a2.01 2.01 0 0 0 2.128-2.128 2.01 2.01 0 0 0-2.128-2.128 2.01 2.01 0 1 0-4.255.001v.213a5.26 5.26 0 0 0 1.064 10.426h2.128c.588 0 1.064.476 1.064 1.064s-.476 1.064-1.064 1.064h-3.192a2.13 2.13 0 0 0-2.082 2.128 2.13 2.13 0 0 0 2.082 2.127 2.01 2.01 0 1 0 4.256 0v-.213a5.26 5.26 0 0 0-1.064-10.426zm27.873-4.894c-.284-1.046-1.257-1.754-2.34-1.7-2.6.406-5.155-.876-6.383-3.194-1.255-2.22-1.088-4.97.426-7.02a1.99 1.99 0 0 0-.213-2.766 29.07 29.07 0 0 0-11.913-6.808 2.17 2.17 0 0 0-2.553 1.277 6.55 6.55 0 0 1-11.915 0 1.98 1.98 0 0 0-2.553-1.277 27.31 27.31 0 0 0-11.917 7.021 1.99 1.99 0 0 0-.213 2.766 6.49 6.49 0 0 1 .426 7.021 6.87 6.87 0 0 1-6.383 3.191 2.11 2.11 0 0 0-2.34 1.7 24.28 24.28 0 0 0-.852 6.81 26.43 26.43 0 0 0 .851 7.019 1.96 1.96 0 0 0 2.34 1.489 6.15 6.15 0 0 1 6.383 3.19c1.255 2.22 1.088 4.97-.426 7.02a1.99 1.99 0 0 0 .213 2.766 30.3 30.3 0 0 0 12.128 7.021 2.17 2.17 0 0 0 2.553-1.277 6.55 6.55 0 0 1 11.915 0c.315.78 1.075 1.285 1.915 1.277h.638a30.3 30.3 0 0 0 12.128-7.021 2 2 0 0 0 .213-2.766 6.49 6.49 0 0 1-.426-7.021 6.87 6.87 0 0 1 6.383-3.191 2.11 2.11 0 0 0 2.34-1.7 26.43 26.43 0 0 0 .852-7.02 25.61 25.61 0 0 0-1.277-6.809zm-28.936 24.04a17.02 17.02 0 1 1 17.022-17.019c-.03 9.4-7.633 16.992-17.022 17.02z"/><path d="M282.292 53.095a23.29 23.29 0 0 0-5.213-9.015l1.67-7.547A29.96 29.96 0 0 0 270.904 32l-5.7 5.22a23.24 23.24 0 0 0-10.412 0l-5.7-5.22a29.96 29.96 0 0 0-7.843 4.533l1.67 7.543a23.29 23.29 0 0 0-5.213 9.019l-7.37 2.344a30.28 30.28 0 0 0 0 9.057l7.364 2.344a23.3 23.3 0 0 0 5.213 8.98l-1.67 7.543a29.96 29.96 0 0 0 7.848 4.534l5.7-5.217a23.24 23.24 0 0 0 10.412 0l5.7 5.217c2.83-1.104 5.476-2.633 7.847-4.533l-1.673-7.544a23.29 23.29 0 0 0 5.214-9.013l7.364-2.344c.454-3.002.454-6.055 0-9.057zm-22.3 17.48a10.63 10.63 0 0 1-10.623-10.629 10.63 10.63 0 0 1 10.628-10.625 10.63 10.63 0 0 1 10.626 10.626c0 2.82-1.12 5.523-3.114 7.516a10.63 10.63 0 0 1-7.517 3.112zm884.3-42.48a23.29 23.29 0 0 0-5.213-9.015l1.67-7.547A29.96 29.96 0 0 0 1132.905 7l-5.7 5.22a23.24 23.24 0 0 0-10.412 0l-5.7-5.22a29.96 29.96 0 0 0-7.843 4.533l1.67 7.543a23.29 23.29 0 0 0-5.213 9.019l-7.37 2.344a30.28 30.28 0 0 0 0 9.057l7.364 2.344a23.3 23.3 0 0 0 5.213 8.98l-1.67 7.543a29.96 29.96 0 0 0 7.848 4.534l5.7-5.217a23.24 23.24 0 0 0 10.412 0l5.7 5.217c2.83-1.104 5.476-2.633 7.847-4.533l-1.673-7.544a23.29 23.29 0 0 0 5.214-9.013l7.364-2.344c.454-3.002.454-6.055 0-9.057zm-22.3 17.48a10.63 10.63 0 0 1-10.623-10.629 10.63 10.63 0 0 1 10.628-10.625 10.63 10.63 0 0 1 10.626 10.626c0 2.82-1.12 5.523-3.114 7.516a10.63 10.63 0 0 1-7.517 3.112z"/><use xlink:href="#G"/><path d="M1196.43 63.377c-2.615-.872-4.358-2.18-4.358-3.486s1.744-2.833 4.358-3.486a2.38 2.38 0 0 0 1.525-2.615 27.42 27.42 0 0 0-4.575-10.67c-.608-.953-1.867-1.244-2.832-.654-2.4 1.307-4.793 1.525-5.665.654s-.654-3.268.654-5.665a2.31 2.31 0 0 0-.655-2.835 33 33 0 0 0-10.676-4.577c-1.125-.2-2.225.453-2.615 1.525-.875 2.614-2.175 4.357-3.485 4.357s-2.833-1.743-3.5-4.357a2.38 2.38 0 0 0-2.615-1.525 27.42 27.42 0 0 0-10.672 4.577c-.473.22-.835.624-1 1.12a1.89 1.89 0 0 0 .128 1.496c1.307 2.4 1.525 4.793.654 5.665s-3.05.654-5.665-.654a2.31 2.31 0 0 0-2.832.654 33 33 0 0 0-4.575 10.673c-.2 1.125.453 2.225 1.525 2.615 2.615.872 4.358 2.18 4.358 3.486s-1.744 2.832-4.358 3.486a2.38 2.38 0 0 0-1.525 2.615c.746 3.845 2.306 7.485 4.577 10.676.608.953 1.867 1.244 2.832.654 2.4-1.307 4.793-1.525 5.665-.654s.652 3.27-.655 5.67a2.31 2.31 0 0 0 .654 2.832 33 33 0 0 0 10.675 4.568c1.125.2 2.225-.453 2.615-1.525.872-2.615 2.18-4.358 3.486-4.358s2.832 1.743 3.486 4.358c.3.947 1.2 1.576 2.18 1.525h.436a27.41 27.41 0 0 0 10.676-4.575c.948-.6 1.237-1.863.65-2.825-1.307-2.4-1.525-4.793-.654-5.665s3.268-.654 5.665.654a2.31 2.31 0 0 0 2.832-.654 33 33 0 0 0 4.575-10.676c.16-.5.1-1.026-.137-1.48s-.668-.787-1.167-.92zm-28.324 11.765c-8.423 0-15.25-6.828-15.25-15.25s6.828-15.25 15.25-15.25 15.25 6.828 15.25 15.25a15.16 15.16 0 0 1-15.251 15.251zM343.996 74a6 6 0 1 1-12 0 6 6 0 1 1 12 0z"/><use xlink:href="#H" fill-rule="evenodd"/><path d="M315.078 58.037a3 3 0 0 1 .32-3.865l2.77-2.77a3 3 0 0 1 3.865-.32l5.357 3.827-8.486 8.485zm45.836 31.926a3 3 0 0 1-.32 3.865l-2.77 2.77a3 3 0 0 1-3.865.32l-5.357-3.826 8.485-8.485z"/><path d="M353.96 51.082a3 3 0 0 1 3.865.32l2.77 2.77a3 3 0 0 1 .32 3.865l-3.826 5.357-8.486-8.486zm-31.927 45.836a3 3 0 0 1-3.865-.32l-2.77-2.77a3 3 0 0 1-.32-3.865l3.826-5.357 8.485 8.486zM365.5 69.082a3 3 0 0 1 2.507 2.959v3.917a3 3 0 0 1-2.507 2.959L358.996 80V68zm-54.987 9.836a3 3 0 0 1-2.507-2.959v-3.92a3 3 0 0 1 2.507-2.959l6.493-1.08v12zm22.575-32.41A3 3 0 0 1 336.037 44h3.917a3 3 0 0 1 2.959 2.507L343.996 53h-12zm9.836 54.986a3 3 0 0 1-2.959 2.507h-3.918a3 3 0 0 1-2.959-2.507L331.996 95h12zM1218.996 38a6 6 0 1 1-12 0 6 6 0 1 1 12 0z"/><path d="M1212.996 20c-9.94 0-18 8.06-18 18s8.06 18 18 18 18-8.06 18-18-8.06-18-18-18zm-24 18c0-13.255 10.745-24 24-24s24 10.745 24 24-10.745 24-24 24-24-10.745-24-24z" fill-rule="evenodd"/><path d="M1190.078 22.037a3 3 0 0 1 .32-3.865l2.77-2.77a3 3 0 0 1 3.865-.32l5.357 3.827-8.486 8.485zm45.836 31.926a3 3 0 0 1-.32 3.865l-2.77 2.77a3 3 0 0 1-3.865.32l-5.357-3.826 8.485-8.485z"/><path d="M1228.96 15.082a3 3 0 0 1 3.865.32l2.77 2.77a3 3 0 0 1 .32 3.865l-3.826 5.357-8.486-8.486zm-31.927 45.836a3 3 0 0 1-3.865-.32l-2.77-2.77a3 3 0 0 1-.32-3.865l3.826-5.357 8.485 8.486zm43.457-27.836a3 3 0 0 1 2.507 2.959v3.917a3 3 0 0 1-2.507 2.959L1233.996 44V32zm-54.987 9.836a3 3 0 0 1-2.507-2.959v-3.92a3 3 0 0 1 2.507-2.959l6.493-1.082v12z"/><path d="M1208.078 10.507A3 3 0 0 1 1211.037 8h3.917a3 3 0 0 1 2.959 2.507l1.083 6.493h-12zm9.836 54.986a3 3 0 0 1-2.959 2.507h-3.918a3 3 0 0 1-2.959-2.507L1206.996 59h12zm-808.918-13.64v-7.7l-7.344-1.383c-.578-2.507-1.57-4.9-2.936-7.08l4.217-6.178-5.447-5.447-6.173 4.217a23.11 23.11 0 0 0-7.081-2.936L382.848 18h-7.7l-1.383 7.344c-2.507.578-4.9 1.57-7.08 2.936l-6.178-4.217-5.447 5.447 4.217 6.174a23.11 23.11 0 0 0-2.936 7.081l-7.344 1.383v7.7l7.344 1.383c.578 2.507 1.57 4.9 2.936 7.08l-4.217 6.19 5.447 5.447 6.174-4.217a23.11 23.11 0 0 0 7.081 2.936L375.144 78h7.7l1.383-7.344c2.507-.578 4.9-1.57 7.08-2.936l6.174 4.217 5.446-5.446-4.212-6.174a23.11 23.11 0 0 0 2.936-7.081zm-30 9.1c-7.153-.001-12.95-5.8-12.95-12.952s5.8-12.95 12.95-12.95 12.95 5.798 12.95 12.95-5.798 12.95-12.95 12.95zm910-9.1v-7.7l-7.344-1.383c-.578-2.507-1.57-4.9-2.936-7.08l4.217-6.178-5.447-5.447-6.173 4.217a23.11 23.11 0 0 0-7.081-2.936L1262.848 18h-7.7l-1.383 7.344c-2.507.578-4.9 1.57-7.08 2.936l-6.178-4.217-5.447 5.447 4.217 6.174a23.11 23.11 0 0 0-2.936 7.081l-7.344 1.383v7.7l7.344 1.383c.578 2.507 1.57 4.9 2.936 7.08l-4.217 6.178 5.447 5.447 6.174-4.217a23.11 23.11 0 0 0 7.081 2.936l1.383 7.344h7.7l1.383-7.344c2.507-.578 4.9-1.57 7.08-2.936l6.174 4.217 5.446-5.446-4.212-6.174a23.11 23.11 0 0 0 2.936-7.081zm-30 9.1c-7.153-.001-12.95-5.8-12.95-12.952s5.8-12.95 12.95-12.95 12.95 5.798 12.95 12.95-5.798 12.95-12.95 12.95z"/><use xlink:href="#I"/><g fill-rule="evenodd"><path d="M468.18 46.7v-7.975c-.002-.724.284-1.418.796-1.93a2.71 2.71 0 0 1 1.93-.795h8.178a2.72 2.72 0 0 1 2.725 2.723v7.986c.683.242 1.352.52 2.005.834l5.65-5.65c.5-.513 1.203-.8 1.926-.8a2.72 2.72 0 0 1 1.927.8l5.783 5.783c.513.5.8 1.203.8 1.927a2.72 2.72 0 0 1-.8 1.927l-5.66 5.66a20.34 20.34 0 0 1 .824 1.994h8.006c.724-.002 1.42.284 1.93.796a2.72 2.72 0 0 1 .795 1.93v8.18a2.72 2.72 0 0 1-2.723 2.725h-8.017a20.31 20.31 0 0 1-.823 1.984l5.67 5.67c.513.5.8 1.203.8 1.926a2.72 2.72 0 0 1-.8 1.927l-5.783 5.783a2.72 2.72 0 0 1-3.853 0l-5.67-5.67a20.3 20.3 0 0 1-1.984.823v8.017c.002.724-.285 1.42-.797 1.93a2.72 2.72 0 0 1-1.93.795h-8.178c-.723.002-1.417-.284-1.93-.795a2.71 2.71 0 0 1-.796-1.928V85.27a20.34 20.34 0 0 1-1.994-.824l-5.66 5.66c-.5.513-1.203.8-1.927.8a2.72 2.72 0 0 1-1.927-.8l-5.783-5.783a2.72 2.72 0 0 1 0-3.853l5.65-5.65c-.314-.653-.592-1.322-.834-2.005h-7.986c-.724.002-1.42-.285-1.93-.797a2.72 2.72 0 0 1-.795-1.93V61.9c-.002-.723.284-1.417.795-1.93a2.71 2.71 0 0 1 1.928-.796h7.977a20.33 20.33 0 0 1 .835-2.015l-5.64-5.64c-.513-.5-.8-1.203-.8-1.926a2.72 2.72 0 0 1 .8-1.927l5.783-5.783a2.72 2.72 0 0 1 3.853 0l5.64 5.64a20.29 20.29 0 0 1 2.015-.835zm20.428 19.286c0-7.527-6.102-13.63-13.63-13.63s-13.63 6.102-13.63 13.63 6.102 13.63 13.63 13.63a13.63 13.63 0 0 0 13.63-13.631zM1343.18 29.7v-7.975c-.002-.724.284-1.418.796-1.93a2.71 2.71 0 0 1 1.93-.795h8.178a2.72 2.72 0 0 1 2.725 2.723v7.986c.683.242 1.352.52 2.005.834l5.65-5.65c.5-.513 1.203-.8 1.927-.8a2.72 2.72 0 0 1 1.927.8l5.783 5.783c.513.5.8 1.203.8 1.927a2.72 2.72 0 0 1-.8 1.927l-5.66 5.66a20.34 20.34 0 0 1 .824 1.994h8.006c.724-.002 1.42.284 1.93.796a2.72 2.72 0 0 1 .795 1.93v8.18a2.72 2.72 0 0 1-2.723 2.725h-8.017a20.31 20.31 0 0 1-.823 1.984l5.67 5.67c.513.5.8 1.203.8 1.926a2.72 2.72 0 0 1-.8 1.927l-5.783 5.783a2.72 2.72 0 0 1-3.853 0l-5.67-5.67a20.3 20.3 0 0 1-1.984.823v8.017c.002.724-.285 1.42-.797 1.93a2.72 2.72 0 0 1-1.93.795h-8.178c-.723.002-1.417-.284-1.93-.795a2.71 2.71 0 0 1-.796-1.928V68.27a20.34 20.34 0 0 1-1.994-.824l-5.66 5.66c-.5.513-1.203.8-1.927.8a2.72 2.72 0 0 1-1.927-.8l-5.783-5.783a2.72 2.72 0 0 1 0-3.853l5.65-5.65c-.314-.653-.592-1.322-.834-2.005h-7.986c-.724.002-1.42-.285-1.93-.797a2.72 2.72 0 0 1-.795-1.93V44.9c-.002-.723.284-1.417.795-1.93a2.71 2.71 0 0 1 1.928-.796h7.977a20.33 20.33 0 0 1 .835-2.015l-5.64-5.64c-.513-.5-.8-1.203-.8-1.926a2.72 2.72 0 0 1 .8-1.927l5.783-5.783a2.72 2.72 0 0 1 3.853 0l5.64 5.64a20.29 20.29 0 0 1 2.015-.835zm20.428 19.286c0-7.527-6.102-13.63-13.63-13.63s-13.63 6.102-13.63 13.63 6.102 13.63 13.63 13.63a13.63 13.63 0 0 0 13.63-13.631z"/><path d="M514.37 54c-.001 2.275 1.37 4.327 3.47 5.198s4.522.4 6.13-1.218a5.63 5.63 0 0 0 1.22-6.13c-.87-2.102-2.922-3.473-5.197-3.473-3.106.001-5.623 2.517-5.625 5.623zm-20.625-5.625a3.75 3.75 0 0 0-3.75 3.75v3.75c0 2.07 1.68 3.75 3.75 3.752h5.315c.492 1.82 1.217 3.567 2.158 5.2l-3.765 3.757c-1.46 1.465-1.46 3.835 0 5.3l2.652 2.652c1.466 1.465 3.84 1.465 5.307 0l3.76-3.762a21.37 21.37 0 0 0 5.2 2.155v5.318a3.75 3.75 0 0 0 3.75 3.75h3.75a3.75 3.75 0 0 0 3.75-3.75v-5.325a21.6 21.6 0 0 0 5.192-2.148l3.767 3.762a3.75 3.75 0 0 0 5.3 0l2.652-2.652a3.75 3.75 0 0 0 0-5.3l-3.762-3.77a21.55 21.55 0 0 0 2.148-5.185h5.325c2.07-.002 3.75-1.68 3.75-3.752v-3.75a3.75 3.75 0 0 0-3.75-3.75h-5.318c-.5-1.82-1.213-3.568-2.155-5.2l3.762-3.762a3.75 3.75 0 0 0 0-5.3l-2.652-2.648c-.702-.704-1.656-1.1-2.65-1.1s-1.948.396-2.65 1.1l-3.757 3.76a21.68 21.68 0 0 0-5.2-2.157v-5.32a3.75 3.75 0 0 0-3.75-3.75h-3.75a3.75 3.75 0 0 0-3.75 3.75v5.325c-1.817.487-3.562 1.2-5.192 2.148l-3.767-3.76c-.703-.705-1.658-1.1-2.654-1.1s-1.95.396-2.654 1.1l-2.648 2.648a3.75 3.75 0 0 0 0 5.3l3.762 3.768a21.53 21.53 0 0 0-2.148 5.193zM506.87 54a13.13 13.13 0 0 1 13.125-13.125A13.13 13.13 0 0 1 533.121 54c0 7.25-5.876 13.125-13.125 13.125A13.13 13.13 0 0 1 506.871 54zm882.5-17c-.001 2.275 1.37 4.327 3.47 5.198s4.522.4 6.13-1.218a5.63 5.63 0 0 0 1.22-6.13c-.87-2.102-2.922-3.473-5.197-3.473-3.106.001-5.623 2.517-5.625 5.623zm-20.625-5.625a3.75 3.75 0 0 0-3.75 3.75v3.75c0 2.07 1.68 3.75 3.75 3.752h5.315c.492 1.82 1.217 3.567 2.158 5.2l-3.765 3.757c-1.46 1.465-1.46 3.835 0 5.3l2.652 2.652c1.466 1.465 3.84 1.465 5.307 0l3.76-3.762a21.37 21.37 0 0 0 5.2 2.155v5.318a3.75 3.75 0 0 0 3.75 3.75h3.75a3.75 3.75 0 0 0 3.75-3.75v-5.325a21.6 21.6 0 0 0 5.192-2.148l3.767 3.762a3.75 3.75 0 0 0 5.3 0l2.652-2.652a3.75 3.75 0 0 0 0-5.3l-3.762-3.77a21.55 21.55 0 0 0 2.148-5.185h5.325c2.07-.002 3.75-1.68 3.75-3.752v-3.75a3.75 3.75 0 0 0-3.75-3.75h-5.318c-.5-1.82-1.213-3.568-2.155-5.2l3.762-3.762a3.75 3.75 0 0 0 0-5.3l-2.652-2.648c-.702-.704-1.656-1.1-2.65-1.1s-1.948.396-2.65 1.1l-3.757 3.76a21.68 21.68 0 0 0-5.2-2.157v-5.32a3.75 3.75 0 0 0-3.75-3.75h-3.75a3.75 3.75 0 0 0-3.75 3.75v5.325c-1.817.487-3.562 1.2-5.192 2.148l-3.767-3.76c-.703-.705-1.658-1.1-2.653-1.1s-1.95.396-2.654 1.1l-2.648 2.648a3.75 3.75 0 0 0 0 5.3l3.762 3.768a21.53 21.53 0 0 0-2.148 5.193zM1381.87 37a13.13 13.13 0 0 1 13.125-13.125A13.13 13.13 0 0 1 1408.121 37a13.13 13.13 0 0 1-13.125 13.125A13.13 13.13 0 0 1 1381.871 37z"/></g><path d="M595.996 71V61h-6.8a23.37 23.37 0 0 0-3.263-7.863l4.813-4.812-7.075-7.075-4.8 4.813a23.58 23.58 0 0 0-7.875-3.263V36h-10v6.8a23.63 23.63 0 0 0-7.863 3.263l-4.812-4.813-7.075 7.075 4.813 4.812A23.63 23.63 0 0 0 542.796 61h-6.8v10h6.8c.6 2.8 1.705 5.47 3.262 7.875l-4.812 4.812 7.075 7.063 4.812-4.8a23.6 23.6 0 0 0 7.863 3.25V96h10v-6.8a23.56 23.56 0 0 0 7.875-3.25l4.8 4.8 7.075-7.063-4.813-4.812A23.33 23.33 0 0 0 589.196 71zm-25.625-2.163V76h-8.75v-7.163a6.99 6.99 0 0 1-3.125-5.75 7.31 7.31 0 0 1 7.5-7.087 7.31 7.31 0 0 1 7.5 7.087 6.96 6.96 0 0 1-3.125 5.75zM1470.996 54V44h-6.8a23.37 23.37 0 0 0-3.263-7.863l4.813-4.812-7.075-7.075-4.8 4.813a23.58 23.58 0 0 0-7.875-3.263V19h-10v6.8a23.63 23.63 0 0 0-7.863 3.263l-4.812-4.813-7.075 7.075 4.813 4.812a23.63 23.63 0 0 0-3.263 7.863h-6.8v10h6.8c.6 2.8 1.705 5.47 3.262 7.875l-4.812 4.812 7.075 7.063 4.812-4.8a23.6 23.6 0 0 0 7.863 3.25V79h10v-6.8a23.56 23.56 0 0 0 7.875-3.25l4.8 4.8 7.075-7.063-4.813-4.812a23.33 23.33 0 0 0 3.263-7.875zm-25.625-2.163V59h-8.75v-7.163a6.99 6.99 0 0 1-3.125-5.75 7.31 7.31 0 0 1 7.5-7.087 7.31 7.31 0 0 1 7.5 7.087 6.96 6.96 0 0 1-3.125 5.75z"/><use xlink:href="#J"/><ellipse cx="610.996" cy="53" rx="3" ry="5.8"/><path d="M634.996 45h-3.5l-.36-.84 2.48-2.48a6 6 0 0 0 0-8.48l-2.82-2.82a6.12 6.12 0 0 0-8.48 0l-2.48 2.48-.84-.36V29a6 6 0 0 0-6-6h-4a6 6 0 0 0-6 6v3.5l-.84.36-2.48-2.48a6.12 6.12 0 0 0-8.48 0l-2.82 2.82a6 6 0 0 0 0 8.48l2.48 2.48-.36.84h-3.5a6 6 0 0 0-6 6v4a6 6 0 0 0 6 6h3.5l.36.84-2.48 2.48a6 6 0 0 0 0 8.48l2.82 2.82a6.12 6.12 0 0 0 8.48 0l2.48-2.48.84.36V77a6 6 0 0 0 6 6h4a6 6 0 0 0 6-6v-3.5l.84-.36 2.48 2.48a6.12 6.12 0 0 0 8.48 0l2.82-2.82a6 6 0 0 0 0-8.48l-2.48-2.48.36-.84h3.5a6 6 0 0 0 6-6v-4a6 6 0 0 0-6-6zm-24 24c-8.837 0-16-7.163-16-16s7.163-16 16-16 16 7.163 16 16-7.163 16-16 16zm875-45a12 12 0 0 0-2 23.82v-2.56a10.56 10.56 0 0 1-5-9.26 10.34 10.34 0 0 1 6.3-9.88 2.1 2.1 0 0 1 1.4 0 10.34 10.34 0 0 1 6.3 9.88 10.56 10.56 0 0 1-5 9.26v2.56a12 12 0 0 0-2-23.82z"/><ellipse cx="1485.996" cy="36" rx="3" ry="5.8"/><path d="M1509.996 28h-3.5l-.36-.84 2.48-2.48a6 6 0 0 0 0-8.48l-2.82-2.82a6.12 6.12 0 0 0-8.48 0l-2.48 2.48-.84-.36V12a6 6 0 0 0-6-6h-4a6 6 0 0 0-6 6v3.5l-.84.36-2.48-2.48a6.12 6.12 0 0 0-8.48 0l-2.82 2.82a6 6 0 0 0 0 8.48l2.48 2.48-.36.84h-3.5a6 6 0 0 0-6 6v4a6 6 0 0 0 6 6h3.5l.36.84-2.48 2.48a6 6 0 0 0 0 8.48l2.82 2.82a6.12 6.12 0 0 0 8.48 0l2.48-2.48.84.36V60a6 6 0 0 0 6 6h4a6 6 0 0 0 6-6v-3.5l.84-.36 2.48 2.48a6.12 6.12 0 0 0 8.48 0l2.82-2.82a6 6 0 0 0 0-8.48l-2.48-2.48.36-.84h3.5a6 6 0 0 0 6-6v-4a6 6 0 0 0-6-6zm-24 24c-8.837 0-16-7.163-16-16s7.163-16 16-16 16 7.163 16 16-7.163 16-16 16z"/><use xlink:href="#K"/><path d="M656.996 58.5a7.5 7.5 0 1 0 0 15 7.5 7.5 0 1 0 0-15z"/><circle cx="706.996" cy="62.352" r="3.557"/><path d="M706.996 78.477c6.522 0 12.402-3.93 14.898-9.954S723 55.56 718.398 50.95s-11.548-5.99-17.573-3.495-9.954 8.376-9.954 14.898c.01 8.9 7.224 16.114 16.125 16.124zm0-23.24c3.93 0 7.114 3.185 7.114 7.114s-3.185 7.114-7.114 7.114-7.114-3.185-7.114-7.114 3.187-7.11 7.114-7.113z"/><use xlink:href="#L"/><use xlink:href="#M"/><path d="M56.54 64.928l-1.2-.7c-1.425-.822-2.303-2.343-2.303-4a4.61 4.61 0 0 1 2.303-3.99l1.2-.7c1.587-.915 2.746-2.424 3.22-4.194a6.91 6.91 0 0 0-.69-5.243l-2.3-4a6.92 6.92 0 0 0-9.445-2.525l-1.2.7c-1.425.822-3.18.822-4.605-.001s-2.303-2.343-2.303-3.988v-1.4A6.92 6.92 0 0 0 32.3 28h-4.606a6.92 6.92 0 0 0-6.908 6.908v1.4a4.6 4.6 0 0 1-2.302 3.99 4.61 4.61 0 0 1-4.607.001l-1.2-.7a6.92 6.92 0 0 0-9.442 2.526l-2.3 3.988a6.9 6.9 0 0 0 2.529 9.437l1.214.7c1.425.822 2.303 2.343 2.303 3.988a4.61 4.61 0 0 1-2.303 3.99l-1.2.7a6.9 6.9 0 0 0-2.532 9.437l2.3 4a6.92 6.92 0 0 0 9.437 2.529l1.2-.7c1.425-.822 3.18-.822 4.605.001s2.303 2.343 2.303 3.988v1.4a6.92 6.92 0 0 0 6.908 6.908h4.606a6.92 6.92 0 0 0 6.908-6.908v-1.4c0-1.645.878-3.166 2.303-3.988a4.61 4.61 0 0 1 4.605-.001l1.2.7a6.92 6.92 0 0 0 9.437-2.529l2.3-4a6.9 6.9 0 0 0-2.518-9.437zm-26.543 6.826c-6.36 0-11.514-5.155-11.514-11.514s5.155-11.514 11.514-11.514S41.5 53.88 41.5 60.24a11.53 11.53 0 0 1-11.514 11.514zM74.32 76.46h-.048a24.45 24.45 0 0 1-4.87-.63v6.942H80.6v-6.95a23.97 23.97 0 0 1-5.615.645c-.23.004-.425 0-.654-.006z"/><path d="M54.124 65.282q-.45-.662-.86-1.343l-.013-.023a27.66 27.66 0 0 1-2.278-5.205l-5.976 3.44 5.652 9.83 5.993-3.492q-.488-.54-.947-1.1a25.32 25.32 0 0 1-1.57-2.108zm-.874-26.425l.008-.014a26.87 26.87 0 0 1 3.381-4.56l-5.993-3.492-5.65 9.782 5.978 3.484a27.66 27.66 0 0 1 2.277-5.2zM74.292 26.3h.676a24.03 24.03 0 0 1 5.622.645V20H69.402v6.942c1.596-.373 3.225-.584 4.863-.63.022-.001.006-.002.027-.002zm.705 11.813a13.27 13.27 0 0 0-13.268 13.268 13.27 13.27 0 0 0 13.268 13.268 13.27 13.27 0 0 0 13.268-13.268c-.023-7.318-5.95-13.245-13.268-13.268z"/><path d="M96.68 63.93a24.91 24.91 0 0 1-3.367 4.565l6.03 3.5 5.652-9.83L98.97 58.7a24.83 24.83 0 0 1-2.289 5.22zm2.288-19.875l6.028-3.488-5.65-9.782L93.3 34.27a23.17 23.17 0 0 1 3.369 4.573 24.82 24.82 0 0 1 2.289 5.213zm-17.9-15.403a24.86 24.86 0 0 0-5.277-.784h-.054q-.37-.013-.74-.013l-.723.012h-.122a24.56 24.56 0 0 0-5.383.821 23.52 23.52 0 0 0-13.319 35.78 27.66 27.66 0 0 0 1.616 2.133 23.58 23.58 0 0 0 11.71 7.476 24.69 24.69 0 0 0 5.376.82h.123a21.79 21.79 0 0 0 .723.012l.74-.013h.054a24.88 24.88 0 0 0 5.271-.783 23.55 23.55 0 0 0 .005-45.466zm-6.07 37.554a14.82 14.82 0 0 1-13.694-9.15c-2.294-5.54-1.026-11.914 3.213-16.153S75.13 35.396 80.67 37.7a14.82 14.82 0 0 1 9.15 13.694c-.023 8.177-6.646 14.8-14.823 14.823zm1479.56-8.786a8.3 8.3 0 0 0 7.442-8.416 8.3 8.3 0 0 0-7.434-8.419c-.353-.04-.657-.27-.795-.596a.98.98 0 0 1 .13-.985 8.29 8.29 0 0 0-.7-11.209 8.29 8.29 0 0 0-11.2-.699.97.97 0 0 1-.981.132.94.94 0 0 1-.6-.787 8.3 8.3 0 0 0-8.419-7.437 8.3 8.3 0 0 0-8.419 7.434.94.94 0 0 1-.6.791.92.92 0 0 1-.981-.133 8.29 8.29 0 0 0-11.209.7 8.29 8.29 0 0 0-.699 11.208.98.98 0 0 1 .13.98.99.99 0 0 1-.787.6 8.3 8.3 0 0 0-7.436 8.418 8.3 8.3 0 0 0 7.434 8.419c.352.043.653.272.8.6s.086.702-.13.982a8.29 8.29 0 0 0 .7 11.209 8.29 8.29 0 0 0 11.208.691.98.98 0 0 1 .98-.13.99.99 0 0 1 .6.787 8.3 8.3 0 0 0 8.418 7.444 8.3 8.3 0 0 0 8.419-7.434.94.94 0 0 1 .6-.791.97.97 0 0 1 .98.125c3.377 2.612 8.17 2.307 11.188-.712s3.324-7.8.712-11.188a.98.98 0 0 1-.13-.98.99.99 0 0 1 .787-.6zm-.923-7.44c-3.03.376-5.624 2.35-6.793 5.17s-.733 6.05 1.143 8.46c.3.392.277.955-.077 1.308s-.917.384-1.308.072c-2.4-1.875-5.64-2.312-8.46-1.143a8.48 8.48 0 0 0-5.17 6.793c-.063.492-.482.86-.978.86s-.915-.37-.978-.86a8.39 8.39 0 0 0-5.171-6.793 8.52 8.52 0 0 0-3.274-.66 8.42 8.42 0 0 0-5.185 1.8c-.174.18-.418.276-.67.26a.85.85 0 0 1-.63-.34.86.86 0 0 1-.081-1.3c1.875-2.4 2.312-5.64 1.143-8.46a8.48 8.48 0 0 0-6.793-5.17c-.492-.063-.86-.482-.86-.978s.37-.915.86-.978c3.03-.376 5.624-2.35 6.793-5.17s.733-6.05-1.143-8.46a.86.86 0 0 1 .081-1.3.86.86 0 0 1 1.3-.081c2.4 1.875 5.64 2.312 8.46 1.143a8.48 8.48 0 0 0 5.17-6.793c.063-.492.482-.86.978-.86s.915.37.978.86c.376 3.03 2.35 5.624 5.17 6.793s6.05.733 8.46-1.143a.86.86 0 0 1 1.3.081.86.86 0 0 1 .081 1.3c-1.875 2.4-2.312 5.64-1.143 8.46a8.48 8.48 0 0 0 6.793 5.17c.492.063.86.482.86.978s-.37.915-.86.978zm-21.637-8.48a7.5 7.5 0 1 0 0 15 7.5 7.5 0 1 0 0-15z"/><circle cx="1565.996" cy="43.352" r="3.557"/><path d="M1565.996 59.477a16.13 16.13 0 0 0 14.898-9.954c2.496-6.024 1.116-12.96-3.496-17.573s-11.548-6-17.573-3.495-9.954 8.376-9.954 14.898c.01 8.9 7.224 16.114 16.125 16.124zm0-23.24c3.93 0 7.114 3.185 7.114 7.114s-3.185 7.114-7.114 7.114-7.114-3.185-7.114-7.114a7.12 7.12 0 0 1 7.114-7.113zm26.804 7.115l-.057-1.754 3.262-2.985-.2-.977a30.63 30.63 0 0 0-2.334-7.182l-.422-.9-4.392-.5c-.626-1-1.315-1.936-2.064-2.836l.884-4.334-.727-.68a30.63 30.63 0 0 0-6.11-4.439l-.87-.48-3.84 2.178a26.69 26.69 0 0 0-3.343-1.085l-1.83-4.02-.988-.122c-2.508-.312-5.044-.312-7.552 0l-.988.122-1.83 4.02c-1.137.288-2.254.65-3.343 1.085l-3.84-2.176-.87.48c-2.212 1.222-4.264 2.713-6.1 4.44l-.727.68.884 4.334a26.94 26.94 0 0 0-2.064 2.836l-4.392.5-.422.9a30.62 30.62 0 0 0-2.334 7.183l-.2.977 3.264 2.985-.057 1.754.057 1.754-3.262 2.983.2.977a30.62 30.62 0 0 0 2.334 7.183l.422.9 4.392.5c.626 1 1.315 1.936 2.064 2.836l-.884 4.334.727.68a30.63 30.63 0 0 0 6.11 4.439l.87.48 3.842-2.177a26.7 26.7 0 0 0 3.343 1.085l1.83 4.02.988.123a30.61 30.61 0 0 0 7.552 0l.988-.123 1.83-4.02a26.7 26.7 0 0 0 3.343-1.085l3.842 2.177.87-.48a30.66 30.66 0 0 0 6.106-4.44l.727-.68-.884-4.334c.75-.9 1.438-1.847 2.064-2.836l4.392-.5.422-.9c1.07-2.3 1.855-4.7 2.334-7.182l.2-.977-3.264-2.985.057-1.754zm-46.477 0c0-10.87 8.812-19.682 19.682-19.682s19.682 8.812 19.682 19.682-8.812 19.682-19.682 19.682c-10.866-.01-19.672-8.816-19.682-19.682zm-466.603 5.27c-.284-1.046-1.257-1.754-2.34-1.7-2.6.406-5.155-.876-6.383-3.194-1.255-2.22-1.088-4.97.426-7.02a1.99 1.99 0 0 0-.213-2.766 29.07 29.07 0 0 0-11.913-6.808 2.17 2.17 0 0 0-2.553 1.277 6.55 6.55 0 0 1-11.915 0 1.98 1.98 0 0 0-2.553-1.277 27.31 27.31 0 0 0-11.917 7.021 1.99 1.99 0 0 0-.213 2.766 6.49 6.49 0 0 1 .426 7.021 6.87 6.87 0 0 1-6.383 3.191 2.11 2.11 0 0 0-2.34 1.7 24.28 24.28 0 0 0-.852 6.81 26.43 26.43 0 0 0 .851 7.019 1.96 1.96 0 0 0 2.34 1.489 6.15 6.15 0 0 1 6.383 3.19c1.255 2.22 1.088 4.97-.426 7.02a1.99 1.99 0 0 0 .213 2.766 30.3 30.3 0 0 0 12.128 7.021 2.17 2.17 0 0 0 2.553-1.277 6.55 6.55 0 0 1 11.915 0c.315.78 1.075 1.285 1.915 1.277h.638a30.3 30.3 0 0 0 12.128-7.021 2 2 0 0 0 .213-2.766 6.49 6.49 0 0 1-.426-7.021 6.87 6.87 0 0 1 6.383-3.191 2.11 2.11 0 0 0 2.34-1.7 26.43 26.43 0 0 0 .852-7.02 25.61 25.61 0 0 0-1.277-6.809zm-28.936 15.532a8.52 8.52 0 0 1-8.51-8.512c-.01-4.7 3.8-8.5 8.512-8.5s8.5 3.8 8.5 8.5a8.54 8.54 0 0 1-8.513 8.511zM768.72 48.623c-.284-1.046-1.257-1.754-2.34-1.7-2.6.406-5.155-.876-6.383-3.194-1.255-2.22-1.088-4.97.426-7.02a1.99 1.99 0 0 0-.213-2.766 29.07 29.07 0 0 0-11.913-6.808 2.17 2.17 0 0 0-2.553 1.277 6.55 6.55 0 0 1-11.915 0 1.98 1.98 0 0 0-2.553-1.277 27.31 27.31 0 0 0-11.917 7.021 1.99 1.99 0 0 0-.213 2.766 6.49 6.49 0 0 1 .426 7.021 6.87 6.87 0 0 1-6.383 3.191 2.11 2.11 0 0 0-2.34 1.7 24.28 24.28 0 0 0-.852 6.81 26.43 26.43 0 0 0 .851 7.019 1.96 1.96 0 0 0 2.34 1.489 6.15 6.15 0 0 1 6.383 3.19c1.255 2.22 1.088 4.97-.426 7.02a1.99 1.99 0 0 0 .213 2.766 30.3 30.3 0 0 0 12.128 7.021 2.17 2.17 0 0 0 2.553-1.277 6.55 6.55 0 0 1 11.915 0c.315.78 1.075 1.285 1.915 1.277h.638a30.3 30.3 0 0 0 12.128-7.021 2 2 0 0 0 .213-2.766 6.49 6.49 0 0 1-.426-7.021 6.87 6.87 0 0 1 6.383-3.191 2.11 2.11 0 0 0 2.34-1.7 26.43 26.43 0 0 0 .852-7.02 25.61 25.61 0 0 0-1.277-6.809zm-28.936 15.532a8.52 8.52 0 0 1-8.51-8.512c-.01-4.7 3.8-8.5 8.512-8.5s8.5 3.8 8.5 8.5a8.54 8.54 0 0 1-8.513 8.511zM889.93 47.647a2.63 2.63 0 0 0-2.668-1.94c-2.953.464-5.875-.997-7.276-3.638a7.37 7.37 0 0 1 .485-8 2.27 2.27 0 0 0-.243-3.153 33.14 33.14 0 0 0-13.58-7.764c-1.197-.3-2.44.3-2.9 1.455a7.46 7.46 0 0 1-6.79 4.366c-2.923 0-5.577-1.706-6.8-4.366a2.26 2.26 0 0 0-2.91-1.455c-5.138 1.457-9.815 4.212-13.58 8a2.27 2.27 0 0 0-.243 3.153 7.4 7.4 0 0 1 .485 8 7.83 7.83 0 0 1-7.276 3.638 2.4 2.4 0 0 0-2.668 1.94 27.25 27.25 0 0 0-.969 7.767 30.56 30.56 0 0 0 .97 8c.128.58.48 1.085.98 1.404a2.23 2.23 0 0 0 1.687.296c2.953-.464 5.875.997 7.276 3.638a7.37 7.37 0 0 1-.485 8 2.27 2.27 0 0 0 .243 3.153c3.92 3.7 8.654 6.45 13.824 8 1.197.3 2.44-.3 2.9-1.455a7.46 7.46 0 0 1 6.79-4.366c2.923 0 5.577 1.706 6.8 4.366a2.33 2.33 0 0 0 2.183 1.455h.73c5.17-1.55 9.904-4.3 13.824-8 .913-.816 1.02-2.207.243-3.153a7.4 7.4 0 0 1-.485-8 7.83 7.83 0 0 1 7.276-3.638 2.4 2.4 0 0 0 2.668-1.94 30.13 30.13 0 0 0 .97-8 29.19 29.19 0 0 0-1.461-7.763zm-32.983 17.7c-5.357 0-9.7-4.343-9.7-9.7s4.343-9.7 9.7-9.7 9.7 4.343 9.7 9.7a9.73 9.73 0 0 1-9.699 9.704zm289.58-12.517a1.71 1.71 0 0 0-1.731-1.266c-1.92.302-3.82-.648-4.732-2.366-.928-1.644-.805-3.68.315-5.2.5-.614.44-1.522-.158-2.05a21.55 21.55 0 0 0-8.835-5.048 1.61 1.61 0 0 0-1.893.946c-.8 1.73-2.515 2.84-4.416 2.84s-3.627-1.1-4.416-2.84a1.47 1.47 0 0 0-1.893-.946 20.25 20.25 0 0 0-8.832 5.2c-.6.528-.67 1.436-.158 2.05a4.81 4.81 0 0 1 .318 5.214c-1.012 1.6-2.837 2.523-4.732 2.366-.82-.105-1.582.448-1.735 1.262a17.72 17.72 0 0 0-.633 5.043c-.023 1.754.2 3.503.63 5.2.176.783.952 1.275 1.735 1.1a4.56 4.56 0 0 1 4.734 2.375c.928 1.644.805 3.68-.315 5.2-.514.613-.445 1.525.155 2.054a22.46 22.46 0 0 0 8.99 5.2 1.61 1.61 0 0 0 1.893-.946c.8-1.73 2.515-2.84 4.416-2.84s3.627 1.1 4.416 2.84c.234.577.797.952 1.42.946h.473a22.46 22.46 0 0 0 8.99-5.2c.593-.53.663-1.435.158-2.05a4.81 4.81 0 0 1-.315-5.2c1.012-1.6 2.837-2.523 4.732-2.366.82.105 1.582-.448 1.735-1.262a19.57 19.57 0 0 0 .63-5.2 18.99 18.99 0 0 0-.948-5.056zm-21.45 11.514a6.31 6.31 0 0 1-6.309-6.309 6.31 6.31 0 0 1 6.309-6.309 6.31 6.31 0 0 1 6.309 6.309 6.33 6.33 0 0 1-6.309 6.309zm99.643-15.72c-.284-1.046-1.257-1.754-2.34-1.7-2.6.406-5.155-.876-6.383-3.194-1.255-2.22-1.088-4.97.426-7.02a1.99 1.99 0 0 0-.213-2.766 29.07 29.07 0 0 0-11.913-6.808 2.17 2.17 0 0 0-2.553 1.277 6.55 6.55 0 0 1-11.915 0 1.98 1.98 0 0 0-2.553-1.277 27.31 27.31 0 0 0-11.917 7.021 1.99 1.99 0 0 0-.213 2.766 6.49 6.49 0 0 1 .426 7.021 6.87 6.87 0 0 1-6.383 3.191 2.11 2.11 0 0 0-2.34 1.7 24.28 24.28 0 0 0-.852 6.81 26.43 26.43 0 0 0 .851 7.019 1.96 1.96 0 0 0 2.34 1.489 6.15 6.15 0 0 1 6.383 3.19c1.255 2.22 1.088 4.97-.426 7.02a1.99 1.99 0 0 0 .213 2.766 30.3 30.3 0 0 0 12.128 7.021 2.17 2.17 0 0 0 2.553-1.277 6.55 6.55 0 0 1 11.915 0c.315.78 1.075 1.285 1.915 1.277h.638a30.3 30.3 0 0 0 12.128-7.021 2 2 0 0 0 .213-2.766 6.49 6.49 0 0 1-.426-7.021 6.87 6.87 0 0 1 6.383-3.191 2.11 2.11 0 0 0 2.34-1.7 26.43 26.43 0 0 0 .852-7.02 25.61 25.61 0 0 0-1.277-6.809zm-28.936 15.532a8.52 8.52 0 0 1-8.51-8.512c-.01-4.7 3.8-8.5 8.512-8.5s8.5 3.8 8.5 8.5a8.54 8.54 0 0 1-8.513 8.511zM458.72 48.623c-.284-1.046-1.257-1.754-2.34-1.7-2.6.406-5.155-.876-6.383-3.194-1.255-2.22-1.088-4.97.426-7.02a1.99 1.99 0 0 0-.213-2.766 29.07 29.07 0 0 0-11.913-6.808 2.17 2.17 0 0 0-2.553 1.277 6.55 6.55 0 0 1-11.915 0 1.98 1.98 0 0 0-2.553-1.277 27.31 27.31 0 0 0-11.917 7.021 1.99 1.99 0 0 0-.213 2.766 6.49 6.49 0 0 1 .426 7.021 6.87 6.87 0 0 1-6.383 3.191 2.11 2.11 0 0 0-2.34 1.7 24.28 24.28 0 0 0-.852 6.81 26.43 26.43 0 0 0 .851 7.019 1.96 1.96 0 0 0 2.34 1.489 6.15 6.15 0 0 1 6.383 3.19c1.255 2.22 1.088 4.97-.426 7.02a1.99 1.99 0 0 0 .213 2.766 30.3 30.3 0 0 0 12.128 7.021 2.17 2.17 0 0 0 2.553-1.277 6.55 6.55 0 0 1 11.915 0c.315.78 1.075 1.285 1.915 1.277h.638a30.3 30.3 0 0 0 12.128-7.021 2 2 0 0 0 .213-2.766 6.49 6.49 0 0 1-.426-7.021 6.87 6.87 0 0 1 6.383-3.191 2.11 2.11 0 0 0 2.34-1.7 26.43 26.43 0 0 0 .852-7.02 25.61 25.61 0 0 0-1.277-6.809zm-28.936 15.532a8.52 8.52 0 0 1-8.51-8.512c-.01-4.7 3.8-8.5 8.512-8.5s8.5 3.8 8.5 8.5a8.54 8.54 0 0 1-8.513 8.511zM247.72 53.623c-.284-1.046-1.257-1.754-2.34-1.7-2.6.406-5.155-.876-6.383-3.194-1.255-2.22-1.088-4.97.426-7.02a1.99 1.99 0 0 0-.213-2.766 29.07 29.07 0 0 0-11.913-6.808 2.17 2.17 0 0 0-2.553 1.277 6.55 6.55 0 0 1-11.915 0 1.98 1.98 0 0 0-2.553-1.277 27.31 27.31 0 0 0-11.917 7.021 1.99 1.99 0 0 0-.213 2.766 6.49 6.49 0 0 1 .426 7.021 6.87 6.87 0 0 1-6.383 3.191 2.11 2.11 0 0 0-2.34 1.7 24.28 24.28 0 0 0-.852 6.81 26.43 26.43 0 0 0 .851 7.019 1.96 1.96 0 0 0 2.34 1.489 6.15 6.15 0 0 1 6.383 3.19c1.255 2.22 1.088 4.97-.426 7.02a1.99 1.99 0 0 0 .213 2.766 30.3 30.3 0 0 0 12.128 7.021 2.17 2.17 0 0 0 2.553-1.277 6.55 6.55 0 0 1 11.915 0c.315.78 1.075 1.285 1.915 1.277h.638a30.3 30.3 0 0 0 12.128-7.021 2 2 0 0 0 .213-2.766 6.49 6.49 0 0 1-.426-7.021 6.87 6.87 0 0 1 6.383-3.191 2.11 2.11 0 0 0 2.34-1.7 26.43 26.43 0 0 0 .852-7.02 25.61 25.61 0 0 0-1.277-6.809zm-28.936 15.532a8.52 8.52 0 0 1-8.51-8.512c-.01-4.7 3.8-8.5 8.512-8.5s8.5 3.8 8.5 8.5a8.54 8.54 0 0 1-8.513 8.511z"/><use xlink:href="#M"/><path d="M788.757 102.354v-.055c-.02-7.093-4.92-13.24-11.83-14.84a31.89 31.89 0 0 0 10.131-14.567c3.87 1.694 7.37 4.13 10.3 7.174a31.63 31.63 0 0 1 18.674-9.8c-1.094-4.163-1.317-8.507-.657-12.76 2.668.675 5.408 1.025 8.16 1.04a32.96 32.96 0 0 0 8.872-1.205c-2.468 6.705.06 14.224 6.08 18.073h.054c-1.8 5.186-4.62 9.968-8.27 14.074-.33.33-.6.713-.93 1.04a15 15 0 0 0-7.12-2.136c-4.038-.176-7.98 1.26-10.96 3.99s-4.752 6.535-4.926 10.574h-.1a41.47 41.47 0 0 1-7.314.649c-3.423-.001-6.833-.42-10.154-1.252zm-29.9-28.15v-.1a15.26 15.26 0 0 0 7.448-13.088c-.002-5.186-2.643-10.015-7.01-12.815v-.055c1.95-5.6 5.067-10.743 9.146-15.06v-.055c2.378 1.386 5.078 2.122 7.83 2.136 8.166.002 14.893-6.41 15.28-14.568h.055a42.24 42.24 0 0 1 17.361.6v.328a15.23 15.23 0 0 0 15.225 15.225c1.66-.001 3.306-.278 4.873-.82.658-.274 1.37-.548 2.027-.876a42.92 42.92 0 0 1 7.831 14.4 2.21 2.21 0 0 0-.493.274 31.46 31.46 0 0 1-14.9 3.723c-2.264.01-4.523-.228-6.735-.712l-.33-.054c-6.205-1.43-11.847-4.67-16.21-9.3a31.83 31.83 0 0 1-17.306 9.528 30.84 30.84 0 0 1 .876 7.448 32.1 32.1 0 0 1-1.917 10.844v.055c-2.735 7.464-8.14 13.65-15.17 17.36a41.63 41.63 0 0 1-7.886-14.397z" fill="#44bfd5"/></g></svg>