<svg xmlns="http://www.w3.org/2000/svg" viewBox="0 0 1596 126">
<path fill="#2c2c3f" d="M2546.845,1956.466h-.807a62.824,62.824,0,0,1-15.274-1.885v-.059a21.226,21.226,0,0,0-31.909-19.461l-.1-.119c-.283-.329-.561-.666-.837-1l-.359-.448q-.59-.7-1.158-1.451l-.628-.822q-.651-.853-1.309-1.742l-.411-.583q-.717-1.061-1.39-2.153l-.209-.337-.187-.3c-.434-.688-.845-1.436-1.248-2.183l-.165-.314c-.448-.83-.882-1.667-1.293-2.512v-.068c-.4-.837-.785-1.689-1.151-2.542l-.225-.516c-.351-.845-.695-1.7-1.009-2.557l-.172-.329q-.478-1.315-.9-2.654v-.1l-.052-.156-.052-.172h.052c.164-.1.328-.2.489-.3a6.864,6.864,0,0,1-.752-3.132v-1.4a4.606,4.606,0,0,0-6.908-3.989l-1.211.7a6.863,6.863,0,0,1-2.607.874l.421,2.064-.727.68a30.588,30.588,0,0,1-6.109,4.439l-.871.482-3.842-2.177a26.665,26.665,0,0,1-3.343,1.085l-1.829,4.02-.988.122a30.582,30.582,0,0,1-7.552,0l-.987-.122-1.829-4.02a26.679,26.679,0,0,1-3.344-1.085l-3.841,2.177-.871-.482a30.65,30.65,0,0,1-6.11-4.439l-.726-.68.884-4.333a26.888,26.888,0,0,1-2.063-2.836l-4.154-.471q-.223.538-.472,1.064a8.484,8.484,0,0,1-11.467,11.467,23.833,23.833,0,0,1-3.078,1.2,8.508,8.508,0,0,1-16.508-.8q-1.019-.431-1.989-.952A8.488,8.488,0,0,1,2382.1,1899a.985.985,0,0,0-.659-1.582,8.3,8.3,0,0,1-1.98-.455l-1.656,1.656a6.12,6.12,0,0,1-8.436.042,20.923,20.923,0,0,1-3.379,1.766A6,6,0,0,1,2360,1906h-4a6,6,0,0,1-5.985-5.572,20.94,20.94,0,0,1-3.379-1.766,6.121,6.121,0,0,1-8.436-.042l-2.542-2.542a23.334,23.334,0,0,1-2.367,5.235q-.137.318-.285.631l4.744,4.744-7.075,7.063-4-4a20.9,20.9,0,0,1-8.672,3.872V1919h-10v-5.87a20.937,20.937,0,0,1-7.07-3.692q-.4-.236-.792-.489l-4.813,4.8-7.075-7.063,4.813-4.812a23.412,23.412,0,0,1-2.787-6.03,3.735,3.735,0,0,1-.737,1.042l-2.651,2.651a3.749,3.749,0,0,1-5.3,0l-3.014-3.01a20.9,20.9,0,0,1-5.945,2.71v4.012a3.749,3.749,0,0,1-3.749,3.75h-3.75a3.752,3.752,0,0,1-3.75-3.75v-4.012a20.9,20.9,0,0,1-5.948-2.712l-3.01,3.012a3.754,3.754,0,0,1-5.307,0l-2.651-2.651a3.737,3.737,0,0,1-.668-.907,20.842,20.842,0,0,1-1.029,4.143l3.345,3.345a2.718,2.718,0,0,1,0,3.853l-5.782,5.783a2.717,2.717,0,0,1-3.853,0l-2.312-2.312a20.9,20.9,0,0,1-5.342,2.39v3.093a2.718,2.718,0,0,1-2.725,2.723h-8.179a2.717,2.717,0,0,1-2.724-2.723V1912.5a20.964,20.964,0,0,1-4.535-2.511l-3.119,3.119a2.717,2.717,0,0,1-3.853,0l-5.783-5.783a2.717,2.717,0,0,1,0-3.853l4.862-4.863a20.9,20.9,0,0,1-.569-2.791h-7.464a2.718,2.718,0,0,1-2.723-2.726v-2.354a28.734,28.734,0,0,1-7.49,3.42h-.638a2.043,2.043,0,0,1-1.914-1.277,6.589,6.589,0,0,0-.334-.639,21.147,21.147,0,0,1-11.247,0,6.493,6.493,0,0,0-.334.639,2.171,2.171,0,0,1-2.553,1.277,30.3,30.3,0,0,1-12.127-7.021,1.99,1.99,0,0,1-.213-2.767,6.481,6.481,0,0,0,1.152-5.075q-.278-.75-.5-1.526-.1-.215-.227-.42a6.354,6.354,0,0,0-1.8-2.074l-3.773.711V1876a20.907,20.907,0,0,1-2.493,9.933l2.43,3.557-5.447,5.447-3-2.051a20.9,20.9,0,0,1-10.871,4.054l-.765,4.061h-7.7l-1.043-5.534a21.015,21.015,0,0,1-6.561-4.233q-.437-.248-.862-.514l-5.346,3.652,0,.018,4.152.692a3,3,0,0,1,2.507,2.958v3.918a3,3,0,0,1-2.507,2.959l-4.152.692a23.861,23.861,0,0,1-2.871,6.926l2.448,3.427a3,3,0,0,1-.32,3.865l-2.77,2.77a3,3,0,0,1-3.865.319l-3.427-2.448a23.865,23.865,0,0,1-6.927,2.871l-.692,4.152a3,3,0,0,1-2.959,2.506h-3.917a3,3,0,0,1-2.959-2.506l-.692-4.152a23.865,23.865,0,0,1-6.927-2.871l-3.427,2.448a3,3,0,0,1-3.866-.319l-2.769-2.77a3,3,0,0,1-.32-3.865l2.448-3.427a23.867,23.867,0,0,1-2.871-6.926l-4.152-.692a3,3,0,0,1-2.507-2.959v-3.918a3,3,0,0,1,2.507-2.958l4.152-.692a23.859,23.859,0,0,1,2.871-6.926l-1.958-2.74a9.219,9.219,0,0,0-2.336-.724,21.1,21.1,0,0,1-2.949,3.391,10.148,10.148,0,0,0,1.034,2.724,2.075,2.075,0,0,1-.653,2.832,27.424,27.424,0,0,1-10.676,4.576h-.437a2.163,2.163,0,0,1-2.178-1.526,8.322,8.322,0,0,0-1.37-3H2043a21.124,21.124,0,0,1-3.857-.354,10.137,10.137,0,0,0-1.737,3.351,2.366,2.366,0,0,1-2.615,1.526,33.02,33.02,0,0,1-10.677-4.576,2.309,2.309,0,0,1-.653-2.832c1.308-2.4,1.526-4.793.653-5.665a1.32,1.32,0,0,0-.146-.126,30.277,30.277,0,0,1-.309,3.139l-7.364,2.344a23.3,23.3,0,0,1-4.1,7.733,20.9,20.9,0,0,1-.97,1.908l1.53,6.917a29.935,29.935,0,0,1-7.847,4.532l-3.092-2.829a21.068,21.068,0,0,1-16.258.575l-2.463,2.255a29.933,29.933,0,0,1-7.843-4.532l1.03-4.657a20.892,20.892,0,0,1-4.187-10.725q-.208-.566-.388-1.143l-4.4-1.4a7.119,7.119,0,0,0,.551.93,2,2,0,0,1-.212,2.766,30.3,30.3,0,0,1-12.127,7.021h-.638a2.044,2.044,0,0,1-1.915-1.276,6.549,6.549,0,0,0-11.915,0,2.17,2.17,0,0,1-2.553,1.276,27.969,27.969,0,0,1-5.774-2.4,8.486,8.486,0,0,1-6.343,10.456,24.276,24.276,0,0,1-1.092,2.727,8.181,8.181,0,0,1-11.372,11.372,24.239,24.239,0,0,1-2.727,1.091,8.181,8.181,0,0,1-16.09,0,24.1,24.1,0,0,1-2.727-1.091,8.182,8.182,0,0,1-10.554-.845,8.018,8.018,0,0,1-2.372-5.837,7.854,7.854,0,0,1,1.527-4.718,24.239,24.239,0,0,1-1.091-2.727,8.181,8.181,0,0,1-6.872-8.182,8.013,8.013,0,0,1,2.182-5.645q.273-.278.571-.526a6.171,6.171,0,0,1-4.994-1.649l-2-2a22.691,22.691,0,0,1-4.72,2V1894a6,6,0,1,1-12,0v-2.74a22.717,22.717,0,0,1-4.72-2l-2,2a6.182,6.182,0,0,1-8.5,0q-.2-.2-.387-.425l-.085.148-6.03-3.488a25.641,25.641,0,0,0,5.656-9.786l1.845,1.054a22.684,22.684,0,0,1-1-2.723H1834.8a23.593,23.593,0,0,1-16.727,17.078,24.872,24.872,0,0,1-5.271.783l-.054,0q-.371.014-.74.014c-.241,0-.482,0-.723-.013l-.122,0a24.582,24.582,0,0,1-5.377-.82,23.531,23.531,0,0,1-10.278-5.934q-.669.87-1.42,1.677l1.67,7.543a29.971,29.971,0,0,1-7.847,4.532l-5.7-5.217a23.24,23.24,0,0,1-10.412,0l-5.7,5.217a29.96,29.96,0,0,1-7.843-4.532l1.669-7.543a23.289,23.289,0,0,1-5.213-8.982l-7.365-2.344a30.307,30.307,0,0,1,0-9.057l7.365-2.344a23.28,23.28,0,0,1,5.213-9.02l-1.669-7.542A29.936,29.936,0,0,1,1766.1,1845l5.705,5.217a23.237,23.237,0,0,1,10.411,0l5.7-5.217a29.95,29.95,0,0,1,7.843,4.533l-1.1,4.971a23.57,23.57,0,0,1,11.121-6.814,24.6,24.6,0,0,1,5.383-.822l.122,0c.241-.007.482-.012.723-.012s.492,0,.74.013l.054,0a24.9,24.9,0,0,1,5.277.785,23.6,23.6,0,0,1,16.54,16.387h2.129q.268-.9.609-1.781l-1.376.8a24.842,24.842,0,0,0-2.283-5.209,23.147,23.147,0,0,0-3.37-4.572l5.422-3.138a6,6,0,0,1,1-1.317,6.2,6.2,0,0,1,8.5,0l2,2a22.71,22.71,0,0,1,4.72-2V1846a6,6,0,1,1,12,0v2.78a22.648,22.648,0,0,1,4.72,2l2-2a6.179,6.179,0,0,1,8.5,0,6,6,0,0,1,0,8.5l-2,2a22.7,22.7,0,0,1,2,4.72H1882v-.041a6,6,0,1,1,0,12h-2.74a22.691,22.691,0,0,1-2,4.72l1.947,1.947a8.158,8.158,0,0,1,12.884-5.662,24.1,24.1,0,0,1,2.727-1.091A8.181,8.181,0,0,1,1903,1869a8.018,8.018,0,0,1,5.673,2.208,7.887,7.887,0,0,1,2.264,4.418,24.089,24.089,0,0,1,2.727,1.091,8.157,8.157,0,0,1,3.687-1.376,29.211,29.211,0,0,1-.35-4.7,23.911,23.911,0,0,1,.851-6.808,2.107,2.107,0,0,1,2.34-1.7,6.871,6.871,0,0,0,6.383-3.191,6.491,6.491,0,0,0-.425-7.022,1.988,1.988,0,0,1,.212-2.766,27.308,27.308,0,0,1,11.915-7.021,1.982,1.982,0,0,1,2.553,1.276,6.548,6.548,0,0,0,11.914,0,2.17,2.17,0,0,1,2.553-1.276,29.061,29.061,0,0,1,11.915,6.809,1.989,1.989,0,0,1,.213,2.766,6.464,6.464,0,0,0-.426,7.021,6.144,6.144,0,0,0,6.383,3.191,2.306,2.306,0,0,1,2.34,1.7c.35,1.282.7,2.5.945,3.725q.124-.137.25-.273l-1.669-7.542A29.936,29.936,0,0,1,1983.1,1855l5.705,5.217a23.236,23.236,0,0,1,10.411,0l5.7-5.217a29.941,29.941,0,0,1,6.906,3.813,32.393,32.393,0,0,1,3.8-7.917,2.309,2.309,0,0,1,2.832-.653c2.615,1.308,4.793,1.526,5.665.653s.654-3.268-.653-5.665a1.894,1.894,0,0,1,.872-2.615,27.415,27.415,0,0,1,10.676-4.576,2.366,2.366,0,0,1,2.615,1.526c.653,2.615,2.179,4.358,3.486,4.358s2.615-1.743,3.487-4.358a2.366,2.366,0,0,1,2.615-1.526,33.014,33.014,0,0,1,10.676,4.576,2.309,2.309,0,0,1,.653,2.832c-1.307,2.4-1.524,4.793-.653,5.665s3.268.654,5.665-.653a2.075,2.075,0,0,1,2.832.653,27.411,27.411,0,0,1,4.576,10.677,2.366,2.366,0,0,1-1.525,2.615c-2.615.653-4.357,2.179-4.357,3.486s1.742,2.615,4.357,3.486a1.886,1.886,0,0,1,1.308,2.4,34.253,34.253,0,0,1-1.106,3.736l2.83,2.021a23.862,23.862,0,0,1,6.927-2.871l.692-4.152a3,3,0,0,1,2.959-2.507h3.917a3,3,0,0,1,2.959,2.507l.692,4.152a23.863,23.863,0,0,1,6.926,2.871l3.427-2.448a3,3,0,0,1,2.471-.469q-.047-.188-.09-.377l-7.344-1.383v-7.7l7.344-1.383a23.113,23.113,0,0,1,2.937-7.082l-4.217-6.173,5.447-5.447,6.173,4.217a23.122,23.122,0,0,1,7.081-2.937l1.384-7.344h7.7l1.384,7.344a23.115,23.115,0,0,1,7.081,2.937l6.173-4.217,5.447,5.447-4.217,6.173q.428.684.81,1.4.139-.634.322-1.247a2.109,2.109,0,0,1,2.341-1.7,6.869,6.869,0,0,0,6.383-3.191,6.49,6.49,0,0,0-.426-7.021,1.99,1.99,0,0,1,.213-2.767,27.305,27.305,0,0,1,11.914-7.021,1.981,1.981,0,0,1,2.553,1.276,6.548,6.548,0,0,0,11.915,0,2.171,2.171,0,0,1,2.553-1.276,29.073,29.073,0,0,1,11.915,6.808,1.99,1.99,0,0,1,.212,2.766,6.468,6.468,0,0,0-.426,7.022,6.147,6.147,0,0,0,6.384,3.191,2.306,2.306,0,0,1,2.34,1.7,33.1,33.1,0,0,1,1.211,5.491,2.716,2.716,0,0,1,1.6.78l5.638,5.639a20.1,20.1,0,0,1,2.016-.835v-7.975a2.717,2.717,0,0,1,2.724-2.723h8.179a2.718,2.718,0,0,1,2.725,2.723v7.987a20.221,20.221,0,0,1,2.005.833l5.649-5.649a2.717,2.717,0,0,1,3.853,0l5.782,5.782c.045.045.088.091.129.137a21.546,21.546,0,0,1,1.99-4.632l-3.761-3.768a3.749,3.749,0,0,1,0-5.3l2.648-2.648a3.747,3.747,0,0,1,5.307,0l3.766,3.759a21.637,21.637,0,0,1,5.191-2.148v-5.324a3.751,3.751,0,0,1,3.75-3.75h3.75a3.748,3.748,0,0,1,3.749,3.75v5.316a21.689,21.689,0,0,1,5.2,2.156l3.757-3.759a3.743,3.743,0,0,1,5.3,0l2.651,2.648a3.749,3.749,0,0,1,0,5.3l-3.762,3.761a21.679,21.679,0,0,1,2.156,5.2h.369l-.051-.051,7.075-7.075,4.813,4.812A23.611,23.611,0,0,1,2308,1865.8V1859h10v6.8a23.579,23.579,0,0,1,7.875,3.262l4.8-4.812,3.75,3.749h3.075l.361-.84-2.48-2.48a6,6,0,0,1,0-8.48l2.82-2.82a6.119,6.119,0,0,1,8.48,0l2.48,2.479.84-.36V1852a6,6,0,0,1,6-6h4a6,6,0,0,1,6,6v3.5l.841.36,2.48-2.479a6.119,6.119,0,0,1,8.48,0l2.821,2.82a6,6,0,0,1,0,8.48l-2.48,2.48.36.84h3.5q.281,0,.555.025.115-.119.236-.235a8.29,8.29,0,0,1,11.209-.7.92.92,0,0,0,.981.132.939.939,0,0,0,.6-.791,8.484,8.484,0,0,1,16.838,0,.936.936,0,0,0,.6.787.969.969,0,0,0,.981-.132,8.595,8.595,0,0,1,13.443,4.4l3.892-.441a26.9,26.9,0,0,1,2.064-2.836l-.884-4.334.726-.679a30.65,30.65,0,0,1,6.11-4.439l.871-.481,3.841,2.177a26.707,26.707,0,0,1,3.343-1.085l1.83-4.02.987-.122a30.582,30.582,0,0,1,7.552,0l.988.122,1.829,4.02a26.564,26.564,0,0,1,3.343,1.085l3.842-2.177.871.481a30.724,30.724,0,0,1,3.192,2.03q.641.466,1.261.968a6.877,6.877,0,0,1,4.568.832l1.211.7a4.606,4.606,0,0,0,6.908-3.989v-1.4A6.917,6.917,0,0,1,2492.7,1851h4.605a6.873,6.873,0,0,1,2.452.449c.231-.261.467-.521.7-.772l.045-.052a22.877,22.877,0,0,0,17.824,2.4,22.789,22.789,0,0,0,14.585-20.679h.075c.689-.149,1.369-.261,2.057-.381h.113l.568-.09,1.278-.194q.987-.142,2-.292l.965-.1c.837-.082,1.7-.149,2.5-.194s1.6-.09,2.4-.09h1.188a62.88,62.88,0,0,1,14.983,1.832h.044v.486a21.293,21.293,0,0,0,32.193,19.162l.075.09c.328.388.635.754.949,1.136.224.269.441.554.658.83l.254.321q.748.89,1.465,1.824l.269.382c.463.628.913,1.271,1.346,1.922l.179.276c.456.688.9,1.354,1.331,2.1.172.277.3.508.485.831s.382.643.561.971q.374.7.748,1.413l.284.583.1.189a4.606,4.606,0,0,0,6.819-4.04v-1.4A6.917,6.917,0,0,1,2615.7,1853h4.605a6.917,6.917,0,0,1,6.908,6.908v1.4a4.617,4.617,0,0,0,5.313,4.558,4.646,4.646,0,0,0,.265-1.556v-1.4A6.917,6.917,0,0,1,2639.7,1856h4.606a6.917,6.917,0,0,1,6.908,6.908v1.4a4.605,4.605,0,0,0,6.908,3.989l1.211-.7a6.894,6.894,0,0,1,1.673-.693l-4.006-2.335,5.652-9.782,5.992,3.492a26.91,26.91,0,0,0-3.38,4.559l-.008.014a29.466,29.466,0,0,0-1.811,3.852,6.969,6.969,0,0,1,1.555.333,23.641,23.641,0,0,1,15.774-14.347,24.6,24.6,0,0,1,5.383-.822l.121,0c.241-.007.482-.012.723-.012s.493,0,.741.013l.054,0a24.879,24.879,0,0,1,5.276.785,23.6,23.6,0,0,1,16.541,16.387h2.129q.267-.9.608-1.781l-1.375.8a24.907,24.907,0,0,0-2.284-5.209,23.088,23.088,0,0,0-3.37-4.572l5.423-3.138a6,6,0,0,1,1-1.316,6.2,6.2,0,0,1,8.5,0l2,2a22.643,22.643,0,0,1,4.72-2V1851a6,6,0,0,1,12,0v2.78a22.665,22.665,0,0,1,4.72,2l2-2a6.181,6.181,0,0,1,8.5,0,5.988,5.988,0,0,1,.59.683,8.157,8.157,0,0,1,12.322-3.5,24.259,24.259,0,0,1,2.727-1.091A8.181,8.181,0,0,1,2778,1843a8.015,8.015,0,0,1,5.672,2.209,7.875,7.875,0,0,1,2.263,4.418,24.136,24.136,0,0,1,2.728,1.091,8.181,8.181,0,0,1,11.371,11.372,24.076,24.076,0,0,1,1.091,2.727,8.183,8.183,0,0,1,6.552,5.8,27.32,27.32,0,0,1,7.6-3.488,1.983,1.983,0,0,1,2.553,1.277,6.549,6.549,0,0,0,11.915,0,2.172,2.172,0,0,1,2.553-1.277,28.463,28.463,0,0,1,4.665,1.79l5.742-1.828a23.3,23.3,0,0,1,5.214-9.02l-1.67-7.542A29.951,29.951,0,0,1,2854.1,1846l5.705,5.217a23.216,23.216,0,0,1,2.791-.465A20.924,20.924,0,0,1,2871,1849q.791,0,1.568.058l3.34-3.057a29.922,29.922,0,0,1,7.843,4.533l-.528,2.388a20.98,20.98,0,0,1,8.729,15.635l2.708.85a30.313,30.313,0,0,1,.256,6.788c1.471.378,2.621.279,3.2-.3.872-.871.654-3.268-.653-5.665a1.894,1.894,0,0,1,.872-2.615,27.4,27.4,0,0,1,10.676-4.576,2.366,2.366,0,0,1,2.615,1.526c.653,2.615,2.179,4.357,3.486,4.357s2.614-1.742,3.487-4.357a2.366,2.366,0,0,1,2.615-1.526,33.313,33.313,0,0,1,9.635,3.912,2.992,2.992,0,0,1,1.662-.872l4.152-.692a23.858,23.858,0,0,1,2.871-6.926l-2.448-3.427a3,3,0,0,1,.321-3.865l2.77-2.77a3,3,0,0,1,3.865-.319l3.427,2.448a23.864,23.864,0,0,1,6.926-2.871l.692-4.152a3,3,0,0,1,2.959-2.507h3.918a3,3,0,0,1,2.959,2.507l.692,4.152a23.861,23.861,0,0,1,6.926,2.871l3.427-2.448a3,3,0,0,1,3.865.32l2.77,2.769a3,3,0,0,1,.32,3.865l-2.448,3.427a23.943,23.943,0,0,1,1.876,3.763l5.164-5.164,6.173,4.217a23.123,23.123,0,0,1,7.081-2.937l1.383-7.344h7.7l1.383,7.344a23.105,23.105,0,0,1,7.081,2.937l6.174-4.217,2.66,2.66a6.682,6.682,0,0,0,3.424-2.782,6.488,6.488,0,0,0-.426-7.021,1.989,1.989,0,0,1,.213-2.766,27.305,27.305,0,0,1,11.915-7.022,1.983,1.983,0,0,1,2.553,1.277,6.548,6.548,0,0,0,11.914,0,2.172,2.172,0,0,1,2.553-1.277,29.077,29.077,0,0,1,11.915,6.808,1.991,1.991,0,0,1,.212,2.767,6.468,6.468,0,0,0-.426,7.021,6.181,6.181,0,0,0,5.575,3.27l2.1-2.1a2.718,2.718,0,0,1,3.853,0l5.638,5.639a20.444,20.444,0,0,1,2.016-.834v-7.976a2.716,2.716,0,0,1,2.725-2.723h8.178a2.717,2.717,0,0,1,2.725,2.723v7.987a20.429,20.429,0,0,1,2.005.833l5.649-5.649a2.717,2.717,0,0,1,3.853,0l5.782,5.783c.045.045.088.09.129.137a21.581,21.581,0,0,1,1.99-4.633l-3.761-3.768a3.749,3.749,0,0,1,0-5.3l2.648-2.648a3.747,3.747,0,0,1,5.307,0l3.766,3.76a21.654,21.654,0,0,1,5.191-2.149v-5.324a3.751,3.751,0,0,1,3.75-3.75h3.75a3.748,3.748,0,0,1,3.75,3.75v5.316a21.637,21.637,0,0,1,5.2,2.157l3.757-3.76a3.743,3.743,0,0,1,5.3,0l2.651,2.648a3.749,3.749,0,0,1,0,5.3l-3.762,3.762a21.655,21.655,0,0,1,2.156,5.2h.369l-.051-.051,7.076-7.075,4.812,4.812A23.631,23.631,0,0,1,3183,1858.8V1852h10v6.8a23.6,23.6,0,0,1,7.875,3.262l4.8-4.812,3.75,3.75h3.075l.36-.841-2.48-2.479a6,6,0,0,1,0-8.481l2.82-2.82a6.122,6.122,0,0,1,8.481,0l2.479,2.48.841-.36V1845a6,6,0,0,1,6-6h4a6,6,0,0,1,6,6v3.5l.841.36,2.479-2.48a6.122,6.122,0,0,1,8.481,0l2.82,2.82a6,6,0,0,1,0,8.481l-2.48,2.479.36.841h3.5q.281,0,.556.025c.076-.079.155-.158.236-.235a8.288,8.288,0,0,1,11.208-.7.916.916,0,0,0,.163.11q.682-.323,1.388-.6a.919.919,0,0,0,.031-.166,8.484,8.484,0,0,1,16.838,0,.945.945,0,0,0,.03.162q.7.278,1.383.6a.955.955,0,0,0,.168-.107,8.28,8.28,0,0,1,2.307-1.326l-.793-3.883.726-.679a30.65,30.65,0,0,1,6.11-4.439l.871-.481,3.841,2.177a26.783,26.783,0,0,1,3.344-1.085l1.829-4.02.988-.122a30.58,30.58,0,0,1,7.552,0l.987.122,1.829,4.02a26.525,26.525,0,0,1,3.343,1.085l3.842-2.177.871.481a30.631,30.631,0,0,1,6.11,4.439l.726.679-.884,4.334a26.958,26.958,0,0,1,2.063,2.836l4.392.5.422.9a30.695,30.695,0,0,1,2.333,7.183l.188.977-3.262,2.984c.038.586.058,1.174.058,1.754s-.02,1.167-.058,1.753l3.262,2.985-.188.977a30.693,30.693,0,0,1-2.333,7.183l-.422.9-4.392.5a26.972,26.972,0,0,1-2.063,2.836l.884,4.333-.726.68a30.631,30.631,0,0,1-6.11,4.439l-.871.482-3.842-2.177a26.665,26.665,0,0,1-3.343,1.085l-1.829,4.02-.987.122a30.58,30.58,0,0,1-7.552,0l-.988-.122-1.829-4.02a26.717,26.717,0,0,1-3.343-1.085l-.572.324a8.489,8.489,0,0,1-12.493,2.338.967.967,0,0,0-.981-.131.937.937,0,0,0-.6.791,8.484,8.484,0,0,1-16.838,0,.985.985,0,0,0-1.581-.656A8.483,8.483,0,0,1,3257.1,1892a.985.985,0,0,0-.659-1.582,8.3,8.3,0,0,1-1.979-.455l-1.656,1.656a6.122,6.122,0,0,1-8.437.042,20.935,20.935,0,0,1-3.379,1.766A6,6,0,0,1,3235,1899h-4a6,6,0,0,1-5.984-5.572,20.945,20.945,0,0,1-3.379-1.766,6.122,6.122,0,0,1-8.437-.042l-2.542-2.542a23.38,23.38,0,0,1-2.721,5.8l4.812,4.813-7.075,7.062-4.8-4.8a23.821,23.821,0,0,1-4.254,2.171,20.9,20.9,0,0,1-3.621,1.685V1912h-10v-5.212a20.887,20.887,0,0,1-9.089-3.614l-3.585,3.577-7.076-7.062,4.075-4.075a20.85,20.85,0,0,1-2.115-6.636,3.743,3.743,0,0,1-.671.91l-2.651,2.651a3.749,3.749,0,0,1-5.3,0l-1.844-1.842a20.923,20.923,0,0,1-7.114,3.542v2.012a3.749,3.749,0,0,1-3.75,3.75h-3.75a3.752,3.752,0,0,1-3.75-3.75v-2.012a20.917,20.917,0,0,1-7.115-3.543l-1.843,1.843a3.754,3.754,0,0,1-5.307,0l-1.676-1.676a20.857,20.857,0,0,1-1.247,3.686l1.919,1.92a2.717,2.717,0,0,1,0,3.853l-5.782,5.783a2.718,2.718,0,0,1-3.853,0l-1.577-1.577a20.86,20.86,0,0,1-6.077,2.125v2.622a2.718,2.718,0,0,1-2.725,2.723h-8.178a2.718,2.718,0,0,1-2.725-2.723v-4.706a21.019,21.019,0,0,1-3.658-2.461l-4,4a2.717,2.717,0,0,1-3.853,0l-5.783-5.783a2.717,2.717,0,0,1,0-3.853l5.649-5.648a20.3,20.3,0,0,1-.834-2.005H3072.3a2.137,2.137,0,0,1-.66,1.318,30.3,30.3,0,0,1-12.128,7.021h-.639a2.045,2.045,0,0,1-1.914-1.276,6.549,6.549,0,0,0-11.915,0,2.17,2.17,0,0,1-2.553,1.276,30.286,30.286,0,0,1-12.127-7.021,1.989,1.989,0,0,1-.213-2.766,5.829,5.829,0,0,0,.864-1.576l-2.356.444a23.1,23.1,0,0,1-2.937,7.081l4.217,6.173-5.446,5.447-4.628-3.161a20.939,20.939,0,0,1-9.157,4.7l-.853,4.529h-7.7l-.853-4.529a20.94,20.94,0,0,1-9.156-4.7l-4.628,3.161-5.447-5.447,4.216-6.173a23.124,23.124,0,0,1-2.936-7.081l-1.092-.206.667.933a3,3,0,0,1-.321,3.865l-2.769,2.769a3,3,0,0,1-3.865.32l-3.427-2.448a23.86,23.86,0,0,1-6.925,2.87l-.692,4.153a3,3,0,0,1-2.959,2.506h-3.918a3,3,0,0,1-2.959-2.506l-.692-4.153a23.862,23.862,0,0,1-6.926-2.871l-3.428,2.448a3,3,0,0,1-3.865-.32l-1.056-1.056a1.608,1.608,0,0,0-.04.349c0,1.307,1.743,2.615,4.358,3.486a1.886,1.886,0,0,1,1.307,2.4,32.99,32.99,0,0,1-4.576,10.676,2.308,2.308,0,0,1-2.832.654,9.219,9.219,0,0,0-3.626-1.164,21.154,21.154,0,0,1-2.556,2.434,9.086,9.086,0,0,0,1.17,3.742,2.075,2.075,0,0,1-.653,2.832,27.423,27.423,0,0,1-10.676,4.576h-.436a2.165,2.165,0,0,1-2.179-1.526c-.655-2.615-2.179-4.358-3.487-4.358s-2.615,1.743-3.486,4.358a2.367,2.367,0,0,1-2.615,1.526,33.021,33.021,0,0,1-10.677-4.576,2.309,2.309,0,0,1-.653-2.832c1.308-2.4,1.525-4.793.653-5.666s-3.268-.653-5.665.654a2.074,2.074,0,0,1-2.832-.654,27.416,27.416,0,0,1-4.576-10.676,2.367,2.367,0,0,1,1.526-2.615c2.615-.653,4.358-2.179,4.358-3.486s-1.743-2.615-4.358-3.487a2.367,2.367,0,0,1-1.526-2.615q.147-.623.318-1.245a23.286,23.286,0,0,1-3.277,4.494l1.669,7.543a29.933,29.933,0,0,1-7.847,4.532l-5.7-5.217a23.234,23.234,0,0,1-10.411,0l-5.7,5.217q-.367-.143-.729-.3-.1.426-.214.852a2.109,2.109,0,0,1-2.341,1.7,6.871,6.871,0,0,0-6.383,3.191,6.491,6.491,0,0,0,.426,7.022,2,2,0,0,1-.213,2.766,30.287,30.287,0,0,1-12.128,7.021h-.638a2.043,2.043,0,0,1-1.914-1.276,6.549,6.549,0,0,0-11.915,0,2.17,2.17,0,0,1-2.553,1.276,30.286,30.286,0,0,1-12.127-7.021,1.989,1.989,0,0,1-.213-2.766,6.468,6.468,0,0,0,.426-7.022,6.145,6.145,0,0,0-6.383-3.191,1.961,1.961,0,0,1-2.341-1.49,25.291,25.291,0,0,1-.835-5.943,8.167,8.167,0,0,1-5.108-1.415,24.086,24.086,0,0,1-2.727,1.091,8.181,8.181,0,0,1-16.09,0,24.144,24.144,0,0,1-2.727-1.091,8.181,8.181,0,0,1-10.553-.845,8.014,8.014,0,0,1-.951-1.135,6,6,0,0,1-1.6,2.852,6.157,6.157,0,0,1-3.726,1.671,20.9,20.9,0,0,1-12.3,4.148,6,6,0,0,1-11.2-3v-.084a21.117,21.117,0,0,1-5.051-4.327l-1.67,1.67a6.179,6.179,0,0,1-8.5,0q-.2-.2-.387-.425l-.085.148-6.031-3.488a25.608,25.608,0,0,0,5.656-9.786l1.846,1.055a22.679,22.679,0,0,1-1-2.724H2709.8a23.413,23.413,0,0,1-2.348,5.9,21.008,21.008,0,0,1-31.765,9.065,23.686,23.686,0,0,1-6.611-5.4c-.574-.688-1.116-1.4-1.616-2.133a23.543,23.543,0,0,1-1.629-2.831,4.548,4.548,0,0,0-.75,1.946q.089.164.181.329a.2.2,0,0,0,.011.023c.273.454.562.9.861,1.344a25.477,25.477,0,0,0,1.57,2.105q.46.562.947,1.1l-.428.249.327.189a6.906,6.906,0,0,1,2.528,9.438l-2.3,3.988a6.919,6.919,0,0,1-9.437,2.529l-1.211-.7a4.576,4.576,0,0,0-2.612-.614,20.971,20.971,0,0,1-3.341,1.784,4.568,4.568,0,0,0-.955,2.818v1.4a6.917,6.917,0,0,1-6.908,6.908H2639.7a6.917,6.917,0,0,1-6.908-6.908v-1.4a4.619,4.619,0,0,0-5.312-4.558,4.641,4.641,0,0,0-.265,1.556v1.4a6.917,6.917,0,0,1-6.908,6.908H2615.7a6.917,6.917,0,0,1-6.908-6.908v-1.4a4.606,4.606,0,0,0-6.909-3.989l-1.21.7a6.859,6.859,0,0,1-2.974.908,22.846,22.846,0,0,0,7.535,7.666c-.135.358-.284.733-.419,1.106-.2.538-.4,1.085-.613,1.623a62.512,62.512,0,0,1-11.424,18.406h-.052c-.4.427-.755.859-1.151,1.279a22.883,22.883,0,0,0-18.249-2.243,22.531,22.531,0,0,0-3.14,1.554,22.825,22.825,0,0,0-11.049,18.886v.067c-.688.149-1.376.269-2.064.389h-.149c-.786.135-1.533.247-2.281.352l-.651.089q-.92.112-1.839.2l-1.5.127-1.1.075c-.867.052-1.741.1-2.609.1ZM3279,1904.5a.985.985,0,0,0,.866-.515q-.431.016-.866.016c-.29,0-.58-.005-.867-.016A.986.986,0,0,0,3279,1904.5Zm-15.908-6.591a.853.853,0,0,0,.631.34l.062,0q-.53-.468-1.031-.968A.867.867,0,0,0,3263.1,1897.908Zm-1383.8-6.763q.152-.03.306-.053.081-.244.167-.486A6.013,6.013,0,0,1,1879.3,1891.145Zm45.739-3.053q.435.921.792,1.877a2.282,2.282,0,0,1,.323-.6,6.468,6.468,0,0,0,.425-7.022q-.122-.224-.26-.435A8.172,8.172,0,0,1,1925.039,1888.092Zm876.336-6.883a24.285,24.285,0,0,1-1.091,2.727,8.183,8.183,0,0,1,1.068,2.212,6.508,6.508,0,0,0,2.226-2.206,6.089,6.089,0,0,0,.78-3.956A8.16,8.16,0,0,1,2801.375,1881.209ZM2289.8,1884q.151-.693.34-1.372h-2.216q-.186.7-.417,1.372Zm-87.1-1.814a20.385,20.385,0,0,1,.834-2.015l-4.973-4.973a6.493,6.493,0,0,0-2.135,2.149q-.122.2-.226.413-.227.8-.515,1.57a6.5,6.5,0,0,0,.139,2.856ZM3164.8,1877q.151-.693.34-1.372h-2.2q-.053.693-.15,1.372Zm-232.915-.886c.592.592,1.887.681,3.408.268l-2.788-.464a2.994,2.994,0,0,1-.955-.332A1.539,1.539,0,0,0,2931.89,1876.115Zm-920.8-9.034a23.278,23.278,0,0,1,2.785,3.657c1.876-.764,3.058-1.988,3.058-3.064,0-1.308-1.743-2.615-4.358-3.486a2.616,2.616,0,0,1-.745-.454Zm743.1-4.8-2,2q.359.635.675,1.291a7.877,7.877,0,0,1,1.746-.48,24.193,24.193,0,0,1,1.091-2.727,8.25,8.25,0,0,1-.679-1.122A5.987,5.987,0,0,1,2754.184,1862.281Zm229.939,3.239-1.255-1.838c.179.56.339,1.131.477,1.708ZM2358.107,1860h0Zm-.207,0h0Zm875.207-7h0Zm-.207,0h0Zm-551.489,53.769v-6.942a24.479,24.479,0,0,0,4.871.629l.049,0c.228.006.422.01.652.01a24,24,0,0,0,5.615-.644v6.944Zm-875-5v-6.942a24.462,24.462,0,0,0,4.87.629l.049,0c.229.006.422.01.653.01a23.993,23.993,0,0,0,5.615-.644v6.944Zm880.565-51.469c-.231,0-.447,0-.676.01-.021,0,0,0-.024,0a24.415,24.415,0,0,0-4.865.63V1844H2692.6v6.944A24.05,24.05,0,0,0,2686.975,1850.3Zm-875-5c-.231,0-.446,0-.676.01-.021,0,0,0-.025,0a24.39,24.39,0,0,0-4.864.63V1839H1817.6v6.944A24.049,24.049,0,0,0,1811.975,1845.3Z" transform="translate(-1747.007 -1831.001)"/>
</svg>
