<svg xmlns="http://www.w3.org/2000/svg" viewBox="0 0 512 512" fill="#93b471"><path d="M194 504.335v-.323c-.115-43.42-30.1-81.05-72.4-90.853 28.7-23.263 50.195-54.185 62.02-89.177 23.677 10.373 45.086 25.296 63 43.922 30.108-32.49 70.445-53.676 114.284-60.02-6.682-25.485-8.05-52.07-4.02-78.107a207.8 207.8 0 0 0 49.95 6.373 201.34 201.34 0 0 0 54.285-7.383c-15.108 41.04.372 87.067 37.21 110.636h.324a257.26 257.26 0 0 1-50.6 86.156c-2.02 2-3.686 4.363-5.705 6.363-13.196-7.945-28.18-12.44-43.57-13.07-51.274-2.343-94.853 37.55-97.206 89.177h-.656c-14.775 2.64-29.755 3.97-44.765 3.97-20.957-.002-41.834-2.576-62.164-7.665zm-183-172.3v-.677a93.42 93.42 0 0 0 45.588-80.123c-.014-31.75-16.183-61.312-42.91-78.45v-.333a257.48 257.48 0 0 1 55.98-92.187v-.343C84.212 88.404 100.74 92.914 117.588 93c49.98.008 91.148-39.253 93.5-89.177h.334C246.72-2.32 282.9-1.066 317.677 7.51v2c.001 51.465 41.712 93.19 93.177 93.206a91.4 91.4 0 0 0 29.833-5.029c4.02-1.677 8.382-3.354 12.4-5.363 21.493 26.037 37.767 55.972 47.932 88.167-1.074.43-2.088.992-3.02 1.677a192.45 192.45 0 0 1-91.177 22.794 189.26 189.26 0 0 1-41.225-4.363l-2-.323c-37.983-8.76-72.5-28.597-99.206-57-28.224 30.183-65.314 50.61-105.9 58.332a188.56 188.56 0 0 1 5.362 45.6c-.058 22.636-4.032 45.09-11.745 66.372v.334c-16.728 45.69-49.805 83.557-92.833 106.274A254.69 254.69 0 0 1 11 332.029z"/></svg>