<svg xmlns="http://www.w3.org/2000/svg" xmlns:xlink="http://www.w3.org/1999/xlink" width="128" height="128" viewBox="0 0 128 128">
  <defs>
    <clipPath id="clip-Launch-done">
      <rect width="128" height="128"/>
    </clipPath>
  </defs>
  <g id="Launch-done" clip-path="url(#clip-Launch-done)">
    <rect width="128" height="128" fill="#fff"/>
    <path id="gear" d="M10.427,22.309a1.115,1.115,0,0,1-1.1-.932l-.258-1.544a8.878,8.878,0,0,1-2.575-1.067l-1.274.91a1.115,1.115,0,0,1-1.437-.119l-1.03-1.03a1.116,1.116,0,0,1-.119-1.437l.91-1.274A8.846,8.846,0,0,1,2.476,13.24L.932,12.983A1.116,1.116,0,0,1,0,11.883V10.426a1.116,1.116,0,0,1,.932-1.1l1.544-.257A8.859,8.859,0,0,1,3.544,6.494l-.91-1.275a1.115,1.115,0,0,1,.119-1.437l1.03-1.03a1.115,1.115,0,0,1,1.437-.119l1.274.91A8.872,8.872,0,0,1,9.069,2.476L9.326.932A1.115,1.115,0,0,1,10.427,0h1.456a1.116,1.116,0,0,1,1.1.932l.257,1.544a8.872,8.872,0,0,1,2.575,1.067l1.274-.91a1.116,1.116,0,0,1,1.437.119l1.03,1.03a1.117,1.117,0,0,1,.119,1.437l-.911,1.274a8.875,8.875,0,0,1,1.067,2.575l1.544.257a1.115,1.115,0,0,1,.932,1.1v1.457a1.115,1.115,0,0,1-.932,1.1l-1.544.257a8.861,8.861,0,0,1-1.067,2.575l.911,1.274a1.116,1.116,0,0,1-.119,1.437l-1.03,1.03a1.116,1.116,0,0,1-1.437.119l-1.274-.91a8.872,8.872,0,0,1-2.575,1.067l-.257,1.544a1.116,1.116,0,0,1-1.1.932ZM4.462,11.155a6.693,6.693,0,1,0,6.693-6.693A6.692,6.692,0,0,0,4.462,11.155Z" transform="translate(42.929 -0.234)" fill="#44bfd5"/>
    <path id="gear-2" data-name="gear" d="M10.427,22.309a1.115,1.115,0,0,1-1.1-.932l-.258-1.544a8.878,8.878,0,0,1-2.575-1.067l-1.274.91a1.115,1.115,0,0,1-1.437-.119l-1.03-1.03a1.116,1.116,0,0,1-.119-1.437l.91-1.274A8.846,8.846,0,0,1,2.476,13.24L.932,12.983A1.116,1.116,0,0,1,0,11.883V10.426a1.116,1.116,0,0,1,.932-1.1l1.544-.257A8.859,8.859,0,0,1,3.544,6.494l-.91-1.275a1.115,1.115,0,0,1,.119-1.437l1.03-1.03a1.115,1.115,0,0,1,1.437-.119l1.274.91A8.872,8.872,0,0,1,9.069,2.476L9.326.932A1.115,1.115,0,0,1,10.427,0h1.456a1.116,1.116,0,0,1,1.1.932l.257,1.544a8.872,8.872,0,0,1,2.575,1.067l1.274-.91a1.116,1.116,0,0,1,1.437.119l1.03,1.03a1.117,1.117,0,0,1,.119,1.437l-.911,1.274a8.875,8.875,0,0,1,1.067,2.575l1.544.257a1.115,1.115,0,0,1,.932,1.1v1.457a1.115,1.115,0,0,1-.932,1.1l-1.544.257a8.861,8.861,0,0,1-1.067,2.575l.911,1.274a1.116,1.116,0,0,1-.119,1.437l-1.03,1.03a1.116,1.116,0,0,1-1.437.119l-1.274-.91a8.872,8.872,0,0,1-2.575,1.067l-.257,1.544a1.116,1.116,0,0,1-1.1.932ZM4.462,11.155a6.693,6.693,0,1,0,6.693-6.693A6.692,6.692,0,0,0,4.462,11.155Z" transform="translate(105.37 24.407)" fill="#44bfd5"/>
    <g id="confetti" transform="translate(37.373 15.592) rotate(-30)">
      <path id="Path_173" data-name="Path 173" d="M22.141,3.415a11.692,11.692,0,0,0-16.516,0l-5.3,5.3a1.118,1.118,0,1,0,1.581,1.581L7.206,5A9.453,9.453,0,0,1,20.56,5l1.8,1.8a1.118,1.118,0,0,0,1.581-1.581Z" transform="translate(27.286 39.608)" fill="#44bfd5"/>
      <path id="Path_174" data-name="Path 174" d="M3.822,1.909l1.8,1.8a9.453,9.453,0,0,1,0,13.354l-5.3,5.3a1.118,1.118,0,1,0,1.581,1.581l5.3-5.3a11.692,11.692,0,0,0,0-16.516L5.4.328A1.118,1.118,0,1,0,3.822,1.909Z" transform="translate(17.31 15.983)" fill="#44bfd5"/>
      <path id="Path_175" data-name="Path 175" d="M.327,19.137a1.118,1.118,0,0,0,1.581,0L19.137,1.909A1.118,1.118,0,1,0,17.555.328L.327,17.555a1.118,1.118,0,0,0,0,1.581Z" transform="translate(20.609 27.644)" fill="#44bfd5"/>
      <path id="Path_176" data-name="Path 176" d="M11.082,1.472A1.118,1.118,0,0,0,9.667.057l-2.085.7a6.4,6.4,0,0,1-4.025,0L1.472.057A1.118,1.118,0,0,0,.057,1.472l.7,2.085a6.405,6.405,0,0,1,0,4.025l-.7,2.085a1.118,1.118,0,0,0,1.414,1.414l2.085-.7a6.4,6.4,0,0,1,4.025,0l2.085.7a1.118,1.118,0,0,0,1.415-1.414l-.7-2.085a6.405,6.405,0,0,1,0-4.025Z" transform="translate(35.438 54.341)" fill="#44bfd5"/>
      <path id="Path_177" data-name="Path 177" d="M.057,9.668a1.118,1.118,0,0,0,1.414,1.414l2.085-.7a6.4,6.4,0,0,1,4.025,0l2.085.695a1.118,1.118,0,0,0,1.414-1.414l-.7-2.085a6.4,6.4,0,0,1,0-4.025l.7-2.085A1.118,1.118,0,0,0,9.668.057l-2.085.7a6.4,6.4,0,0,1-4.025,0L1.472.058A1.118,1.118,0,0,0,.057,1.472l.7,2.085a6.4,6.4,0,0,1,0,4.025Z" transform="translate(0 18.901)" fill="#44bfd5"/>
      <path id="Path_178" data-name="Path 178" d="M.059,9.668a1.118,1.118,0,0,0,1.415,1.414l2.085-.7a6.4,6.4,0,0,1,4.025,0l2.085.7a1.118,1.118,0,0,0,1.414-1.414l-.7-2.085a6.4,6.4,0,0,1,0-4.025l.7-2.085A1.118,1.118,0,0,0,9.669.057l-2.087.7a6.4,6.4,0,0,1-4.025,0L1.472.058A1.118,1.118,0,0,0,.057,1.473l.7,2.085a6.4,6.4,0,0,1,0,4.025Z" transform="translate(42.902 13.496)" fill="#44bfd5"/>
      <path id="Path_179" data-name="Path 179" d="M8.008.328a1.118,1.118,0,0,0-1.581,0L4.168,2.586,1.909.328A1.118,1.118,0,1,0,.328,1.909L2.586,4.168.328,6.426A1.118,1.118,0,0,0,1.909,8.008L4.168,5.749,6.426,8.008A1.118,1.118,0,0,0,8.008,6.426L5.749,4.168,8.008,1.909a1.118,1.118,0,0,0,0-1.581Z" transform="translate(58.86 32.157)" fill="#44bfd5"/>
      <path id="Path_180" data-name="Path 180" d="M4.387,8.774A4.387,4.387,0,1,0,0,4.387,4.387,4.387,0,0,0,4.387,8.774Z" transform="translate(12.375 0)" fill="#44bfd5"/>
      <path id="Path_181" data-name="Path 181" d="M4.387,0A4.387,4.387,0,1,0,8.773,4.387,4.387,4.387,0,0,0,4.387,0Z" transform="translate(54.004 52.539)" fill="#44bfd5"/>
    </g>
    <g id="happy-man" transform="translate(-81.918 90.814)">
      <path id="Path_771" data-name="Path 771" d="M195.809,8.2a4.1,4.1,0,1,0-4.1-4.1A4.1,4.1,0,0,0,195.809,8.2Z" transform="translate(-101.108)" fill="#93b471"/>
      <path id="Path_772" data-name="Path 772" d="M106.4,13.64a1.864,1.864,0,0,0-2.623.228l-6.445,7.67a1.481,1.481,0,0,1-1.136.529H93.207a1.48,1.48,0,0,1-1.136-.529l-6.445-7.67a1.862,1.862,0,0,0-2.851,2.4l7.414,8.818v22.4a1.884,1.884,0,0,0,3.768,0V36.227h1.489V47.485a1.884,1.884,0,0,0,3.768,0V25.1l7.413-8.838A1.861,1.861,0,0,0,106.4,13.64Z" transform="translate(0 -12.206)" fill="#93b471"/>
    </g>
    <g id="Group_57" data-name="Group 57" transform="translate(12 18.026)">
      <path id="Path_191" data-name="Path 191" d="M95.833,69.3a1.124,1.124,0,0,0-.025-.338.915.915,0,0,0-.294-.417L86.383,38.626a1.04,1.04,0,0,0-1-.734H26.61a1.049,1.049,0,0,0-1,.748l-9,29.832a1.033,1.033,0,0,0-.449.566.95.95,0,0,0-.017.262h-.078l.085,1.168c.187,2.474,2.935,6.235,6.6,6.235a7.28,7.28,0,0,0,1.837-.295v31.8a2.183,2.183,0,0,0,4.362,0V98.091h54.09v10.114a2.183,2.183,0,0,0,4.362,0v-31.8a7.432,7.432,0,0,0,1.837.314c3.665,0,6.394-3.779,6.58-6.255l.105-1.167Zm-22.177,0L69.715,39.636h6.292L82.569,69.3Zm8.689,1.746a4.326,4.326,0,0,1-8.324,0ZM51.551,69.3l1.3-29.663H58.9L60.147,69.3Zm8.606,1.746a4.752,4.752,0,0,1-4.163,3.147,4.752,4.752,0,0,1-4.162-3.147ZM29.479,69.3,35.97,39.636H42.3L38.286,69.3Zm8.487,1.746a4.748,4.748,0,0,1-4.161,3.147,4.754,4.754,0,0,1-4.162-3.147ZM28.948,95.473V73.929a5.918,5.918,0,0,0,4.977,2.794,6.729,6.729,0,0,0,5.487-3.442,6.777,6.777,0,0,0,5.517,3.442,6.8,6.8,0,0,0,5.532-3.442A6.816,6.816,0,0,0,56,76.723a6.823,6.823,0,0,0,5.544-3.442,6.823,6.823,0,0,0,5.544,3.442,6.83,6.83,0,0,0,5.548-3.442,6.622,6.622,0,0,0,5.425,3.442,5.913,5.913,0,0,0,4.976-2.794V95.473Z" transform="translate(0 0)" fill="#92b46b"/>
      <path id="gear-3" data-name="gear" d="M5.645,12.079a.6.6,0,0,1-.6-.5l-.139-.836a4.8,4.8,0,0,1-1.395-.578l-.69.493a.6.6,0,0,1-.779-.065l-.557-.557a.6.6,0,0,1-.065-.779l.493-.69a4.8,4.8,0,0,1-.577-1.393L.5,7.03a.6.6,0,0,1-.5-.6V5.645A.6.6,0,0,1,.5,5.05l.837-.14a4.8,4.8,0,0,1,.578-1.394l-.493-.69a.6.6,0,0,1,.064-.778l.558-.557a.6.6,0,0,1,.778-.065l.69.493A4.8,4.8,0,0,1,4.91,1.341L5.049.5a.6.6,0,0,1,.6-.5h.788a.6.6,0,0,1,.6.5l.139.836a4.806,4.806,0,0,1,1.394.578l.69-.493a.6.6,0,0,1,.778.065l.558.557a.6.6,0,0,1,.064.778l-.492.69a4.8,4.8,0,0,1,.578,1.394l.836.14a.6.6,0,0,1,.5.595v.789a.6.6,0,0,1-.5.6l-.836.139a4.8,4.8,0,0,1-.578,1.394l.492.69a.6.6,0,0,1-.064.779l-.558.557a.6.6,0,0,1-.778.065l-.69-.493a4.8,4.8,0,0,1-1.395.578l-.139.836a.6.6,0,0,1-.6.5Z" transform="matrix(0.914, 0.407, -0.407, 0.914, 34.069, 81.985)" fill="#44bfd5"/>
      <path id="gear-4" data-name="gear" d="M5.645,12.079a.605.605,0,0,1-.6-.505l-.139-.836a4.8,4.8,0,0,1-1.395-.578l-.69.493a.6.6,0,0,1-.778-.065l-.558-.558a.6.6,0,0,1-.064-.777l.493-.69a4.812,4.812,0,0,1-.579-1.395L.505,7.03A.606.606,0,0,1,0,6.434V5.645a.6.6,0,0,1,.505-.6l.834-.139a4.816,4.816,0,0,1,.579-1.4l-.493-.69a.6.6,0,0,1,.064-.777l.558-.558a.6.6,0,0,1,.778-.065l.689.493a4.8,4.8,0,0,1,1.4-.578L5.049.5a.6.6,0,0,1,.6-.5h.789a.6.6,0,0,1,.6.5l.138.836a4.791,4.791,0,0,1,1.395.578l.689-.493a.605.605,0,0,1,.779.065l.558.558a.6.6,0,0,1,.064.777l-.493.69a4.81,4.81,0,0,1,.578,1.395l.837.139a.6.6,0,0,1,.5.6v.788a.6.6,0,0,1-.5.6l-.837.139a4.8,4.8,0,0,1-.578,1.394l.493.69a.606.606,0,0,1-.064.779l-.558.558a.6.6,0,0,1-.778.065l-.69-.493a4.8,4.8,0,0,1-1.395.578l-.138.836a.606.606,0,0,1-.6.505Z" transform="matrix(0.914, 0.407, -0.407, 0.914, 47.249, 81.985)" fill="#44bfd5"/>
      <path id="gear-5" data-name="gear" d="M5.645,12.079a.605.605,0,0,1-.6-.505l-.139-.836a4.8,4.8,0,0,1-1.395-.578l-.69.493a.6.6,0,0,1-.778-.065l-.558-.558a.6.6,0,0,1-.064-.777l.493-.69a4.812,4.812,0,0,1-.579-1.395L.505,7.03A.606.606,0,0,1,0,6.434V5.645a.6.6,0,0,1,.505-.6l.834-.139a4.816,4.816,0,0,1,.579-1.4l-.493-.69a.6.6,0,0,1,.064-.777l.558-.558a.6.6,0,0,1,.778-.065l.689.493a4.8,4.8,0,0,1,1.4-.578L5.049.5a.6.6,0,0,1,.6-.5h.789a.6.6,0,0,1,.6.5l.138.836a4.791,4.791,0,0,1,1.395.578l.689-.493a.605.605,0,0,1,.779.065l.558.558a.6.6,0,0,1,.064.777l-.493.69a4.81,4.81,0,0,1,.578,1.395l.837.139a.6.6,0,0,1,.5.6v.788a.6.6,0,0,1-.5.6l-.837.139a4.8,4.8,0,0,1-.578,1.394l.493.69a.606.606,0,0,1-.064.779l-.558.558a.6.6,0,0,1-.778.065l-.69-.493a4.8,4.8,0,0,1-1.395.578l-.138.836a.606.606,0,0,1-.6.505Z" transform="matrix(0.914, 0.407, -0.407, 0.914, 60.428, 81.985)" fill="#44bfd5"/>
      <path id="gear-6" data-name="gear" d="M5.645,12.079a.605.605,0,0,1-.6-.505l-.139-.836a4.8,4.8,0,0,1-1.395-.578l-.69.493a.6.6,0,0,1-.778-.065l-.558-.558a.6.6,0,0,1-.064-.777l.493-.69a4.812,4.812,0,0,1-.579-1.395L.505,7.03A.606.606,0,0,1,0,6.434V5.645a.6.6,0,0,1,.505-.6l.834-.139a4.816,4.816,0,0,1,.579-1.4l-.493-.69a.6.6,0,0,1,.064-.777l.558-.558a.6.6,0,0,1,.778-.065l.689.493a4.8,4.8,0,0,1,1.4-.578L5.049.5a.6.6,0,0,1,.6-.5h.789a.6.6,0,0,1,.6.5l.138.836a4.791,4.791,0,0,1,1.395.578l.689-.493a.605.605,0,0,1,.779.065l.558.558a.6.6,0,0,1,.064.777l-.493.69a4.81,4.81,0,0,1,.578,1.395l.837.139a.6.6,0,0,1,.5.6v.788a.6.6,0,0,1-.5.6l-.837.139a4.8,4.8,0,0,1-.578,1.394l.493.69a.606.606,0,0,1-.064.779l-.558.558a.6.6,0,0,1-.778.065l-.69-.493a4.8,4.8,0,0,1-1.395.578l-.138.836a.606.606,0,0,1-.6.505Z" transform="matrix(0.914, 0.407, -0.407, 0.914, 73.607, 81.985)" fill="#44bfd5"/>
    </g>
  </g>
</svg>
