<svg xmlns="http://www.w3.org/2000/svg" xmlns:xlink="http://www.w3.org/1999/xlink" width="221.93" height="69.57" viewBox="0 0 221.93 69.57"><defs><linearGradient id="a" x1="0.688" y1="1.012" x2="0.095" y2="0.55" gradientUnits="objectBoundingBox"><stop offset="0.01" stop-color="#43c8bb"/><stop offset="0.98" stop-color="#20b7d2"/></linearGradient></defs><g transform="translate(0 -0.058)"><path d="M60.083,12.6h0c-.547.273-1.139.5-1.685.729a12.421,12.421,0,0,1-4.054.683A12.666,12.666,0,0,1,41.68,1.353h0V1.079h0a35.116,35.116,0,0,0-14.44-.5h-.046A12.72,12.72,0,0,1,14.486,12.7a13.072,13.072,0,0,1-6.514-1.777v.046A34.965,34.965,0,0,0,.364,23.491v.046A12.669,12.669,0,0,1,6.2,34.2,12.694,12.694,0,0,1,0,45.083H0v.091a34.619,34.619,0,0,0,6.559,11.98,26.729,26.729,0,0,0,12.618-14.44v-.046a26.691,26.691,0,0,0,1.594-9.019,25.612,25.612,0,0,0-.729-6.2,26.47,26.47,0,0,0,14.394-7.926,26.75,26.75,0,0,0,13.483,7.744l.273.046a25.729,25.729,0,0,0,5.6.592,26.162,26.162,0,0,0,12.39-3.1,1.846,1.846,0,0,1,.41-.228A35.7,35.7,0,0,0,60.083,12.6Z" transform="translate(0 0)" opacity="0.9" fill="url(#a)"/><path d="M71.765,69.3a28.284,28.284,0,0,1-6.787-.865,26.054,26.054,0,0,0,.547,10.614A26.31,26.31,0,0,0,49.991,87.2a26.847,26.847,0,0,0-8.564-5.967A26.534,26.534,0,0,1,33,93.354,12.71,12.71,0,0,1,42.839,105.7v.046h0a34.73,34.73,0,0,0,14.531.5h.091a12.675,12.675,0,0,1,13.21-12.117A12.464,12.464,0,0,1,76.593,95.9c.273-.273.5-.592.774-.865a34.978,34.978,0,0,0,6.878-11.707H84.2A12.655,12.655,0,0,1,79.144,68.3,27.429,27.429,0,0,1,71.765,69.3Z" transform="translate(-17.968 -37.156)" fill="#fff"/><path d="M123.848,39.808a1.846,1.846,0,0,1,.41-.228,35.588,35.588,0,0,0-6.468-11.98A27.535,27.535,0,0,0,105.9,42.313a25.729,25.729,0,0,0,5.6.592A26.25,26.25,0,0,0,123.848,39.808Z" transform="translate(-57.66 -14.996)" fill="#fff" opacity="0.2"/><path d="M0,95.133v.091A34.619,34.619,0,0,0,6.559,107.2a26.729,26.729,0,0,0,12.618-14.44A27.205,27.205,0,0,0,0,95.133Z" transform="translate(0 -50.05)" fill="#fff" opacity="0.2"/><path d="M169.093,61.152V74.636H163.9V49.764h5.193V54.32a8.3,8.3,0,0,1,3.371-3.6,9.5,9.5,0,0,1,4.829-1.321c3.917,0,6.559,1.64,7.926,4.874a11.023,11.023,0,0,1,9.156-4.874,9.026,9.026,0,0,1,6.742,2.6,10.005,10.005,0,0,1,2.551,7.425v15.26h-5.193V61.016c0-4.6-1.868-6.878-5.648-6.878a6.839,6.839,0,0,0-4.6,1.685,6.363,6.363,0,0,0-2.05,4.965V74.636h-5.193V60.97c0-2.369-.41-4.1-1.275-5.238a4.6,4.6,0,0,0-3.917-1.64,6.893,6.893,0,0,0-4.692,1.822A6.728,6.728,0,0,0,169.093,61.152Z" transform="translate(-89.24 -26.866)" fill="#fff"/><path d="M280.77,71.156a13.427,13.427,0,0,1-18.585,0,12.265,12.265,0,0,1-3.69-9.11,12.441,12.441,0,0,1,3.69-9.11,13.427,13.427,0,0,1,18.585,0,12.265,12.265,0,0,1,3.69,9.11A12.2,12.2,0,0,1,280.77,71.156Zm-14.85-3.189a7.78,7.78,0,0,0,13.347-5.876,8.159,8.159,0,0,0-2.186-5.876,7.78,7.78,0,0,0-13.347,5.876A7.729,7.729,0,0,0,265.92,67.967Z" transform="translate(-140.743 -26.757)" fill="#fff"/><path d="M323.462,59.469A12.725,12.725,0,0,1,320,50.13a12.251,12.251,0,0,1,3.553-9.247,11.688,11.688,0,0,1,8.518-3.462,9.427,9.427,0,0,1,7.972,4.191V33l5.193-5.6V62.657h-5.193V58.922a9.621,9.621,0,0,1-8.382,4.1A11.09,11.09,0,0,1,323.462,59.469Zm1.685-9.11a7.753,7.753,0,0,0,2.278,5.831,7.369,7.369,0,0,0,5.33,2.232,6.87,6.87,0,0,0,5.193-2.278,8.138,8.138,0,0,0,2.141-5.831,8.563,8.563,0,0,0-2.141-5.922,6.678,6.678,0,0,0-5.238-2.369,7.176,7.176,0,0,0-5.33,2.369,8.6,8.6,0,0,0-2.232,5.967Z" transform="translate(-174.233 -14.887)" fill="#fff"/><path d="M386.2,96.322a3.52,3.52,0,0,1,0-4.92,3.441,3.441,0,0,1,2.46-1,3.52,3.52,0,0,1,2.46,1,3.168,3.168,0,0,1,1,2.46,3.52,3.52,0,0,1-1,2.46,3.377,3.377,0,0,1-2.46,1.048A3.481,3.481,0,0,1,386.2,96.322Z" transform="translate(-209.733 -49.189)" fill="#fff"/><path d="M385.8,96.322a3.479,3.479,0,0,1,4.92-4.92,3.508,3.508,0,0,1-2.46,5.967A3.564,3.564,0,0,1,385.8,96.322Z" transform="translate(-209.516 -49.189)" fill="#fff"/><path d="M409.7,32.748a3.206,3.206,0,0,1-1-2.323,3.038,3.038,0,0,1,1-2.323,3.284,3.284,0,0,1,2.323-1,3.038,3.038,0,0,1,2.323,1,3.284,3.284,0,0,1,1,2.323,3.038,3.038,0,0,1-1,2.323,3.284,3.284,0,0,1-2.323,1A3.579,3.579,0,0,1,409.7,32.748Zm4.92,29.746h-5.238V37.668h5.238Z" transform="translate(-222.529 -14.724)" fill="#fff"/><path d="M452.212,71.419a13.662,13.662,0,0,1-18.676,0,12.867,12.867,0,0,1,0-18.13,13.662,13.662,0,0,1,18.676,0,12.867,12.867,0,0,1,0,18.13Zm-14.941-3.234a8.03,8.03,0,0,0,11.206,0,8.116,8.116,0,0,0,2.232-5.876,8,8,0,0,0-2.232-5.876,8.03,8.03,0,0,0-11.206,0,8.851,8.851,0,0,0,0,11.752Z" transform="translate(-234.017 -26.975)" fill="#fff"/></g></svg>