<svg xmlns="http://www.w3.org/2000/svg" viewBox="0 0 1000 1000" xmlns:v="https://vecta.io/nano"><path d="M265.8 1000h4.66l111.2-247.24L265.8 1000zm67.4-98.68l44.33-110L289.68 1000h9.5l99.93-256.36-65.92 157.68zM271.26 1000h4.6l103.72-236.17L271.26 1000zm-12.43 0h6.74l96.6-212.05L258.83 1000zm137.67-44.15L385.74 1000h2.08l8.67-44.15zm5.4 8.25l-8.27 35.9h1.9l6.38-35.9zM362.07 0h-4.2l54.7 196.25L362.07 0zm18.55 1000h1.42l12.87-58.86-14.3 58.86z"/><path d="M357.87 0h-4.08l59.02 206.36L357.87 0zm56.55 192.03L366.73 0h-3.9l51.6 192.03zM397.97 1000h4.18l18.75-108.06L397.97 1000zm-98.07 0h7.22l105.95-282.4L299.9 1000zm-23.78 0h12.53l95.6-233.2-76.66 174.07 63.74-150.06-24.3 54.7 39-90.86L276.12 1000zM431.26 0h-1.72l8 55.97L431.26 0zm13.22 55.95L439.07 0h-1.73l7.14 55.95zM434.12 0h-1.5l6.6 48-5.1-48zm13 59.92L442.16 0h-2.92l7.88 59.92zm20.96 3.53L465.76 0h-3.07l5.4 63.45zm-11.24-3.62l-2.77-39.5L461 88.46l-1.9-31.2L460.76 75l-1.98-30.3.83 9L456.2 0h-5.35l6 59.83zM378.48 1000h1.96l15-68.13-16.96 68.13zM350.7 0h-4.43l62.3 206.63L350.7 0zm32.78 0h-3.93l46.9 199.5L383.48 0zm-6.86 0H372l62.54 251.62L376.62 0zm10.68 0h-3.78l42.68 187.4L387.3 0zm43.22 42.64L425.23 0h-1.27l6.56 42.64zm-2.47 139.92L391.87 0H388l40.06 182.56zM452.37 1000h5.48l11.9-179.98L452.37 1000zM419.22 0h-1.87l10.72 64.7L419.22 0zm-302.4 1000h3.68l76.26-102.22L116.82 1000zm44.62 0h8.47l86.25-132.77-63.43 93.6 103.47-157.4L161.44 1000zm-62.46-7.17l85.55-107.33-55.5 65.6 78.58-96.97L84.02 1000h17.17l132.73-169.38-134.94 162.2zM71.4 1000h10.04L220.8 830.12 71.4 1000zm101.54 0h5.28l70.1-112.15L172.94 1000zm-.9-133.53l18.14-20.93L45.48 1000h11.17L210.5 824.54l-38.45 41.93zM58.2 1000h10.82L208.4 835.46 58.2 1000zm-12.77 0l146.85-164.54L35.35 1000h10.08zm112.5 0h3.2l53.8-81.38L157.9 1000zm89.75-134.2L152.9 1000h4.33l90.45-134.2zM29.13 927.9l272.63-250.14-116.1 100.03 108.5-97.42-207.4 174.6L268.26 697 0 918.55v53.23l325.18-309.1L29.13 927.9zm149.15 27.23l46.13-67.28L141.7 1000h8.46l95.67-138.78-67.55 93.9zM378 161.43l13.52 38.53-2.3-6.94 8.1 22.8-66.06-205.36 66.5 194.28L355.32 65.5l49.2 149.2-42.3-139.8 39 122.9L342.77 0h-22.2L378 161.43zM99.1 608.9l21.98-6.43L17.1 625l128.14-36.7-79.73 14.14 108.83-26.55L1.27 607.82 172.4 569.2 0 596.5v42.32l145.44-40.92-46.34 11zm32.58 362.02l89.13-116.8L101.34 1000h15.37l114.85-153.3-99.88 124.2zm176.9-838.58l1 1.96-7.48-15.43-37.58-78.2 48.7 96.9-22.9-47.65 26.15 51L251.16 0H239.1l83.15 160.8-13.7-28.45zm10.7-9.58L265.02 0h-3.84l58.1 122.76zM210.12 36.32l66.14 105.63L196.03 0h-17.9L274 150.68l-50.3-83.26 59.28 93.05-72.86-124.15zM233.8 0h-4.36l106.12 200.18L233.8 0zm-23.55 0h-12.2l89.5 148.9-48.85-86.65 67.5 113.53L210.25 0zM336.3 76.78l47.27 124.6-31.93-89.58 40.88 108.03L317.34 0H301.3l81.77 207.1L336.3 76.78zm-37 63.26L226.4 0h-3.56l76.44 140.04zm-30.78 40.24L148.2 0h-9.3l129.62 180.28zm63.38 107l-27.5-37.34 20.55 27.1L142.92 28.56 329.54 277.9 132.7 0h-19.05L331.9 287.27zM210.85 149.5L315.4 277.76l-71.2-92.94 92.47 116.98-87.33-114.04L352.2 319.54 110.3 0H80.97l244.6 295.36L210.85 149.5zM260.13 0h-4.2l64.86 135.02L260.13 0zM0 11.36l283.32 279.62-151.98-157.26L303.7 306.96 181.82 176.8l139.06 144.5-134.22-144.28 119.97 125.96L192.8 178.1l158.8 169.88-110.2-124.16 67.44 73.67-96.3-109.67 93.7 104.08L90.9 43.36l208.76 235.52-110.1-130.25L307.8 284.37 73.2 0H0v11.36zM287.27 130.9l-5.5-10.24 14.38 25.56L217.43 0h-4.07l73.9 130.9zM141.34 1000l102.22-145.87L134.15 1000h7.2zm543.88 0h8L592.5 753.44 685.2 1000zM614.45 0h-3.26l-13.97 67.1L614.45 0zm89.45 0h-6.65L612.5 217.68 703.9 0zm56.6 0h-8.6L623.1 255.8l38.15-73.37-19.14 38.26L760.5 0zM639.32 244.13l10.77-18.95-2.47 4.57 10.02-17.87 6.32-11.1-32.9 60.84L781.1 0h-11.2L639.3 244.13zM866.5 1000h7.68l-230.6-298.9L866.5 1000zM620.16 207l48.3-112.15-44.3 107.22L712.44 0h-8.1l-84.17 207zm26.24-42.46l-22.46 51.83L722.86 0h-9.25l-92.78 220.2 25.56-55.65zm-30.12 25.28L690.5 0h-2.94l-71.3 189.82zm79.3-57.08L768.38 0h-7.48l-83.74 162.72-68.58 130.54 87-160.52zM697.2 0h-2.73L626.2 175.64 697.2 0zm46.6 170.03l.8-1.06-8.2 11.46L859.35 18.88 749.8 168.8 880.73 0h-15.9L743.8 170.03zm-70.88-54.9l-43.38 97.2 9.62-20.4-6.18 14.05L703.4 59.6l-70.32 154.8 93.58-189.73-96.58 203.5 12.24-24.55-4.62 9.76 79.4-157.84-75.55 156.4 33.63-65.45-37.58 76.1L751.53 0h-28L672.9 115.14zM471.7 50.97L470.44 0h-2.65l3.92 50.97zM827.5 0h-5L729 147.48 827.5 0zM671.76 316.13L889.63 87.4 749.6 238.32l49.18-50.88L698.6 293.72l6.08-6.2-9.52 10.08L986.57 0h-26.4l-288.4 316.13zM833.26 0h-4.83L728.36 154.76 833.26 0zm64.84 0h-11.38L752.3 178.72 898.1 0zm-52.28 0H834l-99.07 152.5 74.03-105.08-77.68 115.7L845.82 0zm-31.75 196.2l-114.4 112.3 41-38.8-35.25 34.4L1000 26.87V8L712.15 293.9l101.92-97.7zM1000 5.08V0h-7.5L700.4 299.5 1000 5.08zM915.4 0H908L762.9 181.1 915.4 0zM649.15 0h-2.05l-19.4 67.6L649.15 0zM915.6 0L762.7 187.66 924.3 0h-8.7zm-69.52 0L735.6 161.86 851.03 0h-4.95zM820.4 0h-4.83l-90 145.1L820.4 0zm33.38 0L737.5 167.9 861.65 0h-7.87zm52.06 0h-6.93L752.57 186.5 905.84 0zM504.98 175.22L513.12 0h-6.06l-2.08 175.22zm33.28 8.96L565.9 0h-5.98l-21.65 184.18zm-61 815.82h2.88l4.3-171.06-7.2 171.06zm12.95-166l-3.14 124.3 1.02-140.62-7.12 182.33h8.25l1-166zm27.78-661.57l11.9-139.67-11 162.97 3.56-41.92-1.33 21.45 10-105.28-6.8 91.58L539.62 0h-12.77l-8.87 172.43zm9.5-17.03l7.82-76.28-12.73 145.03L546.35 0h-6.28l-12.6 155.4zm-16.12 25.32L523.2 0h-5.84l-6 180.72zM487.38 0l1.24 43.2.05-43.2h-1.3zm-10.96 41.52L475.72 0h-1.62l2.32 41.52zm10.24 15.6L486.4 0h-1.58l1.85 57.12zm-5.36-4.95L480.5 0h-2l2.78 52.17zM495.87 1000l-1.63-186.66-2.9 186.66h4.52zm-3.9-961.28L492.32 0h-1.2l.85 38.72zm136.76 46.34L656.97 0h-2.57l-25.67 85.06zM551.7 0h-3.88l-19.57 199.5L551.7 0zm55.68 78.62L629.23 0h-2.47l-19.38 78.62zm-1.88-18.56L621.98 0h-3.23L605.5 60.06zm6.58 25.14L636.85 0h-2.26l-22.5 85.2zm9-13.64L642.8 0h-2l-19.7 71.56zM652.68 0h-2.33l-23.12 78.66L652.68 0zm-60.66 55.3L605.35 0h-2.87l-10.46 55.3zM567 0l-33.9 246.7 13.95-90.1-7.24 53.55L574.8 0H567zm-7.92 0h-5.9L533.8 185.48 559.08 0zm7.35 1000h2l-9.2-55.63 7.2 55.63zm9.27 0h2.37l-8.6-44.5 6.22 44.5zm-12.52 0h2.36l-7.3-43.27 4.93 43.27zm8.05 0h.98l-7.95-47.92 6.97 47.92zM855.7 527.52l-93-4.45 237.3 20.3v-18.5l-240.48-5.47 96.2 8.12zM769.6 1000h3.2l-70.1-122.17L769.6 1000zm21.47 0h3.65l-80.95-130.86 77.3 130.86zm-5.94 0h5.92l-79.2-128.1 73.28 128.1zm-72.26-141.06L798.3 1000h3.98l-89.4-141.06zM775.72 1000h9.04l-73.7-123.1 68.25 119.53-75.8-126.8L775.7 1000zm-22.96 0h4.7L691.5 879.57 752.76 1000zm10.14 0h3.04l-69-123.37L762.9 1000zm38.07-734.07l-77.6 62.22 164.9-123.87-169.96 132.5L1000 130.6V84.03L712.44 326.2l34.3-27.78-55.3 46.25L887.7 186.92 678.57 358.75l122.4-92.82zM667.17 738.1l168.6 232.2-166-224.55 87.37 122.43-87.88-119.28 131.22 189.35-129.53-180.5L834.6 1000h29.63L667.17 738.1zm266.25-183.9l66.58 8.73v-14.9l-215.4-14.7-49.74-3.9 198.57 24.77zM734.12 511L1000 521.8v-9.1L734.12 511zM1000 164.32V134.9L726.45 338.75 910.5 210.8 707.53 357.1 1000 164.32zM681.66 738.6l91.67 117.66-80.16-99.22-15.3-19.16 26.4 34.3L878.53 1000h17.93l-214.8-261.4zm-20.34-34.4l31.66 38.5-10.7-12.54L766.9 834.5l-83-99.3L897.57 1000h15.33l-33.03-38.65L661.32 704.2zM552.7 1000h1.9l-5.13-35.03 3.23 35.03zm42.2-179.17L648.02 1000h6.8L594.9 820.83zM617.23 1000h6.3l-47.46-175.28L617.23 1000zM587 816.7l50.54 183.3h6.82L587 816.7zm39.43 183.3h6.8l-55.18-190.38L626.43 1000zm72.53-79.65l-17.9-35.26 54.92 114.9h4.82l-63.24-124.1 21.4 44.46zm-143.16 46.3l4.06 33.36h.7l-4.76-33.36zm18.5-131.7l27.2 119.1-33.23-133.44 38.28 179.4h9.1L574.3 834.94zm95.1 52.9L718.46 1000h4.8L669.4 887.84z"/><path d="M749.4 1000h2.62l-60.16-113.4L749.4 1000zm-7.63 0h5.52l-59.7-112.36L741.77 1000zm-132.3-191.7l70.4 191.7h3.65l-74.06-191.7zm47.1 191.7h4.66L559.25 699l97.3 301zm-55.4-197.8l-3.67-10.05 63.78 184.2-61.28-170.5 65.4 194.15h8.73l-78.23-212.98 5.27 15.18zM728.78 1000h5.16l-57.96-115.4 52.8 115.4zM1000 748.1v-7.45l-158.7-70.8L1000 748.1zm0 52.1v-25.38l-165.52-83.04 124.96 73.18-125.48-65.8L1000 800.2zm0-61.13v-6.74l-155.33-66.9L1000 739.07zm0 32.53v-20.68l-157.78-73.3 70.68 36.53-78.37-36.4 38.77 20.92-42.94-20.27L1000 771.6zm0-40.6v-7.7l-155-63.64L1000 731zm0-9.5v-12.3l-163.03-61.8L1000 721.5zm0-92.5v-15.16L762.44 566.7 1000 629zm-215.5-83.63l-20.38-2.5 42.93 6.75-45.5-5.24 165.5 30.92-215.5-31.87 98.02 19.53-57.6-9.73 155.2 31.7-143.32-26.04L1000 610.24V570l-263.08-31.77 47.58 7.14zm215.5 96.96v-8.63l-243.64-59.78 243.64 68.4zm-288.12-335.6l8.1-7.16-18.86 17.56 65.64-59 128.8-114.2L708.13 316l81.48-70.32-84.85 76.64 17.4-14.75-77.13 68.58 82.97-69.9-9.6 8.47L1000 81.3V33.32l-288.12 273.4zm119.67 400.64l54.03 33.52-66.94-37.67 118.5 76.88-115.3-67.3 4.65 3.14-.34-.2 1.52 1 55.3 37.34-50.7-30.9 81.93 55-88.42-54.95 25.07 17.18-28.76-17.47 90.87 64.86-87.53-57.3L1000 852.17v-49l-168.45-95.8zm-50.65.57l145.77 105.3-113.4-77.48 68.4 51.5-74.7-51.98 75.63 57.97-73.54-52.03L1000 890.7v-33.36l-219.1-149.4zM1000 655.3v-8.5l-232.13-62.82L1000 655.3zM838.1 805.58l161.9 149.4v-14.95L838.1 805.58zM1000 357.96V345.8l-148.23 51.7L1000 357.96zm0 78.24v-24.35l-132.12 29.6 56.2-7.26-60.8 14.1L1000 436.2zM89.9 471.3l165.4 12-99.2-11.14 156.84 12.6-92.2-13.54 67.45 7.66L0 437.46v36.27l260.24 14.7L89.9 471.3zm910.1-83.6v-27.8l-166.62 55.35 108.75-23.05-87.85 25.6L1000 387.7zm0 108.2v-8.42l-233.8 10.5 233.8-2.08zm0 439.52v-28.3L801.56 754.66l152.1 128.8-138.7-110.54L1000 935.42zM884.6 318.05L840.38 341l30.07-13.38-38.9 20.7 73.88-30.56-59.94 29.7 154.5-64.44v-60.57L833.47 323.1l90.56-43.94-55.14 31.5 113.8-54.8-170.33 94.04 72.24-31.82zM683.36 701.3L966.03 1000h8.93l-291.6-298.7zM1000 506.05v-8.7l-235.83 6 235.83 2.7zM933.47 348.5l-85.6 33.6 106.63-33.82-104.52 39.5L1000 343.43v-57.45l-157.84 73.4 87.36-33.8-80.48 36.23 122.24-45.42-128.5 54.94 18.63-6.6-83.08 35.32 155.14-51.57zM698.13 724.98l22.7 24.97-25.24-26.75 94.7 105.6-94.36-101.52 127.5 144.62-132.86-145.96 13.04 15.12-18.32-20.4L791.7 843.1 927.06 1000h30.08l-92.22-97.6-166.8-177.42zM917.16 1000H925L689.17 730.7l228 269.3zM1000 185.95v-19.1l-295.38 201L1000 185.95zm0 224.43v-21.8l-135.88 36.48 97.86-17.34-103.76 25.52L1000 410.38zm-866.86-77.46L0 263.18v11.1l133.14 58.64zM0 276.4v9.57l137 57.82L0 276.4zm0 72.12v14.8l272.74 74.95L0 348.52zM0 92.75v19.72l176.23 133.48L0 92.75zm37.34 171.52l95.58 48.7L0 237.95v13.92l163.42 81.6-126.08-69.2zM0 289.6v10.02l136 53.44L0 289.6zm306.18 177.93L131.12 429.7l114.24 21.53-74.73-18.3 79.07 16.66-162.95-39.8 178.46 39.03L0 376.4v33.98l306.18 57.14zm-42.98 3.87L0 428.64v8.33l263.2 34.43zm-102.67 89.53L27.6 575.1l150.45-25.13L0 568.22v27.2l160.53-34.5zm18.93 281.13L26.76 1000h7.54l145.16-157.94zM139.64 308.5L11.6 231.7l186.95 101.14-140.37-89.3 85.5 48.73-117.9-77.12 117.18 69.2-67-45.17 78.27 48.43L40.3 211.5l106.54 65.9L0 174.27v61.76l139.64 72.46zm104.92 154.83L0 418.25v8.2l244.56 36.87zm-140.1-255l64.73 46.72L0 115v20.1l180.3 132.8-75.84-59.56zM0 796.1V808l298.18-184.52L0 796.1zm0-124.13v15.05l160.03-61.84-53.8 17.1 35.87-13.72L0 671.97zm81.37-163.23l170-5.18L0 492.6v26.46l254.84-9.7-173.47-.63zM0 521.95v8.22l257.16-14.83L0 521.95zm0-42.92v12.06l274.9 5.17L0 479.03zm20.5-307.7l150.53 100.43L0 136.7v33.02l170.58 111.92L20.5 171.32zm204.46 698.8L124.7 1000h7.02l93.23-129.88zM0 909.13v9.4L256.5 702.3 0 909.13zm0-220.15v16.86l162.22-70.8L0 688.98zm268.93-22.18l6.66-4.84-36.43 25.33-151.4 104.1 184.8-131.35-77.93 52.8 73.64-52.1L122.92 756l156.56-106.84-116.9 75.9 95.56-65.02-31.07 19.37 45.5-30.5L63.13 778.07l194.5-124.55-121.8 73.87L0 809.48v94.8l279.5-227.52-113.45 88.13 108.04-87.13-223.8 168.6 235.14-184.4-90.04 64.62L329.6 625.1l-60.66 41.7zM0 14.63V38.1l285.06 265.15-110.8-110.16L289.1 303.43 0 14.63zm0 762.02v14.14l259.57-152.92L0 776.65zm122.77-164.18l29.1-8.8L0 643.03v25.8l143.44-50.58-80.35 22.38 93.5-30.43-127.48 36 152.03-48.66-58.36 14.93zm103.26 36.67L0 765.87v8.05l226.03-124.78zm173.1 114.28L309 1000h3.8l86.33-236.58zm68.44 160.48l6.42-114.65-16.1 190.76h6.82l9.5-167.57-6.64 91.46zM483 740.06L467.63 1000h3.5L483 740.06zM178.45 1000h3.44l63.5-102.07L178.45 1000zm303.6-184.02L471.52 1000h5.35l5.2-184.02zm-64.02 147.4l-6.62 36.63h.88l5.74-36.63zm43.2-153.15l-8.86 74.1 9.7-90.54L436.73 1000h4.8l19.73-189.78zm4.32 20.7l-4.87 48.4 6.36-74.5-11.43 110.47 10.7-117.43L444.7 1000h7.02l13.84-169.08zm64.53 117.22l3.37 51.86H535l-4.9-51.86zm-8.4-37.52l4.78 89.38h2.28l-7.06-89.38zm15.85 63.18l1.96 26.2h.85l-2.8-26.2zm-39.8-176.84l-.7 203.04h4.77l-4.08-203.04zm22.52 134.64l2.53 68.4h3.1l-5.62-68.4zm-17.8 68.4h2.83l-4.62-184.96 1.8 184.96zm-96.66 0h1.23l9.33-55.27L405.8 1000zm-48.06-218.75L246.44 1000h4.34l106.96-218.75zm-5.34 19.72L254.16 1000h4.03l94.2-199.03zM234.1 1000h8.16l122.68-243.57L234.1 1000zm113.5-227.12L219.77 1000h4.7l123.1-227.12zM544.7 1000h2.1l-5.06-38.9 2.96 38.9zm-319.63 0h7.76l99.2-191.8L225.07 1000zm143.8 0h2.9l13.07-57.3-15.98 57.3zm-19.17 0h1.35L362 960.42 349.7 1000zm19.55-47.72l-14.2 47.72h1.4l12.8-47.72zm3.58 3.68L360.17 1000h1.32l11.34-44.04zM363.9 1000h1.08l12.13-47.77-13.2 47.77zm9.5-97.48L342.06 1000h2.65l28.68-97.48zm12.13 64.92l-8.3 32.56h1.07l7.22-32.56z"/></svg>