<svg xmlns="http://www.w3.org/2000/svg" xmlns:xlink="http://www.w3.org/1999/xlink" width="1596" height="126" viewBox="0 0 1596 126"><defs><clipPath id="b"><rect width="1596" height="126"/></clipPath></defs><g id="a" clip-path="url(#b)"><path d="M2546.845,1956.466h-.807a62.824,62.824,0,0,1-15.274-1.885v-.059a21.226,21.226,0,0,0-31.909-19.461l-.1-.119c-.283-.329-.561-.666-.837-1l-.359-.448q-.59-.7-1.158-1.451l-.628-.822q-.651-.853-1.309-1.742l-.411-.583q-.717-1.061-1.39-2.153l-.209-.337-.187-.3c-.434-.688-.845-1.436-1.248-2.183l-.165-.314c-.448-.83-.882-1.667-1.293-2.512v-.068c-.4-.837-.785-1.689-1.151-2.542l-.225-.516c-.351-.845-.695-1.7-1.009-2.557l-.172-.329q-.478-1.315-.9-2.654v-.1l-.052-.156-.052-.172h.052c.164-.1.328-.2.489-.3a6.864,6.864,0,0,1-.752-3.132v-1.4a4.606,4.606,0,0,0-6.908-3.989l-1.211.7a6.863,6.863,0,0,1-2.607.874l.421,2.064-.727.68a30.588,30.588,0,0,1-6.109,4.439l-.871.482-3.842-2.177a26.665,26.665,0,0,1-3.343,1.085l-1.829,4.02-.988.122a30.582,30.582,0,0,1-7.552,0l-.987-.122-1.829-4.02a26.679,26.679,0,0,1-3.344-1.085l-3.841,2.177-.871-.482a30.65,30.65,0,0,1-6.11-4.439l-.726-.68.884-4.333a26.888,26.888,0,0,1-2.063-2.836l-4.154-.471q-.223.538-.472,1.064a8.484,8.484,0,0,1-11.467,11.467,23.833,23.833,0,0,1-3.078,1.2,8.508,8.508,0,0,1-16.508-.8q-1.019-.431-1.989-.952A8.488,8.488,0,0,1,2382.1,1899a.985.985,0,0,0-.659-1.582,8.3,8.3,0,0,1-1.98-.455l-1.656,1.656a6.12,6.12,0,0,1-8.436.042,20.923,20.923,0,0,1-3.379,1.766A6,6,0,0,1,2360,1906h-4a6,6,0,0,1-5.985-5.572,20.94,20.94,0,0,1-3.379-1.766,6.121,6.121,0,0,1-8.436-.042l-2.542-2.542a23.334,23.334,0,0,1-2.367,5.235q-.137.318-.285.631l4.744,4.744-7.075,7.063-4-4a20.9,20.9,0,0,1-8.672,3.872V1919h-10v-5.87a20.937,20.937,0,0,1-7.07-3.692q-.4-.236-.792-.489l-4.813,4.8-7.075-7.063,4.813-4.812a23.36,23.36,0,0,1-2.439-4.963,3.737,3.737,0,0,1-1.085,2.975l-2.651,2.651a3.749,3.749,0,0,1-5.3,0l-3.767-3.761a21.642,21.642,0,0,1-5.192,2.148v5.324a3.749,3.749,0,0,1-3.749,3.75h-3.75a3.752,3.752,0,0,1-3.75-3.75v-5.318a21.368,21.368,0,0,1-5.2-2.155l-3.759,3.761a3.754,3.754,0,0,1-5.307,0l-2.651-2.651a3.729,3.729,0,0,1-1.036-1.976,20.793,20.793,0,0,1-.662,2.213l3.345,3.345a2.718,2.718,0,0,1,0,3.853l-5.782,5.783a2.717,2.717,0,0,1-3.853,0l-2.312-2.312a20.9,20.9,0,0,1-5.342,2.39v3.093a2.718,2.718,0,0,1-2.725,2.723h-8.179a2.717,2.717,0,0,1-2.724-2.723V1912.5a20.964,20.964,0,0,1-4.535-2.511l-3.119,3.119a2.717,2.717,0,0,1-3.853,0l-5.783-5.783a2.717,2.717,0,0,1,0-3.853l4.862-4.863a20.9,20.9,0,0,1-.569-2.791h-5.277a2.622,2.622,0,0,1-.273.319,30.3,30.3,0,0,1-12.128,7.021h-.638a2.043,2.043,0,0,1-1.914-1.277,6.549,6.549,0,0,0-11.915,0,2.171,2.171,0,0,1-2.553,1.277,30.3,30.3,0,0,1-12.127-7.021,1.99,1.99,0,0,1-.213-2.767,6.466,6.466,0,0,0,.426-7.021,6.144,6.144,0,0,0-6.383-3.191,2.085,2.085,0,0,1-.457.04,20.879,20.879,0,0,1-1.228,2.738l2.43,3.557-5.447,5.447-3-2.051a20.9,20.9,0,0,1-10.87,4.054l-.765,4.061h-7.7l-1.043-5.534a21.015,21.015,0,0,1-6.561-4.233q-.437-.248-.862-.514l-5.346,3.652,0,.018,4.152.692a3,3,0,0,1,2.507,2.958v3.918a3,3,0,0,1-2.507,2.959l-4.152.692a23.861,23.861,0,0,1-2.871,6.926l2.448,3.427a3,3,0,0,1-.32,3.865l-2.77,2.77a3,3,0,0,1-3.865.319l-3.427-2.448a23.865,23.865,0,0,1-6.927,2.871l-.692,4.152a3,3,0,0,1-2.959,2.506h-3.917a3,3,0,0,1-2.959-2.506l-.692-4.152a23.865,23.865,0,0,1-6.927-2.871l-3.427,2.448a3,3,0,0,1-3.866-.319l-2.769-2.77a3,3,0,0,1-.32-3.865l2.448-3.427a23.867,23.867,0,0,1-2.871-6.926l-4.152-.692a3,3,0,0,1-.843-.273,28.174,28.174,0,0,1-9.672,3.877h-.437a2.164,2.164,0,0,1-2.178-1.525c-.654-2.615-2.179-4.358-3.487-4.358s-2.615,1.743-3.486,4.358a2.367,2.367,0,0,1-2.615,1.525,33,33,0,0,1-10.677-4.576,2.309,2.309,0,0,1-.653-2.832c1.308-2.4,1.526-4.793.653-5.665s-3.268-.653-5.665.653a2.075,2.075,0,0,1-2.832-.653q-.555-.757-1.035-1.531a23.314,23.314,0,0,1-3.5,4.9l1.669,7.543a29.935,29.935,0,0,1-7.847,4.532l-5.7-5.217a23.237,23.237,0,0,1-10.412,0l-5.7,5.217a29.933,29.933,0,0,1-7.843-4.532l1.669-7.543a23.292,23.292,0,0,1-5.213-8.982l-2.1-.669a6.252,6.252,0,0,0-1.752,9.2,2,2,0,0,1-.212,2.766,30.3,30.3,0,0,1-12.127,7.021h-.638a2.044,2.044,0,0,1-1.915-1.276,6.549,6.549,0,0,0-11.915,0,2.17,2.17,0,0,1-2.553,1.276,28.757,28.757,0,0,1-7.6-3.492,8.16,8.16,0,0,1-4.516,2.546,24.276,24.276,0,0,1-1.092,2.727,8.181,8.181,0,0,1-11.372,11.372,24.239,24.239,0,0,1-2.727,1.091,8.181,8.181,0,0,1-16.09,0,24.1,24.1,0,0,1-2.727-1.091,8.182,8.182,0,0,1-10.554-.845,8.018,8.018,0,0,1-2.372-5.837,7.854,7.854,0,0,1,1.527-4.718,24.239,24.239,0,0,1-1.091-2.727,8.159,8.159,0,0,1-3.324-1.332,6.17,6.17,0,0,1-4.79-1.67l-2-2a22.645,22.645,0,0,1-4.72,2V1907a6,6,0,0,1-12,0v-2.741a22.655,22.655,0,0,1-4.72-2l-2,2a6.18,6.18,0,0,1-8.5,0,6,6,0,0,1,0-8.5l2-2a22.7,22.7,0,0,1-2-4.72h-2.24l2.357,3.451-5.446,5.446-6.174-4.216a23.1,23.1,0,0,1-7.081,2.936l-1.383,7.344h-7.7l-1.383-7.344a23.085,23.085,0,0,1-7.081-2.936l-6.174,4.216-.785-.785a29.977,29.977,0,0,1-6.821,3.745l-5.7-5.217a23.24,23.24,0,0,1-10.412,0l-5.7,5.217a29.96,29.96,0,0,1-7.843-4.532l1.669-7.543a23.289,23.289,0,0,1-5.213-8.982l-7.365-2.344a30.307,30.307,0,0,1,0-9.057l7.365-2.344a23.28,23.28,0,0,1,5.213-9.02l-1.669-7.542A29.936,29.936,0,0,1,1766.1,1845l5.705,5.217a23.237,23.237,0,0,1,10.411,0l5.7-5.217a29.95,29.95,0,0,1,7.843,4.533l-.134.6,6.066,4.143a23.1,23.1,0,0,1,7.081-2.936l1.383-7.344h7.7l1.383,7.344a23.079,23.079,0,0,1,7.081,2.936l6.174-4.217,5.446,5.446-4.216,6.174a23.174,23.174,0,0,1,2.266,4.743q-.011-.178-.011-.357a6,6,0,0,1,1.764-4.25,6.2,6.2,0,0,1,8.5,0l2,2a22.652,22.652,0,0,1,4.72-2V1859a6,6,0,0,1,12,0v2.78a22.7,22.7,0,0,1,4.72,2l2-2a6.181,6.181,0,0,1,8.5,0,6,6,0,0,1,0,8.5l-2,2a22.691,22.691,0,0,1,2,4.72h2.3a8.184,8.184,0,0,1,9.608-.035,24.1,24.1,0,0,1,2.727-1.091A8.181,8.181,0,0,1,1903,1869a8.018,8.018,0,0,1,5.673,2.208,7.887,7.887,0,0,1,2.264,4.418,24.089,24.089,0,0,1,2.727,1.091,8.158,8.158,0,0,1,3.632-1.37,18.431,18.431,0,0,1,.556-2.513,2.107,2.107,0,0,1,2.34-1.7,6.871,6.871,0,0,0,6.383-3.191,6.491,6.491,0,0,0-.425-7.022,1.988,1.988,0,0,1,.212-2.766,27.308,27.308,0,0,1,11.915-7.021,1.982,1.982,0,0,1,2.553,1.276,6.548,6.548,0,0,0,11.914,0,2.17,2.17,0,0,1,2.553-1.276,29.061,29.061,0,0,1,11.915,6.809,1.989,1.989,0,0,1,.213,2.766,6.464,6.464,0,0,0-.426,7.021,6.144,6.144,0,0,0,6.383,3.191,2.705,2.705,0,0,1,.6.067,23.31,23.31,0,0,1,2.938-3.911l-1.669-7.542A29.936,29.936,0,0,1,1983.1,1855l5.705,5.217a23.236,23.236,0,0,1,10.411,0l5.7-5.217a29.95,29.95,0,0,1,7.843,4.533l-1.669,7.547q.628.674,1.2,1.394a32,32,0,0,1,3.336-6.578,2.309,2.309,0,0,1,2.832-.653c2.615,1.308,4.793,1.526,5.665.653s.654-3.268-.653-5.665a1.894,1.894,0,0,1,.872-2.615,27.415,27.415,0,0,1,10.676-4.576,2.367,2.367,0,0,1,2.615,1.526c.653,2.614,2.179,4.358,3.486,4.358s2.615-1.743,3.487-4.358a2.366,2.366,0,0,1,2.615-1.526,33.013,33.013,0,0,1,10.676,4.576,2.309,2.309,0,0,1,.653,2.832c-1.307,2.4-1.524,4.793-.653,5.666s3.268.653,5.665-.654a2.074,2.074,0,0,1,2.832.654,27.4,27.4,0,0,1,4.576,10.676,2.366,2.366,0,0,1-1.525,2.615,8.591,8.591,0,0,0-2.729,1.177,3,3,0,0,1,2.333.5l3.427,2.448a23.862,23.862,0,0,1,6.927-2.871l.692-4.152a3,3,0,0,1,2.959-2.507h3.917a3,3,0,0,1,2.959,2.507l.692,4.152a23.863,23.863,0,0,1,6.926,2.871l3.427-2.448a3,3,0,0,1,2.471-.469q-.047-.188-.09-.377l-7.344-1.383v-7.7l7.344-1.383a23.113,23.113,0,0,1,2.937-7.082l-4.217-6.173,5.447-5.447,6.173,4.217a23.122,23.122,0,0,1,7.081-2.937l1.384-7.344h7.7l1.383,7.344a23.115,23.115,0,0,1,7.081,2.937l6.173-4.217,5.447,5.447-4.217,6.173a23.122,23.122,0,0,1,2.937,7.082l1.851.349a6.825,6.825,0,0,0,5.068-3.172,6.49,6.49,0,0,0-.426-7.021,1.99,1.99,0,0,1,.213-2.767,27.305,27.305,0,0,1,11.914-7.021,1.981,1.981,0,0,1,2.553,1.276,6.548,6.548,0,0,0,11.915,0,2.171,2.171,0,0,1,2.553-1.276,29.073,29.073,0,0,1,11.915,6.808,1.99,1.99,0,0,1,.212,2.766,6.468,6.468,0,0,0-.426,7.022,6.147,6.147,0,0,0,6.384,3.191c.086,0,.172,0,.257.012l1.038-1.037a2.717,2.717,0,0,1,3.853,0l5.638,5.639a20.1,20.1,0,0,1,2.016-.835v-7.975a2.717,2.717,0,0,1,2.724-2.723h8.179a2.718,2.718,0,0,1,2.725,2.723v7.987a20.221,20.221,0,0,1,2.005.833l5.649-5.649a2.717,2.717,0,0,1,3.853,0l5.782,5.782a2.717,2.717,0,0,1,.742,1.36,21.606,21.606,0,0,1,1.377-2.855l-3.761-3.768a3.749,3.749,0,0,1,0-5.3l2.648-2.648a3.747,3.747,0,0,1,5.307,0l3.625,3.619a20.872,20.872,0,0,1,5.333-2.321v-5.012a3.751,3.751,0,0,1,3.75-3.75h3.75a3.748,3.748,0,0,1,3.749,3.75v5.012a20.887,20.887,0,0,1,5.34,2.324l3.619-3.623a3.743,3.743,0,0,1,5.3,0l2.651,2.648a3.749,3.749,0,0,1,0,5.3l-3.762,3.762a21.649,21.649,0,0,1,2.156,5.2h3.37l-3.052-3.052,7.075-7.075,4.813,4.812A23.611,23.611,0,0,1,2308,1865.8V1859h10v6.8a23.579,23.579,0,0,1,7.875,3.262l4.8-4.812,3.75,3.749h3.075l.361-.84-2.48-2.48a6,6,0,0,1,0-8.48l2.82-2.82a6.119,6.119,0,0,1,8.48,0l2.48,2.479.84-.36V1852a6,6,0,0,1,6-6h4a6,6,0,0,1,6,6v3.5l.841.36,2.48-2.479a6.119,6.119,0,0,1,8.48,0l2.821,2.82a6,6,0,0,1,0,8.48l-2.48,2.48.36.84h3.5q.281,0,.555.025.115-.119.236-.235a8.29,8.29,0,0,1,11.209-.7.92.92,0,0,0,.981.132.939.939,0,0,0,.6-.791,8.484,8.484,0,0,1,16.838,0,.936.936,0,0,0,.6.787.969.969,0,0,0,.981-.132,8.595,8.595,0,0,1,13.443,4.4l3.892-.441a26.9,26.9,0,0,1,2.064-2.836l-.884-4.334.726-.679a30.65,30.65,0,0,1,6.11-4.439l.871-.481,3.841,2.177a26.707,26.707,0,0,1,3.343-1.085l1.83-4.02.987-.122a30.582,30.582,0,0,1,7.552,0l.988.122,1.829,4.02a26.564,26.564,0,0,1,3.343,1.085l3.842-2.177.871.481a30.724,30.724,0,0,1,3.192,2.03q.641.466,1.261.968a6.877,6.877,0,0,1,4.568.832l1.211.7a4.606,4.606,0,0,0,6.908-3.989v-1.4A6.917,6.917,0,0,1,2492.7,1851h4.605a6.873,6.873,0,0,1,2.452.449c.231-.261.467-.521.7-.772l.045-.052a22.877,22.877,0,0,0,17.824,2.4,22.789,22.789,0,0,0,14.585-20.679h.075c.689-.149,1.369-.261,2.057-.381h.113l.568-.09,1.278-.194q.987-.142,2-.292l.965-.1c.837-.082,1.7-.149,2.5-.194s1.6-.09,2.4-.09h1.188a62.88,62.88,0,0,1,14.983,1.832h.044v.486a21.293,21.293,0,0,0,32.193,19.162l.075.09c.328.388.635.754.949,1.136.224.269.441.554.658.83l.254.321q.748.89,1.465,1.824l.269.382c.463.628.913,1.271,1.346,1.922l.179.276c.456.688.9,1.354,1.331,2.1.172.277.3.508.485.831s.382.643.561.971q.374.7.748,1.413l.284.583.1.189a4.606,4.606,0,0,0,6.819-4.04v-1.4A6.917,6.917,0,0,1,2615.7,1853h4.605a6.917,6.917,0,0,1,6.908,6.908v1.4a4.617,4.617,0,0,0,5.313,4.558,4.646,4.646,0,0,0,.265-1.556v-1.4A6.917,6.917,0,0,1,2639.7,1856h4.606a6.917,6.917,0,0,1,6.908,6.908v1.4a4.605,4.605,0,0,0,6.908,3.989l1.211-.7c.122-.071.245-.137.37-.2a31.676,31.676,0,0,1,2.915-5.5,2.309,2.309,0,0,1,2.832-.653c2.615,1.308,4.793,1.526,5.665.653s.654-3.268-.653-5.665a1.894,1.894,0,0,1,.872-2.615,27.415,27.415,0,0,1,10.676-4.576,2.367,2.367,0,0,1,2.615,1.526c.653,2.614,2.179,4.358,3.486,4.358s2.615-1.743,3.487-4.358a2.367,2.367,0,0,1,2.615-1.526,33.011,33.011,0,0,1,10.676,4.576,2.309,2.309,0,0,1,.654,2.832c-1.307,2.4-1.526,4.793-.654,5.666s3.268.653,5.665-.654a2.363,2.363,0,0,1,.358-.177,6,6,0,0,1,.831-7.463,6.2,6.2,0,0,1,8.5,0l2,2a22.643,22.643,0,0,1,4.72-2V1851a6,6,0,0,1,12,0v2.78a22.665,22.665,0,0,1,4.72,2l2-2a6.181,6.181,0,0,1,8.5,0,5.988,5.988,0,0,1,.59.683,8.157,8.157,0,0,1,12.322-3.5,24.259,24.259,0,0,1,2.727-1.091A8.181,8.181,0,0,1,2778,1843a8.015,8.015,0,0,1,5.672,2.209,7.875,7.875,0,0,1,2.263,4.418,24.136,24.136,0,0,1,2.728,1.091,8.181,8.181,0,0,1,11.371,11.372,24.076,24.076,0,0,1,1.091,2.727,8.157,8.157,0,0,1,3.281,1.3,6.863,6.863,0,0,0-1.258-4.2,1.989,1.989,0,0,1,.213-2.766,27.3,27.3,0,0,1,11.914-7.021,1.982,1.982,0,0,1,2.553,1.276,6.549,6.549,0,0,0,11.915,0,2.17,2.17,0,0,1,2.553-1.276,29.071,29.071,0,0,1,11.915,6.808,1.99,1.99,0,0,1,.212,2.766,6.369,6.369,0,0,0-1.261,4.042,23.3,23.3,0,0,1,4.754-7.675l-1.67-7.542A29.951,29.951,0,0,1,2854.1,1846l5.705,5.217a23.216,23.216,0,0,1,2.791-.465A20.924,20.924,0,0,1,2871,1849q.791,0,1.568.058l3.34-3.057a29.922,29.922,0,0,1,7.843,4.533l-.528,2.388a21.085,21.085,0,0,1,6.807,8.185,3.194,3.194,0,0,1,.42.136c2.615,1.308,4.793,1.526,5.665.653s.654-3.268-.653-5.665a1.894,1.894,0,0,1,.872-2.615,27.415,27.415,0,0,1,10.676-4.576,2.367,2.367,0,0,1,2.615,1.526c.653,2.614,2.179,4.358,3.486,4.358s2.615-1.743,3.487-4.358a2.367,2.367,0,0,1,2.615-1.526,33.015,33.015,0,0,1,10.676,4.576,2.309,2.309,0,0,1,.653,2.832c-1.307,2.4-1.526,4.793-.653,5.666s3.268.653,5.665-.654a1.979,1.979,0,0,1,2.353.157,23.891,23.891,0,0,1,1.627-3.153l-2.448-3.427a3,3,0,0,1,.321-3.865l2.77-2.77a3,3,0,0,1,3.865-.319l3.427,2.448a23.864,23.864,0,0,1,6.926-2.871l.692-4.152a3,3,0,0,1,2.959-2.507h3.918a3,3,0,0,1,2.959,2.507l.692,4.152a23.861,23.861,0,0,1,6.926,2.871l3.427-2.448a3,3,0,0,1,3.865.32l2.77,2.769a3,3,0,0,1,.32,3.865l-2.448,3.427a23.943,23.943,0,0,1,1.876,3.763l5.164-5.164,6.173,4.217a23.123,23.123,0,0,1,7.081-2.937l1.383-7.344h7.7l1.383,7.344a23.105,23.105,0,0,1,7.081,2.937l6.174-4.217,2.66,2.66a6.682,6.682,0,0,0,3.424-2.782,6.488,6.488,0,0,0-.426-7.021,1.989,1.989,0,0,1,.213-2.766,27.305,27.305,0,0,1,11.915-7.022,1.983,1.983,0,0,1,2.553,1.277,6.548,6.548,0,0,0,11.914,0,2.172,2.172,0,0,1,2.553-1.277,29.077,29.077,0,0,1,11.915,6.808,1.991,1.991,0,0,1,.212,2.767,6.468,6.468,0,0,0-.426,7.021,6.181,6.181,0,0,0,5.575,3.27l2.1-2.1a2.718,2.718,0,0,1,3.853,0l5.638,5.639a20.444,20.444,0,0,1,2.016-.834v-7.976a2.716,2.716,0,0,1,2.725-2.723h8.178a2.717,2.717,0,0,1,2.725,2.723v7.987a20.429,20.429,0,0,1,2.005.833l5.649-5.649a2.717,2.717,0,0,1,3.853,0l5.782,5.783c.045.045.088.09.129.137a21.581,21.581,0,0,1,1.99-4.633l-3.761-3.768a3.749,3.749,0,0,1,0-5.3l2.648-2.648a3.747,3.747,0,0,1,5.307,0l3.766,3.76a21.654,21.654,0,0,1,5.191-2.149v-5.324a3.751,3.751,0,0,1,3.75-3.75h3.75a3.748,3.748,0,0,1,3.75,3.75v5.316a21.637,21.637,0,0,1,5.2,2.157l3.757-3.76a3.743,3.743,0,0,1,5.3,0l2.651,2.648a3.749,3.749,0,0,1,0,5.3l-3.762,3.762a21.655,21.655,0,0,1,2.156,5.2h.369l-.051-.051,7.076-7.075,4.812,4.812A23.631,23.631,0,0,1,3183,1858.8V1852h10v6.8a23.6,23.6,0,0,1,7.875,3.262l4.8-4.812,3.75,3.75h3.075l.36-.841-2.48-2.479a6,6,0,0,1,0-8.481l2.82-2.82a6.122,6.122,0,0,1,8.481,0l2.479,2.48.841-.36V1845a6,6,0,0,1,6-6h4a6,6,0,0,1,6,6v3.5l.841.36,2.479-2.48a6.122,6.122,0,0,1,8.481,0l2.82,2.82a6,6,0,0,1,0,8.481l-2.48,2.479.36.841h3.5q.281,0,.556.025c.076-.079.155-.158.236-.235a8.288,8.288,0,0,1,11.208-.7.916.916,0,0,0,.163.11q.682-.323,1.388-.6a.919.919,0,0,0,.031-.166,8.484,8.484,0,0,1,16.838,0,.945.945,0,0,0,.03.162q.7.278,1.383.6a.955.955,0,0,0,.168-.107,8.28,8.28,0,0,1,2.307-1.326l-.793-3.883.726-.679a30.65,30.65,0,0,1,6.11-4.439l.871-.481,3.841,2.177a26.783,26.783,0,0,1,3.344-1.085l1.829-4.02.988-.122a30.58,30.58,0,0,1,7.552,0l.987.122,1.829,4.02a26.525,26.525,0,0,1,3.343,1.085l3.842-2.177.871.481a30.631,30.631,0,0,1,6.11,4.439l.726.679-.884,4.334a26.958,26.958,0,0,1,2.063,2.836l4.392.5.422.9a30.695,30.695,0,0,1,2.333,7.183l.188.977-3.262,2.984c.038.586.058,1.174.058,1.754s-.02,1.167-.058,1.753l3.262,2.985-.188.977a30.693,30.693,0,0,1-2.333,7.183l-.422.9-4.392.5a26.972,26.972,0,0,1-2.063,2.836l.884,4.333-.726.68a30.631,30.631,0,0,1-6.11,4.439l-.871.482-3.842-2.177a26.665,26.665,0,0,1-3.343,1.085l-1.829,4.02-.987.122a30.58,30.58,0,0,1-7.552,0l-.988-.122-1.829-4.02a26.717,26.717,0,0,1-3.343-1.085l-.572.324a8.489,8.489,0,0,1-12.493,2.338.967.967,0,0,0-.981-.131.937.937,0,0,0-.6.791,8.484,8.484,0,0,1-16.838,0,.985.985,0,0,0-1.581-.656A8.483,8.483,0,0,1,3257.1,1892a.985.985,0,0,0-.659-1.582,8.3,8.3,0,0,1-1.979-.455l-1.656,1.656a6.122,6.122,0,0,1-8.437.042,20.935,20.935,0,0,1-3.379,1.766A6,6,0,0,1,3235,1899h-4a6,6,0,0,1-5.984-5.572,20.945,20.945,0,0,1-3.379-1.766,6.122,6.122,0,0,1-8.437-.042l-2.542-2.542a23.38,23.38,0,0,1-2.721,5.8l4.812,4.813-7.075,7.062-4.8-4.8a23.821,23.821,0,0,1-4.254,2.171,20.9,20.9,0,0,1-3.621,1.685V1912h-10v-5.212a20.887,20.887,0,0,1-9.089-3.614l-3.585,3.577-7.076-7.062,4.075-4.075a20.85,20.85,0,0,1-2.115-6.636,3.743,3.743,0,0,1-.671.91l-2.651,2.651a3.749,3.749,0,0,1-5.3,0l-1.844-1.842a20.923,20.923,0,0,1-7.114,3.542v2.012a3.749,3.749,0,0,1-3.75,3.75h-3.75a3.752,3.752,0,0,1-3.75-3.75v-2.012a20.917,20.917,0,0,1-7.115-3.543l-1.843,1.843a3.754,3.754,0,0,1-5.307,0l-1.676-1.676a20.857,20.857,0,0,1-1.247,3.686l1.919,1.92a2.717,2.717,0,0,1,0,3.853l-5.782,5.783a2.718,2.718,0,0,1-3.853,0l-1.577-1.577a20.86,20.86,0,0,1-6.077,2.125v2.622a2.718,2.718,0,0,1-2.725,2.723h-8.178a2.718,2.718,0,0,1-2.725-2.723v-4.706a21.019,21.019,0,0,1-3.658-2.461l-4,4a2.717,2.717,0,0,1-3.853,0l-5.783-5.783a2.717,2.717,0,0,1,0-3.853l5.649-5.648a20.3,20.3,0,0,1-.834-2.005H3072.3a2.137,2.137,0,0,1-.66,1.318,30.3,30.3,0,0,1-12.128,7.021h-.639a2.045,2.045,0,0,1-1.914-1.276,6.549,6.549,0,0,0-11.915,0,2.17,2.17,0,0,1-2.553,1.276,30.286,30.286,0,0,1-12.127-7.021,1.989,1.989,0,0,1-.213-2.766,5.829,5.829,0,0,0,.864-1.576l-2.356.444a23.1,23.1,0,0,1-2.937,7.081l4.217,6.173-5.447,5.447-4.628-3.161a20.939,20.939,0,0,1-9.157,4.7l-.853,4.529h-7.7l-.853-4.529a20.94,20.94,0,0,1-9.156-4.7l-4.628,3.161-5.447-5.447,4.216-6.173a23.124,23.124,0,0,1-2.936-7.081l-1.092-.206.667.933a3,3,0,0,1-.321,3.865l-2.769,2.769a3,3,0,0,1-3.865.32l-3.427-2.448a23.86,23.86,0,0,1-6.925,2.87l-.692,4.153a3,3,0,0,1-2.959,2.506h-3.918a3,3,0,0,1-2.959-2.506l-.692-4.153a23.862,23.862,0,0,1-6.926-2.871l-3.428,2.448a3,3,0,0,1-3.865-.32l-.558-.558q-.668,1.236-1.449,2.409a2.309,2.309,0,0,1-2.832.653,9.221,9.221,0,0,0-3.626-1.163,21.113,21.113,0,0,1-2.555,2.433,9.077,9.077,0,0,0,1.171,3.741,2.075,2.075,0,0,1-.654,2.832,27.415,27.415,0,0,1-10.676,4.576h-.437a2.165,2.165,0,0,1-2.179-1.525c-.654-2.615-2.178-4.358-3.486-4.358s-2.615,1.743-3.486,4.358a2.367,2.367,0,0,1-2.615,1.525,33,33,0,0,1-10.677-4.576,2.309,2.309,0,0,1-.653-2.832c1.308-2.4,1.525-4.793.653-5.665s-3.268-.653-5.665.653a2.075,2.075,0,0,1-2.832-.653,25.337,25.337,0,0,1-3.8-7.722,23.274,23.274,0,0,1-1.733,2.094l1.669,7.543a29.933,29.933,0,0,1-7.847,4.532l-5.7-5.217a23.234,23.234,0,0,1-10.411,0l-5.7,5.217a29.948,29.948,0,0,1-7.843-4.532l1.67-7.543-.193-.209a6.668,6.668,0,0,0-3.3,2.735,6.489,6.489,0,0,0,.426,7.021,2,2,0,0,1-.213,2.766,30.3,30.3,0,0,1-12.128,7.022h-.638a2.043,2.043,0,0,1-1.914-1.277,6.541,6.541,0,0,0-4.049-3.545,2.132,2.132,0,0,1-4.231.141,6.534,6.534,0,0,0-3.635,3.4,2.172,2.172,0,0,1-2.553,1.277,30.3,30.3,0,0,1-12.127-7.022,1.989,1.989,0,0,1-.213-2.766,6.466,6.466,0,0,0,.426-7.021,6.344,6.344,0,0,0-2.016-2.226,8.181,8.181,0,0,1-12.651,5.187,24.086,24.086,0,0,1-2.727,1.091,8.181,8.181,0,0,1-16.09,0,24.144,24.144,0,0,1-2.727-1.091,8.181,8.181,0,0,1-10.553-.845,8.014,8.014,0,0,1-.951-1.135,6,6,0,0,1-1.6,2.852,6.157,6.157,0,0,1-3.726,1.671,20.9,20.9,0,0,1-12.3,4.148,6,6,0,0,1-11.2-3v-.084a21.117,21.117,0,0,1-5.051-4.327l-1.67,1.67a6.179,6.179,0,0,1-8.477.021,2.716,2.716,0,0,1-1.51-.178c-2.4-1.307-4.793-1.525-5.665-.653s-.654,3.268.654,5.665a2.075,2.075,0,0,1-.654,2.832,27.415,27.415,0,0,1-10.676,4.576h-.437a2.165,2.165,0,0,1-2.179-1.525c-.654-2.615-2.178-4.358-3.486-4.358s-2.615,1.743-3.486,4.358a2.367,2.367,0,0,1-2.615,1.525,33,33,0,0,1-10.677-4.576,2.176,2.176,0,0,1-.582-.648l-1.764,3.054a6.919,6.919,0,0,1-9.437,2.529l-1.211-.7a4.576,4.576,0,0,0-2.612-.614,20.971,20.971,0,0,1-3.341,1.784,4.568,4.568,0,0,0-.955,2.818v1.4a6.917,6.917,0,0,1-6.908,6.908H2639.7a6.917,6.917,0,0,1-6.908-6.908v-1.4a4.619,4.619,0,0,0-5.312-4.558,4.641,4.641,0,0,0-.265,1.556v1.4a6.917,6.917,0,0,1-6.908,6.908H2615.7a6.917,6.917,0,0,1-6.908-6.908v-1.4a4.606,4.606,0,0,0-6.909-3.989l-1.21.7a6.859,6.859,0,0,1-2.974.908,22.846,22.846,0,0,0,7.535,7.666c-.135.358-.284.733-.419,1.106-.2.538-.4,1.085-.613,1.623a62.512,62.512,0,0,1-11.424,18.406h-.052c-.4.427-.755.859-1.151,1.279a22.883,22.883,0,0,0-18.249-2.243,22.531,22.531,0,0,0-3.14,1.554,22.825,22.825,0,0,0-11.049,18.886v.067c-.688.149-1.376.269-2.064.389h-.149c-.786.135-1.533.247-2.281.352l-.651.089q-.92.112-1.839.2l-1.5.127-1.1.075c-.867.052-1.741.1-2.609.1ZM3279,1904.5a.985.985,0,0,0,.866-.515q-.431.016-.866.016c-.29,0-.58-.005-.867-.016A.986.986,0,0,0,3279,1904.5Zm-15.908-6.591a.853.853,0,0,0,.631.34l.062,0q-.53-.468-1.031-.968A.867.867,0,0,0,3263.1,1897.908Zm-591.487-1.294a1.975,1.975,0,0,0-.492-1.163c-.029-.029-.06-.057-.093-.084A6.91,6.91,0,0,1,2671.61,1896.614Zm-382.067-2.03a3.757,3.757,0,0,1,.6.778q-.187-.673-.336-1.361h-.844Zm-410.032-3.477.095-.015q.359-1.085.819-2.131h-.16A22.633,22.633,0,0,1,1879.51,1891.107Zm46.62-.288.144.025q-.122-.183-.256-.355Q1926.075,1890.653,1926.13,1890.819Zm1010.95-11.928a2.331,2.331,0,0,0,.895,1.649q-.456-1.051-.812-2.153A1.666,1.666,0,0,0,2937.08,1878.891ZM3164.8,1877q.151-.693.34-1.372h-2.2q-.053.693-.15,1.372Zm-410.621-14.719-2,2q.359.635.675,1.291a7.877,7.877,0,0,1,1.746-.48,24.193,24.193,0,0,1,1.091-2.727,8.25,8.25,0,0,1-.679-1.122A5.987,5.987,0,0,1,2754.184,1862.281Zm229.939,3.239-1.255-1.838c.179.56.339,1.131.477,1.708ZM2358.107,1860h0Zm-.207,0h0Zm875.207-7h0Zm-.207,0h0Z" transform="translate(-1747.007 -1831)"/><path d="M-4642.278-20.909v-.055a15.281,15.281,0,0,0-11.829-14.841,31.888,31.888,0,0,0,10.131-14.567,32.257,32.257,0,0,1,10.3,7.174,31.629,31.629,0,0,1,18.674-9.8,31.313,31.313,0,0,1-.657-12.76,34.035,34.035,0,0,0,8.16,1.04,32.958,32.958,0,0,0,8.872-1.205,15.214,15.214,0,0,0,6.08,18.073h.054a42.047,42.047,0,0,1-8.269,14.074c-.33.329-.6.713-.931,1.041a15,15,0,0,0-7.12-2.136A15.237,15.237,0,0,0-4624.7-20.306h-.11a41.469,41.469,0,0,1-7.314.649A41.883,41.883,0,0,1-4642.278-20.909Zm-29.9-28.149v-.11a15.261,15.261,0,0,0,7.448-13.088,15.233,15.233,0,0,0-7.009-12.815v-.055a42.006,42.006,0,0,1,9.146-15.06v-.055a15.707,15.707,0,0,0,7.83,2.136,15.293,15.293,0,0,0,15.28-14.568h.055a42.241,42.241,0,0,1,17.361.6v.328a15.227,15.227,0,0,0,15.225,15.225,14.926,14.926,0,0,0,4.873-.821c.658-.274,1.37-.548,2.027-.876a42.918,42.918,0,0,1,7.831,14.4,2.208,2.208,0,0,0-.493.274,31.461,31.461,0,0,1-14.9,3.723,30.876,30.876,0,0,1-6.735-.712l-.33-.054a32.165,32.165,0,0,1-16.209-9.31,31.829,31.829,0,0,1-17.306,9.528,30.838,30.838,0,0,1,.876,7.448,32.1,32.1,0,0,1-1.917,10.844v.055a32.134,32.134,0,0,1-15.169,17.36A41.628,41.628,0,0,1-4672.18-49.058Z" transform="translate(5431.035 124.298)" fill="#44bfd5"/></g></svg>