<svg xmlns="http://www.w3.org/2000/svg" xmlns:xlink="http://www.w3.org/1999/xlink" width="1596" height="126" viewBox="0 0 1596 126">
  <defs>
    <clipPath id="clip-hr-gears-1">
      <rect width="1596" height="126"/>
    </clipPath>
  </defs>
  <g id="hr-gears-1" clip-path="url(#clip-hr-gears-1)">
    <g id="hr-gears-1-2" data-name="hr-gears-1" transform="translate(125.996 -886)">
      <g id="fills">
        <circle id="Ellipse_4" data-name="Ellipse 4" cx="21" cy="21" r="21" transform="translate(52 914)" fill="#2c2c3f"/>
        <circle id="Ellipse_28" data-name="Ellipse 28" cx="21" cy="21" r="21" transform="translate(10 944)" fill="#2c2c3f"/>
        <circle id="Ellipse_170" data-name="Ellipse 170" cx="18" cy="18" r="18" transform="translate(-29 918)" fill="#2c2c3f"/>
        <circle id="Ellipse_172" data-name="Ellipse 172" cx="18" cy="18" r="18" transform="translate(-114 929)" fill="#2c2c3f"/>
        <circle id="Ellipse_171" data-name="Ellipse 171" cx="18" cy="18" r="18" transform="translate(-70 920)" fill="#2c2c3f"/>
        <circle id="Ellipse_5" data-name="Ellipse 5" cx="17" cy="17" r="17" transform="translate(107 931)" fill="#2c2c3f"/>
        <circle id="Ellipse_7" data-name="Ellipse 7" cx="21" cy="21" r="21" transform="translate(191 942)" fill="#2c2c3f"/>
        <circle id="Ellipse_8" data-name="Ellipse 8" cx="17.5" cy="17.5" r="17.5" transform="translate(235 918)" fill="#2c2c3f"/>
        <circle id="Ellipse_9" data-name="Ellipse 9" cx="21" cy="21" r="21" transform="translate(282 914)" fill="#2c2c3f"/>
        <circle id="Ellipse_10" data-name="Ellipse 10" cx="18" cy="18" r="18" transform="translate(329 935)" fill="#2c2c3f"/>
        <circle id="Ellipse_11" data-name="Ellipse 11" cx="21" cy="21" r="21" transform="translate(373 921)" fill="#2c2c3f"/>
        <circle id="Ellipse_12" data-name="Ellipse 12" cx="21" cy="21" r="21" transform="translate(420 935)" fill="#2c2c3f"/>
        <circle id="Ellipse_13" data-name="Ellipse 13" cx="21" cy="21" r="21" transform="translate(464 923)" fill="#2c2c3f"/>
        <circle id="Ellipse_15" data-name="Ellipse 15" cx="21" cy="21" r="21" transform="translate(561 927)" fill="#2c2c3f"/>
        <circle id="Ellipse_16" data-name="Ellipse 16" cx="21" cy="21" r="21" transform="translate(750 932)" fill="#2c2c3f"/>
        <circle id="Ellipse_17" data-name="Ellipse 17" cx="21" cy="21" r="21" transform="translate(794 921)" fill="#2c2c3f"/>
        <circle id="Ellipse_18" data-name="Ellipse 18" cx="15" cy="15" r="15" transform="translate(844 923)" fill="#2c2c3f"/>
        <circle id="Ellipse_19" data-name="Ellipse 19" cx="21" cy="21" r="21" transform="translate(886 908)" fill="#2c2c3f"/>
        <circle id="Ellipse_20" data-name="Ellipse 20" cx="21" cy="21" r="21" transform="translate(930 929)" fill="#2c2c3f"/>
        <circle id="Ellipse_21" data-name="Ellipse 21" cx="21" cy="21" r="21" transform="translate(977 902)" fill="#2c2c3f"/>
        <circle id="Ellipse_22" data-name="Ellipse 22" cx="21" cy="21" r="21" transform="translate(1024 927)" fill="#2c2c3f"/>
        <circle id="Ellipse_23" data-name="Ellipse 23" cx="21" cy="21" r="21" transform="translate(1068 902)" fill="#2c2c3f"/>
        <circle id="Ellipse_24" data-name="Ellipse 24" cx="21" cy="21" r="21" transform="translate(1112 918)" fill="#2c2c3f"/>
        <circle id="Ellipse_25" data-name="Ellipse 25" cx="21" cy="21" r="21" transform="translate(1156 902)" fill="#2c2c3f"/>
        <circle id="Ellipse_26" data-name="Ellipse 26" cx="17.5" cy="17.5" r="17.5" transform="translate(1206 918)" fill="#2c2c3f"/>
        <circle id="Ellipse_27" data-name="Ellipse 27" cx="18" cy="18" r="18" transform="translate(1248 906)" fill="#2c2c3f"/>
        <circle id="Ellipse_29" data-name="Ellipse 29" cx="17.5" cy="17.5" r="17.5" transform="translate(1299 918)" fill="#2c2c3f"/>
        <circle id="Ellipse_173" data-name="Ellipse 173" cx="23.5" cy="23.5" r="23.5" transform="translate(1382 912)" fill="#2c2c3f"/>
        <circle id="Ellipse_174" data-name="Ellipse 174" cx="23.5" cy="23.5" r="23.5" transform="translate(1416 906)" fill="#2c2c3f"/>
        <circle id="Ellipse_30" data-name="Ellipse 30" cx="21" cy="21" r="21" transform="translate(1339 906)" fill="#2c2c3f"/>
        <circle id="Ellipse_14" data-name="Ellipse 14" cx="24" cy="24" r="24" transform="translate(508 929)" fill="#2c2c3f"/>
        <circle id="Ellipse_6" data-name="Ellipse 6" cx="21" cy="21" r="21" transform="translate(149 914)" fill="#2c2c3f"/>
      </g>
      <g id="gears" transform="translate(4 11)">
        <path id="XMLID_273_" d="M59.516,38.928l-1.211-.7a4.605,4.605,0,0,1,0-7.977l1.211-.7a6.905,6.905,0,0,0,2.529-9.437l-2.3-3.989A6.916,6.916,0,0,0,50.3,13.6l-1.211.7a4.606,4.606,0,0,1-6.908-3.989v-1.4A6.917,6.917,0,0,0,35.276,2H30.67a6.917,6.917,0,0,0-6.908,6.908v1.4A4.606,4.606,0,0,1,16.853,14.3l-1.211-.7A6.919,6.919,0,0,0,6.2,16.126L3.9,20.114a6.9,6.9,0,0,0,2.529,9.437l1.214.7a4.605,4.605,0,0,1,0,7.977l-1.211.7A6.9,6.9,0,0,0,3.9,48.365l2.3,3.989a6.917,6.917,0,0,0,9.437,2.529l1.211-.7a4.606,4.606,0,0,1,6.908,3.989v1.4a6.917,6.917,0,0,0,6.908,6.908h4.606a6.917,6.917,0,0,0,6.908-6.908v-1.4a4.606,4.606,0,0,1,6.908-3.989l1.211.7a6.92,6.92,0,0,0,9.437-2.529l2.3-3.989A6.9,6.9,0,0,0,59.516,38.928ZM32.973,45.754A11.514,11.514,0,1,1,44.487,34.24,11.527,11.527,0,0,1,32.973,45.754Z" transform="translate(732.028 906)"/>
        <path id="Path_13" data-name="Path 13" d="M224.918,413.939l-.048,0a24.452,24.452,0,0,1-4.87-.63v6.942h11.187V413.3a23.968,23.968,0,0,1-5.615.645C225.341,413.949,225.147,413.945,224.918,413.939Z" transform="translate(584.407 538.521)"/>
        <path id="Path_14" data-name="Path 14" d="M72.04,309.723q-.449-.662-.86-1.343l-.013-.023a27.659,27.659,0,0,1-2.278-5.205l-5.976,3.44,5.652,9.831,5.993-3.492q-.488-.54-.947-1.1A25.256,25.256,0,0,1,72.04,309.723Z" transform="translate(717.088 631.559)"/>
        <path id="Path_15" data-name="Path 15" d="M71.163,131.5l.008-.014a26.869,26.869,0,0,1,3.381-4.56l-5.993-3.492-5.651,9.782,5.978,3.484A27.662,27.662,0,0,1,71.163,131.5Z" transform="translate(717.092 783.357)"/>
        <path id="Path_16" data-name="Path 16" d="M224.89,60.31c.229-.006.445-.01.676-.01a24.03,24.03,0,0,1,5.622.645V54H220v6.942a24.393,24.393,0,0,1,4.863-.63C224.885,60.311,224.869,60.31,224.89,60.31Z" transform="translate(584.406 842)"/>
        <path id="Path_17" data-name="Path 17" d="M183.579,170.6a13.268,13.268,0,1,0,13.268,13.268A13.31,13.31,0,0,0,183.579,170.6Z" transform="translate(626.422 743.513)"/>
        <path id="Path_18" data-name="Path 18" d="M377.261,308.363a24.911,24.911,0,0,1-3.367,4.565l6.03,3.489,5.652-9.831-6.026-3.443A24.829,24.829,0,0,1,377.261,308.363Z" transform="translate(454.424 631.567)"/>
        <path id="Path_19" data-name="Path 19" d="M379.558,136.686l6.028-3.488-5.651-9.782L373.9,126.9a23.168,23.168,0,0,1,3.369,4.573A24.822,24.822,0,0,1,379.558,136.686Z" transform="translate(454.414 783.369)"/>
        <path id="Path_20" data-name="Path 20" d="M134.148,105.344a24.861,24.861,0,0,0-5.277-.784l-.054,0q-.371-.013-.74-.013c-.241,0-.482,0-.723.012l-.122,0a24.558,24.558,0,0,0-5.383.821,23.519,23.519,0,0,0-13.319,35.78c.5.733,1.041,1.444,1.616,2.133a23.579,23.579,0,0,0,11.71,7.476,24.565,24.565,0,0,0,5.376.82l.123,0c.241.008.482.012.723.012s.492,0,.74-.013l.054,0a24.879,24.879,0,0,0,5.271-.783,23.547,23.547,0,0,0,.005-45.466Zm-6.07,37.554A14.822,14.822,0,1,1,142.9,128.077,14.865,14.865,0,0,1,128.077,142.9Z" transform="translate(681.923 799.308)"/>
        <path id="Path_21" data-name="Path 21" d="M55,25H52.18a22.68,22.68,0,0,0-2-4.72l2-2a6,6,0,0,0,0-8.5,6.18,6.18,0,0,0-8.5,0l-2,2a22.68,22.68,0,0,0-4.72-2V7a6,6,0,1,0-12,0V9.82a22.68,22.68,0,0,0-4.72,2l-2-2a6.2,6.2,0,0,0-8.5,0,6,6,0,0,0,0,8.5l2,2a22.68,22.68,0,0,0-2,4.72H7a6,6,0,0,0,0,12H9.82a22.68,22.68,0,0,0,2,4.72l-2,2a6,6,0,0,0,0,8.5,6.18,6.18,0,0,0,8.5,0l2-2a22.68,22.68,0,0,0,4.72,2V55a6,6,0,1,0,12,0V52.18a22.68,22.68,0,0,0,4.72-2l2,2a6.18,6.18,0,0,0,8.5,0,6,6,0,0,0,0-8.5l-2-2a22.68,22.68,0,0,0,2-4.72H55a6,6,0,1,0,0-12ZM39.68,33.32a8.62,8.62,0,0,1-.9,2.2,9,9,0,0,1-3.28,3.26,8.18,8.18,0,0,1-2.18.9,9.11,9.11,0,0,1-6.84-.9,9,9,0,0,1-3.26-3.28,8.18,8.18,0,0,1-.9-2.18,8.58,8.58,0,0,1,0-4.64,8.74,8.74,0,0,1,.9-2.2,9,9,0,0,1,3.28-3.26,8.18,8.18,0,0,1,2.18-.9,9.11,9.11,0,0,1,6.84.9,9,9,0,0,1,3.26,3.28,8.18,8.18,0,0,1,.9,2.18A8.56,8.56,0,0,1,39.68,33.32Z" transform="translate(-47 895)"/>
        <path id="Path_21-2" data-name="Path 21" d="M55,25H52.18a22.68,22.68,0,0,0-2-4.72l2-2a6,6,0,0,0,0-8.5,6.18,6.18,0,0,0-8.5,0l-2,2a22.68,22.68,0,0,0-4.72-2V7a6,6,0,1,0-12,0V9.82a22.68,22.68,0,0,0-4.72,2l-2-2a6.2,6.2,0,0,0-8.5,0,6,6,0,0,0,0,8.5l2,2a22.68,22.68,0,0,0-2,4.72H7a6,6,0,0,0,0,12H9.82a22.68,22.68,0,0,0,2,4.72l-2,2a6,6,0,0,0,0,8.5,6.18,6.18,0,0,0,8.5,0l2-2a22.68,22.68,0,0,0,4.72,2V55a6,6,0,1,0,12,0V52.18a22.68,22.68,0,0,0,4.72-2l2,2a6.18,6.18,0,0,0,8.5,0,6,6,0,0,0,0-8.5l-2-2a22.68,22.68,0,0,0,2-4.72H55a6,6,0,1,0,0-12ZM39.68,33.32a8.62,8.62,0,0,1-.9,2.2,9,9,0,0,1-3.28,3.26,8.18,8.18,0,0,1-2.18.9,9.11,9.11,0,0,1-6.84-.9,9,9,0,0,1-3.26-3.28,8.18,8.18,0,0,1-.9-2.18,8.58,8.58,0,0,1,0-4.64,8.74,8.74,0,0,1,.9-2.2,9,9,0,0,1,3.28-3.26,8.18,8.18,0,0,1,2.18-.9,9.11,9.11,0,0,1,6.84.9,9,9,0,0,1,3.26,3.28,8.18,8.18,0,0,1,.9,2.18A8.56,8.56,0,0,1,39.68,33.32Z" transform="translate(825 896)"/>
        <circle id="Ellipse_1" data-name="Ellipse 1" cx="8.181" cy="8.181" r="8.181" transform="translate(17.818 942.818)"/>
        <path id="Path_22" data-name="Path 22" d="M65,35a8.181,8.181,0,0,0-6.872-8.181,24.216,24.216,0,0,0-1.091-2.727A8.181,8.181,0,0,0,45.662,12.719a24.163,24.163,0,0,0-2.727-1.091A7.881,7.881,0,0,0,40.672,7.21,8.018,8.018,0,0,0,35,5a8.181,8.181,0,0,0-8.181,6.872,24.244,24.244,0,0,0-2.727,1.091,8.165,8.165,0,0,0-11.4,11.4A24.217,24.217,0,0,0,11.6,27.091a7.881,7.881,0,0,0-4.418,2.264A8.018,8.018,0,0,0,5,35a8.181,8.181,0,0,0,6.872,8.181,24.162,24.162,0,0,0,1.091,2.727,7.854,7.854,0,0,0-1.527,4.718,8.018,8.018,0,0,0,2.373,5.836,8.181,8.181,0,0,0,10.554.845A24.193,24.193,0,0,0,27.091,58.4a8.181,8.181,0,0,0,16.09,0,24.19,24.19,0,0,0,2.727-1.091A8.181,8.181,0,0,0,57.28,45.935a24.216,24.216,0,0,0,1.091-2.727A8.181,8.181,0,0,0,65,35ZM35,48.635A13.636,13.636,0,1,1,48.635,35,13.636,13.636,0,0,1,35,48.635Z" transform="translate(-9 916)"/>
        <circle id="Ellipse_1-2" data-name="Ellipse 1" cx="8.181" cy="8.181" r="8.181" transform="translate(892.818 906.818)"/>
        <path id="Path_22-2" data-name="Path 22" d="M65,35a8.181,8.181,0,0,0-6.872-8.181,24.216,24.216,0,0,0-1.091-2.727A8.181,8.181,0,0,0,45.662,12.719a24.163,24.163,0,0,0-2.727-1.091A7.881,7.881,0,0,0,40.672,7.21,8.018,8.018,0,0,0,35,5a8.181,8.181,0,0,0-8.181,6.872,24.244,24.244,0,0,0-2.727,1.091,8.165,8.165,0,0,0-11.4,11.4A24.217,24.217,0,0,0,11.6,27.091a7.881,7.881,0,0,0-4.418,2.264A8.018,8.018,0,0,0,5,35a8.181,8.181,0,0,0,6.872,8.181,24.162,24.162,0,0,0,1.091,2.727,7.854,7.854,0,0,0-1.527,4.718,8.018,8.018,0,0,0,2.373,5.836,8.181,8.181,0,0,0,10.554.845A24.193,24.193,0,0,0,27.091,58.4a8.181,8.181,0,0,0,16.09,0,24.19,24.19,0,0,0,2.727-1.091A8.181,8.181,0,0,0,57.28,45.935a24.216,24.216,0,0,0,1.091-2.727A8.181,8.181,0,0,0,65,35ZM35,48.635A13.636,13.636,0,1,1,48.635,35,13.636,13.636,0,0,1,35,48.635Z" transform="translate(866 880)"/>
        <path id="Path_23" data-name="Path 23" d="M20.447,19.511H18.319a1.064,1.064,0,0,1,0-2.128h3.191a2.01,2.01,0,0,0,2.128-2.128,2.01,2.01,0,0,0-2.128-2.128A2.01,2.01,0,0,0,19.383,11a2.01,2.01,0,0,0-2.128,2.128v.213a5.261,5.261,0,0,0,1.064,10.426h2.128a1.064,1.064,0,0,1,0,2.128H17.255a2.128,2.128,0,0,0,0,4.255,2.01,2.01,0,0,0,2.128,2.128,2.01,2.01,0,0,0,2.128-2.128v-.213a5.261,5.261,0,0,0-1.064-10.426Z" transform="translate(50.404 901.006)"/>
        <path id="Path_24" data-name="Path 24" d="M60.723,24.16a2.306,2.306,0,0,0-2.34-1.7A6.146,6.146,0,0,1,52,19.266a6.466,6.466,0,0,1,.426-7.021,1.989,1.989,0,0,0-.213-2.766A29.069,29.069,0,0,0,40.3,2.671a2.171,2.171,0,0,0-2.553,1.277,6.548,6.548,0,0,1-11.915,0,1.982,1.982,0,0,0-2.553-1.277A27.308,27.308,0,0,0,11.362,9.692a1.989,1.989,0,0,0-.213,2.766,6.49,6.49,0,0,1,.426,7.021,6.871,6.871,0,0,1-6.383,3.191,2.108,2.108,0,0,0-2.34,1.7A23.905,23.905,0,0,0,2,31.181,26.431,26.431,0,0,0,2.851,38.2a1.96,1.96,0,0,0,2.34,1.489,6.146,6.146,0,0,1,6.383,3.191,6.466,6.466,0,0,1-.426,7.021,1.989,1.989,0,0,0,.213,2.766,30.3,30.3,0,0,0,12.128,7.021,2.171,2.171,0,0,0,2.553-1.277,6.548,6.548,0,0,1,11.915,0,2.045,2.045,0,0,0,1.915,1.277h.638a30.3,30.3,0,0,0,12.128-7.021,2,2,0,0,0,.213-2.766,6.49,6.49,0,0,1-.426-7.021,6.871,6.871,0,0,1,6.383-3.191,2.108,2.108,0,0,0,2.34-1.7A26.431,26.431,0,0,0,62,30.969,25.609,25.609,0,0,0,60.723,24.16ZM31.787,48.2A17.021,17.021,0,1,1,48.809,31.181,17.071,17.071,0,0,1,31.787,48.2Z" transform="translate(38 891.463)"/>
        <path id="Path_23-2" data-name="Path 23" d="M20.447,19.511H18.319a1.064,1.064,0,0,1,0-2.128h3.191a2.01,2.01,0,0,0,2.128-2.128,2.01,2.01,0,0,0-2.128-2.128A2.01,2.01,0,0,0,19.383,11a2.01,2.01,0,0,0-2.128,2.128v.213a5.261,5.261,0,0,0,1.064,10.426h2.128a1.064,1.064,0,0,1,0,2.128H17.255a2.128,2.128,0,0,0,0,4.255,2.01,2.01,0,0,0,2.128,2.128,2.01,2.01,0,0,0,2.128-2.128v-.213a5.261,5.261,0,0,0-1.064-10.426Z" transform="translate(927.404 916.006)"/>
        <path id="Path_24-2" data-name="Path 24" d="M60.723,24.16a2.306,2.306,0,0,0-2.34-1.7A6.146,6.146,0,0,1,52,19.266a6.466,6.466,0,0,1,.426-7.021,1.989,1.989,0,0,0-.213-2.766A29.069,29.069,0,0,0,40.3,2.671a2.171,2.171,0,0,0-2.553,1.277,6.548,6.548,0,0,1-11.915,0,1.982,1.982,0,0,0-2.553-1.277A27.308,27.308,0,0,0,11.362,9.692a1.989,1.989,0,0,0-.213,2.766,6.49,6.49,0,0,1,.426,7.021,6.871,6.871,0,0,1-6.383,3.191,2.108,2.108,0,0,0-2.34,1.7A23.905,23.905,0,0,0,2,31.181,26.431,26.431,0,0,0,2.851,38.2a1.96,1.96,0,0,0,2.34,1.489,6.146,6.146,0,0,1,6.383,3.191,6.466,6.466,0,0,1-.426,7.021,1.989,1.989,0,0,0,.213,2.766,30.3,30.3,0,0,0,12.128,7.021,2.171,2.171,0,0,0,2.553-1.277,6.548,6.548,0,0,1,11.915,0,2.045,2.045,0,0,0,1.915,1.277h.638a30.3,30.3,0,0,0,12.128-7.021,2,2,0,0,0,.213-2.766,6.49,6.49,0,0,1-.426-7.021,6.871,6.871,0,0,1,6.383-3.191,2.108,2.108,0,0,0,2.34-1.7A26.431,26.431,0,0,0,62,30.969,25.609,25.609,0,0,0,60.723,24.16ZM31.787,48.2A17.021,17.021,0,1,1,48.809,31.181,17.071,17.071,0,0,1,31.787,48.2Z" transform="translate(915 906.463)"/>
        <path id="iconfinder_Configure_Gear_Setting_Cog_Gear_4265049" d="M52.3,25.475a23.289,23.289,0,0,0-5.213-9.015l1.669-7.547A29.96,29.96,0,0,0,40.912,4.38L35.212,9.6A23.242,23.242,0,0,0,24.8,9.6L19.1,4.38a29.96,29.96,0,0,0-7.843,4.533l1.669,7.543a23.289,23.289,0,0,0-5.213,9.019L.344,27.819a30.278,30.278,0,0,0,0,9.057l7.364,2.344A23.294,23.294,0,0,0,12.921,48.2l-1.669,7.543A29.96,29.96,0,0,0,19.1,60.277l5.7-5.217a23.242,23.242,0,0,0,10.412,0l5.7,5.217a29.955,29.955,0,0,0,7.847-4.533L47.086,48.2A23.289,23.289,0,0,0,52.3,39.187l7.364-2.344a30.283,30.283,0,0,0,0-9.057ZM30,42.956A10.627,10.627,0,1,1,40.631,32.328,10.627,10.627,0,0,1,30,42.956Z" transform="translate(86.996 902.62)"/>
        <path id="iconfinder_Configure_Gear_Setting_Cog_Gear_4265049-2" data-name="iconfinder_Configure_Gear_Setting_Cog_Gear_4265049" d="M52.3,25.475a23.289,23.289,0,0,0-5.213-9.015l1.669-7.547A29.96,29.96,0,0,0,40.912,4.38L35.212,9.6A23.242,23.242,0,0,0,24.8,9.6L19.1,4.38a29.96,29.96,0,0,0-7.843,4.533l1.669,7.543a23.289,23.289,0,0,0-5.213,9.019L.344,27.819a30.278,30.278,0,0,0,0,9.057l7.364,2.344A23.294,23.294,0,0,0,12.921,48.2l-1.669,7.543A29.96,29.96,0,0,0,19.1,60.277l5.7-5.217a23.242,23.242,0,0,0,10.412,0l5.7,5.217a29.955,29.955,0,0,0,7.847-4.533L47.086,48.2A23.289,23.289,0,0,0,52.3,39.187l7.364-2.344a30.283,30.283,0,0,0,0-9.057ZM30,42.956A10.627,10.627,0,1,1,40.631,32.328,10.627,10.627,0,0,1,30,42.956Z" transform="translate(961.997 877.62)"/>
        <path id="iconfinder_Construction_gear_cog_engineering_engine_machine_6588807" d="M60.614,35.658c-2.615-.872-4.358-2.179-4.358-3.486S58,29.339,60.614,28.686a2.366,2.366,0,0,0,1.525-2.615A27.413,27.413,0,0,0,57.564,15.4a2.075,2.075,0,0,0-2.832-.654c-2.4,1.307-4.793,1.525-5.665.654s-.654-3.268.654-5.665A2.309,2.309,0,0,0,49.066,6.9,33,33,0,0,0,38.39,2.323a2.366,2.366,0,0,0-2.615,1.525C34.9,6.462,33.6,8.205,32.29,8.205S29.457,6.462,28.8,3.848a2.366,2.366,0,0,0-2.615-1.525A27.413,27.413,0,0,0,15.513,6.9a1.894,1.894,0,0,0-.872,2.615c1.307,2.4,1.525,4.793.654,5.665s-3.05.654-5.665-.654a2.309,2.309,0,0,0-2.832.654A33,33,0,0,0,2.223,25.853a2.366,2.366,0,0,0,1.525,2.615c2.615.872,4.358,2.179,4.358,3.486S6.362,34.786,3.748,35.44a2.366,2.366,0,0,0-1.525,2.615A27.413,27.413,0,0,0,6.8,48.731a2.075,2.075,0,0,0,2.832.654c2.4-1.307,4.793-1.525,5.665-.654S15.949,52,14.642,54.4a2.309,2.309,0,0,0,.654,2.832A33,33,0,0,0,25.971,61.8a2.366,2.366,0,0,0,2.615-1.525c.872-2.615,2.179-4.358,3.486-4.358s2.832,1.743,3.486,4.358A2.164,2.164,0,0,0,37.737,61.8h.436a27.413,27.413,0,0,0,10.676-4.575A2.075,2.075,0,0,0,49.5,54.4c-1.307-2.4-1.525-4.793-.654-5.665s3.268-.654,5.665.654a2.309,2.309,0,0,0,2.832-.654,33,33,0,0,0,4.575-10.676A1.885,1.885,0,0,0,60.614,35.658ZM32.29,47.423A15.251,15.251,0,1,1,47.541,32.172,15.158,15.158,0,0,1,32.29,47.423Z" transform="translate(137.819 891.719)"/>
        <path id="iconfinder_Construction_gear_cog_engineering_engine_machine_6588807-2" data-name="iconfinder_Construction_gear_cog_engineering_engine_machine_6588807" d="M60.614,35.658c-2.615-.872-4.358-2.179-4.358-3.486S58,29.339,60.614,28.686a2.366,2.366,0,0,0,1.525-2.615A27.413,27.413,0,0,0,57.564,15.4a2.075,2.075,0,0,0-2.832-.654c-2.4,1.307-4.793,1.525-5.665.654s-.654-3.268.654-5.665A2.309,2.309,0,0,0,49.066,6.9,33,33,0,0,0,38.39,2.323a2.366,2.366,0,0,0-2.615,1.525C34.9,6.462,33.6,8.205,32.29,8.205S29.457,6.462,28.8,3.848a2.366,2.366,0,0,0-2.615-1.525A27.413,27.413,0,0,0,15.513,6.9a1.894,1.894,0,0,0-.872,2.615c1.307,2.4,1.525,4.793.654,5.665s-3.05.654-5.665-.654a2.309,2.309,0,0,0-2.832.654A33,33,0,0,0,2.223,25.853a2.366,2.366,0,0,0,1.525,2.615c2.615.872,4.358,2.179,4.358,3.486S6.362,34.786,3.748,35.44a2.366,2.366,0,0,0-1.525,2.615A27.413,27.413,0,0,0,6.8,48.731a2.075,2.075,0,0,0,2.832.654c2.4-1.307,4.793-1.525,5.665-.654S15.949,52,14.642,54.4a2.309,2.309,0,0,0,.654,2.832A33,33,0,0,0,25.971,61.8a2.366,2.366,0,0,0,2.615-1.525c.872-2.615,2.179-4.358,3.486-4.358s2.832,1.743,3.486,4.358A2.164,2.164,0,0,0,37.737,61.8h.436a27.413,27.413,0,0,0,10.676-4.575A2.075,2.075,0,0,0,49.5,54.4c-1.307-2.4-1.525-4.793-.654-5.665s3.268-.654,5.665.654a2.309,2.309,0,0,0,2.832-.654,33,33,0,0,0,4.575-10.676A1.885,1.885,0,0,0,60.614,35.658ZM32.29,47.423A15.251,15.251,0,1,1,47.541,32.172,15.158,15.158,0,0,1,32.29,47.423Z" transform="translate(1005.819 902.719)"/>
        <path id="Path_25" data-name="Path 25" d="M22,16a6,6,0,1,1-6-6A6,6,0,0,1,22,16Z" transform="translate(192 933)"/>
        <path id="Path_26" data-name="Path 26" d="M28,10A18,18,0,1,0,46,28,18,18,0,0,0,28,10ZM4,28A24,24,0,1,1,28,52,24,24,0,0,1,4,28Z" transform="translate(180 921)" fill-rule="evenodd"/>
        <path id="Path_27" data-name="Path 27" d="M4.733,11.688a3,3,0,0,1,.32-3.865l2.77-2.77a3,3,0,0,1,3.865-.32L17.045,8.56,8.559,17.045Z" transform="translate(180.349 921.349)"/>
        <path id="Path_28" data-name="Path 28" d="M27.847,20.892a3,3,0,0,1-.32,3.865l-2.77,2.77a3,3,0,0,1-3.865.32l-5.357-3.826,8.485-8.485Z" transform="translate(203.071 944.071)"/>
        <path id="Path_29" data-name="Path 29" d="M20.892,4.733a3,3,0,0,1,3.865.32l2.77,2.77a3,3,0,0,1,.32,3.865l-3.826,5.357L15.535,8.559Z" transform="translate(203.071 921.349)"/>
        <path id="Path_30" data-name="Path 30" d="M11.688,27.847a3,3,0,0,1-3.865-.32l-2.77-2.77a3,3,0,0,1-.32-3.865l3.826-5.357,8.485,8.486Z" transform="translate(180.349 944.071)"/>
        <path id="Path_31" data-name="Path 31" d="M25.493,11.082A3,3,0,0,1,28,14.041v3.917a3,3,0,0,1-2.507,2.959L19,22V10Z" transform="translate(210 933)"/>
        <path id="Path_32" data-name="Path 32" d="M4.507,20.918A3,3,0,0,1,2,17.959V14.041a3,3,0,0,1,2.507-2.959L11,10V22Z" transform="translate(176 933)"/>
        <path id="Path_33" data-name="Path 33" d="M11.082,4.507A3,3,0,0,1,14.041,2h3.917a3,3,0,0,1,2.959,2.507L22,11H10Z" transform="translate(192 917)"/>
        <path id="Path_34" data-name="Path 34" d="M20.918,25.493A3,3,0,0,1,17.959,28H14.041a3,3,0,0,1-2.959-2.507L10,19H22Z" transform="translate(192 951)"/>
        <path id="Path_25-2" data-name="Path 25" d="M22,16a6,6,0,1,1-6-6A6,6,0,0,1,22,16Z" transform="translate(1067 897)"/>
        <path id="Path_26-2" data-name="Path 26" d="M28,10A18,18,0,1,0,46,28,18,18,0,0,0,28,10ZM4,28A24,24,0,1,1,28,52,24,24,0,0,1,4,28Z" transform="translate(1055 885)" fill-rule="evenodd"/>
        <path id="Path_27-2" data-name="Path 27" d="M4.733,11.688a3,3,0,0,1,.32-3.865l2.77-2.77a3,3,0,0,1,3.865-.32L17.045,8.56,8.559,17.045Z" transform="translate(1055.349 885.349)"/>
        <path id="Path_28-2" data-name="Path 28" d="M27.847,20.892a3,3,0,0,1-.32,3.865l-2.77,2.77a3,3,0,0,1-3.865.32l-5.357-3.826,8.485-8.485Z" transform="translate(1078.071 908.071)"/>
        <path id="Path_29-2" data-name="Path 29" d="M20.892,4.733a3,3,0,0,1,3.865.32l2.77,2.77a3,3,0,0,1,.32,3.865l-3.826,5.357L15.535,8.559Z" transform="translate(1078.071 885.349)"/>
        <path id="Path_30-2" data-name="Path 30" d="M11.688,27.847a3,3,0,0,1-3.865-.32l-2.77-2.77a3,3,0,0,1-.32-3.865l3.826-5.357,8.485,8.486Z" transform="translate(1055.349 908.071)"/>
        <path id="Path_31-2" data-name="Path 31" d="M25.493,11.082A3,3,0,0,1,28,14.041v3.917a3,3,0,0,1-2.507,2.959L19,22V10Z" transform="translate(1085 897)"/>
        <path id="Path_32-2" data-name="Path 32" d="M4.507,20.918A3,3,0,0,1,2,17.959V14.041a3,3,0,0,1,2.507-2.959L11,10V22Z" transform="translate(1051 897)"/>
        <path id="Path_33-2" data-name="Path 33" d="M11.082,4.507A3,3,0,0,1,14.041,2h3.917a3,3,0,0,1,2.959,2.507L22,11H10Z" transform="translate(1067 881)"/>
        <path id="Path_34-2" data-name="Path 34" d="M20.918,25.493A3,3,0,0,1,17.959,28H14.041a3,3,0,0,1-2.959-2.507L10,19H22Z" transform="translate(1067 915)"/>
        <path id="Path_35" data-name="Path 35" d="M103.49,77.342v-7.7l-7.344-1.383a23.123,23.123,0,0,0-2.936-7.081L97.427,55,91.98,49.553,85.807,53.77a23.109,23.109,0,0,0-7.081-2.936L77.342,43.49h-7.7l-1.383,7.344a23.124,23.124,0,0,0-7.081,2.936L55,49.553,49.553,55l4.217,6.174a23.109,23.109,0,0,0-2.936,7.081L43.49,69.638v7.7l7.344,1.383a23.124,23.124,0,0,0,2.936,7.081L49.553,91.98,55,97.427l6.174-4.217a23.109,23.109,0,0,0,7.081,2.936l1.383,7.344h7.7l1.383-7.344a23.123,23.123,0,0,0,7.081-2.936l6.174,4.217,5.446-5.446L93.21,85.807a23.109,23.109,0,0,0,2.936-7.081Zm-30,9.1A12.951,12.951,0,1,1,86.442,73.491,12.951,12.951,0,0,1,73.491,86.442Z" transform="translate(175.51 849.51)"/>
        <path id="Path_35-2" data-name="Path 35" d="M103.49,77.342v-7.7l-7.344-1.383a23.123,23.123,0,0,0-2.936-7.081L97.427,55,91.98,49.553,85.807,53.77a23.109,23.109,0,0,0-7.081-2.936L77.342,43.49h-7.7l-1.383,7.344a23.124,23.124,0,0,0-7.081,2.936L55,49.553,49.553,55l4.217,6.174a23.109,23.109,0,0,0-2.936,7.081L43.49,69.638v7.7l7.344,1.383a23.124,23.124,0,0,0,2.936,7.081L49.553,91.98,55,97.427l6.174-4.217a23.109,23.109,0,0,0,7.081,2.936l1.383,7.344h7.7l1.383-7.344a23.123,23.123,0,0,0,7.081-2.936l6.174,4.217,5.446-5.446L93.21,85.807a23.109,23.109,0,0,0,2.936-7.081Zm-30,9.1A12.951,12.951,0,1,1,86.442,73.491,12.951,12.951,0,0,1,73.491,86.442Z" transform="translate(1055.51 849.51)"/>
        <path id="iconfinder_UI_Essentials_settings_cog_gear_6646388" d="M60.723,24.16a2.306,2.306,0,0,0-2.34-1.7A6.146,6.146,0,0,1,52,19.266a6.466,6.466,0,0,1,.426-7.021,1.989,1.989,0,0,0-.213-2.766A29.069,29.069,0,0,0,40.3,2.671a2.171,2.171,0,0,0-2.553,1.277,6.548,6.548,0,0,1-11.915,0,1.982,1.982,0,0,0-2.553-1.277A27.308,27.308,0,0,0,11.362,9.692a1.989,1.989,0,0,0-.213,2.766,6.49,6.49,0,0,1,.426,7.021,6.871,6.871,0,0,1-6.383,3.191,2.108,2.108,0,0,0-2.34,1.7A23.905,23.905,0,0,0,2,31.181,26.431,26.431,0,0,0,2.851,38.2a1.96,1.96,0,0,0,2.34,1.489,6.146,6.146,0,0,1,6.383,3.191,6.466,6.466,0,0,1-.426,7.021,1.989,1.989,0,0,0,.213,2.766,30.3,30.3,0,0,0,12.128,7.021,2.171,2.171,0,0,0,2.553-1.277,6.548,6.548,0,0,1,11.915,0,2.045,2.045,0,0,0,1.915,1.277h.638a30.3,30.3,0,0,0,12.128-7.021,2,2,0,0,0,.213-2.766,6.49,6.49,0,0,1-.426-7.021,6.871,6.871,0,0,1,6.383-3.191,2.108,2.108,0,0,0,2.34-1.7A26.431,26.431,0,0,0,62,30.969,25.609,25.609,0,0,0,60.723,24.16ZM31.787,39.692A8.511,8.511,0,1,1,40.3,31.181,8.536,8.536,0,0,1,31.787,39.692Z" transform="translate(267 886.463)"/>
        <path id="iconfinder_UI_Essentials_settings_cog_gear_6646388-2" data-name="iconfinder_UI_Essentials_settings_cog_gear_6646388" d="M60.723,24.16a2.306,2.306,0,0,0-2.34-1.7A6.146,6.146,0,0,1,52,19.266a6.466,6.466,0,0,1,.426-7.021,1.989,1.989,0,0,0-.213-2.766A29.069,29.069,0,0,0,40.3,2.671a2.171,2.171,0,0,0-2.553,1.277,6.548,6.548,0,0,1-11.915,0,1.982,1.982,0,0,0-2.553-1.277A27.308,27.308,0,0,0,11.362,9.692a1.989,1.989,0,0,0-.213,2.766,6.49,6.49,0,0,1,.426,7.021,6.871,6.871,0,0,1-6.383,3.191,2.108,2.108,0,0,0-2.34,1.7A23.905,23.905,0,0,0,2,31.181,26.431,26.431,0,0,0,2.851,38.2a1.96,1.96,0,0,0,2.34,1.489,6.146,6.146,0,0,1,6.383,3.191,6.466,6.466,0,0,1-.426,7.021,1.989,1.989,0,0,0,.213,2.766,30.3,30.3,0,0,0,12.128,7.021,2.171,2.171,0,0,0,2.553-1.277,6.548,6.548,0,0,1,11.915,0,2.045,2.045,0,0,0,1.915,1.277h.638a30.3,30.3,0,0,0,12.128-7.021,2,2,0,0,0,.213-2.766,6.49,6.49,0,0,1-.426-7.021,6.871,6.871,0,0,1,6.383-3.191,2.108,2.108,0,0,0,2.34-1.7A26.431,26.431,0,0,0,62,30.969,25.609,25.609,0,0,0,60.723,24.16ZM31.787,39.692A8.511,8.511,0,1,1,40.3,31.181,8.536,8.536,0,0,1,31.787,39.692Z" transform="translate(1142 879.463)"/>
        <path id="editor-setting-gear-glyph" d="M419.185,454.7v-7.975A2.717,2.717,0,0,1,421.911,444h8.178a2.718,2.718,0,0,1,2.725,2.723v7.986a20.307,20.307,0,0,1,2.005.834l5.649-5.649a2.717,2.717,0,0,1,3.853,0l5.783,5.783a2.717,2.717,0,0,1,0,3.853l-5.66,5.66a20.338,20.338,0,0,1,.824,1.994h8.006A2.717,2.717,0,0,1,456,469.911v8.179a2.718,2.718,0,0,1-2.723,2.725h-8.017a20.31,20.31,0,0,1-.823,1.984l5.67,5.67a2.717,2.717,0,0,1,0,3.853l-5.783,5.783a2.718,2.718,0,0,1-3.853,0l-5.67-5.67a20.3,20.3,0,0,1-1.984.823v8.017A2.717,2.717,0,0,1,430.089,504h-8.178a2.717,2.717,0,0,1-2.725-2.723v-8.006a20.338,20.338,0,0,1-1.994-.824l-5.66,5.66a2.717,2.717,0,0,1-3.853,0l-5.783-5.783a2.718,2.718,0,0,1,0-3.853l5.649-5.649a20.287,20.287,0,0,1-.834-2.005h-7.986A2.717,2.717,0,0,1,396,478.089v-8.179a2.717,2.717,0,0,1,2.723-2.725H406.7a20.33,20.33,0,0,1,.835-2.015l-5.639-5.639a2.717,2.717,0,0,1,0-3.853l5.783-5.783a2.718,2.718,0,0,1,3.853,0l5.639,5.639a20.289,20.289,0,0,1,2.015-.835Zm20.428,19.286a13.629,13.629,0,1,0-13.629,13.629A13.629,13.629,0,0,0,439.614,473.984Z" transform="translate(-81 467)" fill-rule="evenodd"/>
        <path id="editor-setting-gear-glyph-2" data-name="editor-setting-gear-glyph" d="M419.185,454.7v-7.975A2.717,2.717,0,0,1,421.911,444h8.178a2.718,2.718,0,0,1,2.725,2.723v7.986a20.307,20.307,0,0,1,2.005.834l5.649-5.649a2.717,2.717,0,0,1,3.853,0l5.783,5.783a2.717,2.717,0,0,1,0,3.853l-5.66,5.66a20.338,20.338,0,0,1,.824,1.994h8.006A2.717,2.717,0,0,1,456,469.911v8.179a2.718,2.718,0,0,1-2.723,2.725h-8.017a20.31,20.31,0,0,1-.823,1.984l5.67,5.67a2.717,2.717,0,0,1,0,3.853l-5.783,5.783a2.718,2.718,0,0,1-3.853,0l-5.67-5.67a20.3,20.3,0,0,1-1.984.823v8.017A2.717,2.717,0,0,1,430.089,504h-8.178a2.717,2.717,0,0,1-2.725-2.723v-8.006a20.338,20.338,0,0,1-1.994-.824l-5.66,5.66a2.717,2.717,0,0,1-3.853,0l-5.783-5.783a2.718,2.718,0,0,1,0-3.853l5.649-5.649a20.287,20.287,0,0,1-.834-2.005h-7.986A2.717,2.717,0,0,1,396,478.089v-8.179a2.717,2.717,0,0,1,2.723-2.725H406.7a20.33,20.33,0,0,1,.835-2.015l-5.639-5.639a2.717,2.717,0,0,1,0-3.853l5.783-5.783a2.718,2.718,0,0,1,3.853,0l5.639,5.639a20.289,20.289,0,0,1,2.015-.835Zm20.428,19.286a13.629,13.629,0,1,0-13.629,13.629A13.629,13.629,0,0,0,439.614,473.984Z" transform="translate(794 450)" fill-rule="evenodd"/>
        <path id="gear" d="M317.375,344A5.625,5.625,0,1,0,323,338.377,5.626,5.626,0,0,0,317.375,344Zm-20.625-5.625a3.748,3.748,0,0,0-3.75,3.75v3.75a3.752,3.752,0,0,0,3.75,3.752h5.315a21.815,21.815,0,0,0,2.158,5.2l-3.765,3.757a3.755,3.755,0,0,0,0,5.3l2.652,2.652a3.753,3.753,0,0,0,5.307,0l3.76-3.762a21.37,21.37,0,0,0,5.2,2.155v5.318a3.751,3.751,0,0,0,3.75,3.75h3.75a3.749,3.749,0,0,0,3.75-3.75v-5.325a21.6,21.6,0,0,0,5.192-2.148l3.767,3.762a3.749,3.749,0,0,0,5.3,0l2.652-2.652a3.749,3.749,0,0,0,0-5.3l-3.762-3.77a21.551,21.551,0,0,0,2.148-5.185h5.325a3.754,3.754,0,0,0,3.75-3.752v-3.75a3.75,3.75,0,0,0-3.75-3.75h-5.318a21.647,21.647,0,0,0-2.155-5.2l3.762-3.762a3.749,3.749,0,0,0,0-5.3l-2.652-2.648a3.743,3.743,0,0,0-5.3,0l-3.757,3.76a21.682,21.682,0,0,0-5.2-2.157V317.75a3.748,3.748,0,0,0-3.75-3.75h-3.75a3.75,3.75,0,0,0-3.75,3.75v5.325a21.644,21.644,0,0,0-5.192,2.148l-3.767-3.76a3.747,3.747,0,0,0-5.307,0l-2.648,2.648a3.749,3.749,0,0,0,0,5.3l3.762,3.768a21.531,21.531,0,0,0-2.148,5.193ZM309.875,344A13.125,13.125,0,1,1,323,357.125,13.127,13.127,0,0,1,309.875,344Z" transform="translate(67 585)" fill-rule="evenodd"/>
        <path id="gear-2" data-name="gear" d="M317.375,344A5.625,5.625,0,1,0,323,338.377,5.626,5.626,0,0,0,317.375,344Zm-20.625-5.625a3.748,3.748,0,0,0-3.75,3.75v3.75a3.752,3.752,0,0,0,3.75,3.752h5.315a21.815,21.815,0,0,0,2.158,5.2l-3.765,3.757a3.755,3.755,0,0,0,0,5.3l2.652,2.652a3.753,3.753,0,0,0,5.307,0l3.76-3.762a21.37,21.37,0,0,0,5.2,2.155v5.318a3.751,3.751,0,0,0,3.75,3.75h3.75a3.749,3.749,0,0,0,3.75-3.75v-5.325a21.6,21.6,0,0,0,5.192-2.148l3.767,3.762a3.749,3.749,0,0,0,5.3,0l2.652-2.652a3.749,3.749,0,0,0,0-5.3l-3.762-3.77a21.551,21.551,0,0,0,2.148-5.185h5.325a3.754,3.754,0,0,0,3.75-3.752v-3.75a3.75,3.75,0,0,0-3.75-3.75h-5.318a21.647,21.647,0,0,0-2.155-5.2l3.762-3.762a3.749,3.749,0,0,0,0-5.3l-2.652-2.648a3.743,3.743,0,0,0-5.3,0l-3.757,3.76a21.682,21.682,0,0,0-5.2-2.157V317.75a3.748,3.748,0,0,0-3.75-3.75h-3.75a3.75,3.75,0,0,0-3.75,3.75v5.325a21.644,21.644,0,0,0-5.192,2.148l-3.767-3.76a3.747,3.747,0,0,0-5.307,0l-2.648,2.648a3.749,3.749,0,0,0,0,5.3l3.762,3.768a21.531,21.531,0,0,0-2.148,5.193ZM309.875,344A13.125,13.125,0,1,1,323,357.125,13.127,13.127,0,0,1,309.875,344Z" transform="translate(942 568)" fill-rule="evenodd"/>
        <path id="Path_36" data-name="Path 36" d="M62,37V27H55.2a23.371,23.371,0,0,0-3.263-7.863l4.813-4.812L49.675,7.25l-4.8,4.813A23.584,23.584,0,0,0,37,8.8V2H27V8.8a23.628,23.628,0,0,0-7.863,3.263L14.325,7.25,7.25,14.325l4.813,4.812A23.627,23.627,0,0,0,8.8,27H2V37H8.8a23.583,23.583,0,0,0,3.262,7.875L7.25,49.687l7.075,7.063,4.812-4.8A23.6,23.6,0,0,0,27,55.2V62H37V55.2a23.559,23.559,0,0,0,7.875-3.25l4.8,4.8,7.075-7.063-4.813-4.812A23.328,23.328,0,0,0,55.2,37ZM36.375,34.837V42h-8.75V34.837a6.991,6.991,0,0,1-3.125-5.75A7.307,7.307,0,0,1,32,22a7.307,7.307,0,0,1,7.5,7.087A6.96,6.96,0,0,1,36.375,34.837Z" transform="translate(404 909)"/>
        <path id="Path_36-2" data-name="Path 36" d="M62,37V27H55.2a23.371,23.371,0,0,0-3.263-7.863l4.813-4.812L49.675,7.25l-4.8,4.813A23.584,23.584,0,0,0,37,8.8V2H27V8.8a23.628,23.628,0,0,0-7.863,3.263L14.325,7.25,7.25,14.325l4.813,4.812A23.627,23.627,0,0,0,8.8,27H2V37H8.8a23.583,23.583,0,0,0,3.262,7.875L7.25,49.687l7.075,7.063,4.812-4.8A23.6,23.6,0,0,0,27,55.2V62H37V55.2a23.559,23.559,0,0,0,7.875-3.25l4.8,4.8,7.075-7.063-4.813-4.812A23.328,23.328,0,0,0,55.2,37ZM36.375,34.837V42h-8.75V34.837a6.991,6.991,0,0,1-3.125-5.75A7.307,7.307,0,0,1,32,22a7.307,7.307,0,0,1,7.5,7.087A6.96,6.96,0,0,1,36.375,34.837Z" transform="translate(1279 892)"/>
        <path id="Path_37" data-name="Path 37" d="M21.966,10a12,12,0,0,0-2,23.82V31.26a10.56,10.56,0,0,1-5-9.26,10.34,10.34,0,0,1,6.3-9.88,2.1,2.1,0,0,1,1.4,0,10.34,10.34,0,0,1,6.3,9.88,10.56,10.56,0,0,1-5,9.26v2.56a12,12,0,0,0-2-23.82Z" transform="translate(459.034 906)"/>
        <ellipse id="Ellipse_2" data-name="Ellipse 2" cx="3" cy="5.8" rx="3" ry="5.8" transform="translate(478 922.2)"/>
        <path id="Path_38" data-name="Path 38" d="M55,23H51.5l-.36-.84,2.48-2.48a6,6,0,0,0,0-8.48L50.8,8.38a6.12,6.12,0,0,0-8.48,0l-2.48,2.48L39,10.5V7a6,6,0,0,0-6-6H29a6,6,0,0,0-6,6v3.5l-.84.36L19.68,8.38a6.12,6.12,0,0,0-8.48,0L8.38,11.2a6,6,0,0,0,0,8.48l2.48,2.48L10.5,23H7a6,6,0,0,0-6,6v4a6,6,0,0,0,6,6h3.5l.36.84L8.38,42.32a6,6,0,0,0,0,8.48l2.82,2.82a6.12,6.12,0,0,0,8.48,0l2.48-2.48.84.36V55a6,6,0,0,0,6,6h4a6,6,0,0,0,6-6V51.5l.84-.36,2.48,2.48a6.12,6.12,0,0,0,8.48,0l2.82-2.82a6,6,0,0,0,0-8.48l-2.48-2.48L51.5,39H55a6,6,0,0,0,6-6V29a6,6,0,0,0-6-6ZM31,47A16,16,0,1,1,47,31,16,16,0,0,1,31,47Z" transform="translate(450 897)"/>
        <path id="Path_37-2" data-name="Path 37" d="M21.966,10a12,12,0,0,0-2,23.82V31.26a10.56,10.56,0,0,1-5-9.26,10.34,10.34,0,0,1,6.3-9.88,2.1,2.1,0,0,1,1.4,0,10.34,10.34,0,0,1,6.3,9.88,10.56,10.56,0,0,1-5,9.26v2.56a12,12,0,0,0-2-23.82Z" transform="translate(1334.034 889)"/>
        <ellipse id="Ellipse_2-2" data-name="Ellipse 2" cx="3" cy="5.8" rx="3" ry="5.8" transform="translate(1353 905.2)"/>
        <path id="Path_38-2" data-name="Path 38" d="M55,23H51.5l-.36-.84,2.48-2.48a6,6,0,0,0,0-8.48L50.8,8.38a6.12,6.12,0,0,0-8.48,0l-2.48,2.48L39,10.5V7a6,6,0,0,0-6-6H29a6,6,0,0,0-6,6v3.5l-.84.36L19.68,8.38a6.12,6.12,0,0,0-8.48,0L8.38,11.2a6,6,0,0,0,0,8.48l2.48,2.48L10.5,23H7a6,6,0,0,0-6,6v4a6,6,0,0,0,6,6h3.5l.36.84L8.38,42.32a6,6,0,0,0,0,8.48l2.82,2.82a6.12,6.12,0,0,0,8.48,0l2.48-2.48.84.36V55a6,6,0,0,0,6,6h4a6,6,0,0,0,6-6V51.5l.84-.36,2.48,2.48a6.12,6.12,0,0,0,8.48,0l2.82-2.82a6,6,0,0,0,0-8.48l-2.48-2.48L51.5,39H55a6,6,0,0,0,6-6V29a6,6,0,0,0-6-6ZM31,47A16,16,0,1,1,47,31,16,16,0,0,1,31,47Z" transform="translate(1325 880)"/>
        <path id="Path_39" data-name="Path 39" d="M52.558,38.416A8.3,8.3,0,0,0,60,30a8.3,8.3,0,0,0-7.434-8.419A.985.985,0,0,1,51.9,20a8.289,8.289,0,0,0-.7-11.209A8.289,8.289,0,0,0,40,8.092a.97.97,0,0,1-.981.132.939.939,0,0,1-.6-.787A8.3,8.3,0,0,0,30,0a8.3,8.3,0,0,0-8.419,7.434.939.939,0,0,1-.6.791A.921.921,0,0,1,20,8.092a8.289,8.289,0,0,0-11.209.7A8.289,8.289,0,0,0,8.092,20a.986.986,0,0,1-.656,1.582A8.3,8.3,0,0,0,0,30a8.3,8.3,0,0,0,7.434,8.419A.985.985,0,0,1,8.092,40a8.289,8.289,0,0,0,.7,11.209A8.289,8.289,0,0,0,20,51.9a.986.986,0,0,1,1.582.656A8.3,8.3,0,0,0,30,60a8.3,8.3,0,0,0,8.419-7.434.939.939,0,0,1,.6-.791A.967.967,0,0,1,40,51.9,8.483,8.483,0,0,0,51.9,40a.986.986,0,0,1,.656-1.582Zm-.923-7.441a8.483,8.483,0,0,0-5.65,13.63A.984.984,0,0,1,44.6,45.985a8.483,8.483,0,0,0-13.63,5.65.986.986,0,0,1-1.956,0,8.39,8.39,0,0,0-5.171-6.793,8.513,8.513,0,0,0-3.274-.659,8.419,8.419,0,0,0-5.185,1.8.855.855,0,0,1-1.3-.081.86.86,0,0,1-.081-1.3,8.483,8.483,0,0,0-5.65-13.63.986.986,0,0,1,0-1.956,8.483,8.483,0,0,0,5.65-13.63.86.86,0,0,1,.081-1.3.861.861,0,0,1,1.3-.081,8.483,8.483,0,0,0,13.63-5.65.986.986,0,0,1,1.956,0,8.483,8.483,0,0,0,13.63,5.65.86.86,0,0,1,1.3.081.86.86,0,0,1,.081,1.3,8.483,8.483,0,0,0,5.65,13.63.986.986,0,0,1,0,1.956Z" transform="translate(497.003 911.003)"/>
        <path id="Path_40" data-name="Path 40" d="M43.5,36A7.5,7.5,0,1,0,51,43.5,7.5,7.5,0,0,0,43.5,36Z" transform="translate(483.5 897.5)"/>
        <circle id="Ellipse_3" data-name="Ellipse 3" cx="3.557" cy="3.557" r="3.557" transform="translate(573.443 933.795)"/>
        <path id="Path_41" data-name="Path 41" d="M136.125,152.249A16.125,16.125,0,1,0,120,136.125,16.143,16.143,0,0,0,136.125,152.249Zm0-23.239a7.114,7.114,0,1,1-7.114,7.114A7.122,7.122,0,0,1,136.125,129.011Z" transform="translate(440.875 801.228)"/>
        <path id="Path_42" data-name="Path 42" d="M59.767,30.352c0-.581-.019-1.168-.057-1.754l3.262-2.985-.189-.977a30.63,30.63,0,0,0-2.334-7.182l-.422-.9-4.392-.5a26.994,26.994,0,0,0-2.064-2.836l.884-4.334-.727-.68a30.631,30.631,0,0,0-6.11-4.439l-.871-.481L42.908,5.462a26.69,26.69,0,0,0-3.343-1.085L37.736.356,36.748.234a30.624,30.624,0,0,0-7.552,0l-.988.122-1.829,4.02a26.716,26.716,0,0,0-3.343,1.085L19.195,3.285l-.871.481a30.627,30.627,0,0,0-6.11,4.439l-.727.68.884,4.334a26.94,26.94,0,0,0-2.064,2.836l-4.392.5-.422.9a30.618,30.618,0,0,0-2.334,7.183l-.189.977L6.234,28.6c-.038.586-.057,1.173-.057,1.754s.019,1.168.057,1.754L2.972,35.091l.189.977a30.622,30.622,0,0,0,2.334,7.183l.422.9,4.392.5a26.956,26.956,0,0,0,2.064,2.836l-.884,4.334.727.68a30.631,30.631,0,0,0,6.11,4.439l.871.481,3.842-2.177a26.7,26.7,0,0,0,3.343,1.085l1.829,4.02.988.123a30.61,30.61,0,0,0,7.552,0l.988-.123,1.829-4.02a26.7,26.7,0,0,0,3.343-1.085l3.842,2.177.871-.481A30.627,30.627,0,0,0,53.73,52.5l.727-.68-.884-4.334a26.976,26.976,0,0,0,2.064-2.836l4.392-.5.422-.9a30.635,30.635,0,0,0,2.334-7.182l.189-.977L59.71,32.106c.038-.586.057-1.173.057-1.754Zm-46.477,0A19.682,19.682,0,1,1,32.972,50.034,19.7,19.7,0,0,1,13.29,30.352Z" transform="translate(544.028 907)"/>
        <path id="Icon_filled" data-name="Icon filled" d="M118.547,45.134l.688-.351c.232-.15.464-.307.7-.449-.172-.568-.374-1.121-.568-1.682l-.075-.224q-.882-2.572-1.981-5.039l-.164-.366q-.628-1.4-1.338-2.774l-.284-.583q-.374-.71-.748-1.413c-.179-.329-.374-.65-.561-.972s-.314-.553-.486-.83c-.434-.748-.875-1.413-1.331-2.1l-.179-.277c-.434-.65-.882-1.293-1.346-1.921l-.269-.381q-.718-.935-1.465-1.824l-.254-.321c-.217-.277-.434-.561-.658-.83h0c-.314-.381-.621-.748-.949-1.136l-.075-.09a22.84,22.84,0,0,1-21.516.187A22.832,22.832,0,0,1,75.006,2.408c0-.164,0-.321,0-.486h-.045A62.837,62.837,0,0,0,59.979.09H58.79c-.8,0-1.607.045-2.4.09s-1.66.112-2.5.194l-.964.1q-1.009.15-2,.292L49.654.965l-.568.09h-.112c-.688.12-1.368.232-2.056.381h-.075a22.825,22.825,0,0,1-11.05,18.952,22.945,22.945,0,0,1-3.536,1.727,22.855,22.855,0,0,1-6.108.83,22.743,22.743,0,0,1-11.715-3.23l-.045.052c-.374.4-.748.815-1.1,1.226h-.045l-.112.127a62.292,62.292,0,0,0-6.676,9.009l-.142.239c-.486.807-.949,1.622-1.406,2.452l-.277.5c-.4.748-.748,1.5-1.129,2.243-.12.254-.254.508-.374.748-.314.665-.6,1.346-.89,2.034-.142.336-.3.665-.434,1-.262.635-.493,1.293-.748,1.936-.127.359-.277.7-.4,1.062v.075A22.922,22.922,0,0,1,9.985,54.442h0a22.855,22.855,0,0,1-10,26.653H-.07l.052.172h0l.052.157v.1q.419,1.338.9,2.654L1.1,84.5c.314.86.658,1.712,1.009,2.557l.224.516c.366.852.748,1.7,1.151,2.542v.067c.411.845.845,1.682,1.293,2.512l.164.314c.4.748.815,1.5,1.249,2.183l.187.3.209.336q.673,1.092,1.391,2.153l.411.583q.658.89,1.308,1.742l.628.822q.568.748,1.159,1.45l.359.449h0c.277.336.553.673.837,1l.1.12a22.787,22.787,0,0,1,16.8-2.011A22.84,22.84,0,0,1,44.69,123.611v.06h0a62.837,62.837,0,0,0,15.274,1.884h.912c.867,0,1.742-.045,2.609-.1l1.1-.075,1.5-.127q.92-.09,1.839-.2l.65-.09c.748-.1,1.5-.217,2.28-.351H71c.688-.12,1.376-.239,2.063-.389v-.067a22.825,22.825,0,0,1,11.05-18.885,22.6,22.6,0,0,1,3.14-1.555A22.884,22.884,0,0,1,105.5,105.96c.4-.419.748-.852,1.151-1.278h.052a62.523,62.523,0,0,0,11.424-18.406c.217-.538.411-1.084.613-1.622.135-.374.284-.748.419-1.106h0a22.855,22.855,0,0,1-.613-38.413Z" transform="translate(609.07 874.91)"/>
        <path id="XMLID_273_2" data-name="XMLID_273_" d="M59.516,38.928l-1.211-.7a4.605,4.605,0,0,1,0-7.977l1.211-.7a6.905,6.905,0,0,0,2.529-9.437l-2.3-3.989A6.916,6.916,0,0,0,50.3,13.6l-1.211.7a4.606,4.606,0,0,1-6.908-3.989v-1.4A6.917,6.917,0,0,0,35.276,2H30.67a6.917,6.917,0,0,0-6.908,6.908v1.4A4.606,4.606,0,0,1,16.853,14.3l-1.211-.7A6.919,6.919,0,0,0,6.2,16.126L3.9,20.114a6.9,6.9,0,0,0,2.529,9.437l1.214.7a4.605,4.605,0,0,1,0,7.977l-1.211.7A6.9,6.9,0,0,0,3.9,48.365l2.3,3.989a6.917,6.917,0,0,0,9.437,2.529l1.211-.7a4.606,4.606,0,0,1,6.908,3.989v1.4a6.917,6.917,0,0,0,6.908,6.908h4.606a6.917,6.917,0,0,0,6.908-6.908v-1.4a4.606,4.606,0,0,1,6.908-3.989l1.211.7a6.92,6.92,0,0,0,9.437-2.529l2.3-3.989A6.9,6.9,0,0,0,59.516,38.928ZM32.973,45.754A11.514,11.514,0,1,1,44.487,34.24,11.527,11.527,0,0,1,32.973,45.754Z" transform="translate(-132.972 901)"/>
        <path id="Path_13-2" data-name="Path 13" d="M224.918,413.939l-.048,0a24.452,24.452,0,0,1-4.87-.63v6.942h11.187V413.3a23.968,23.968,0,0,1-5.615.645C225.341,413.949,225.147,413.945,224.918,413.939Z" transform="translate(-280.593 537.521)"/>
        <path id="Path_14-2" data-name="Path 14" d="M72.04,309.723q-.449-.662-.86-1.343l-.013-.023a27.659,27.659,0,0,1-2.278-5.205l-5.976,3.44,5.652,9.831,5.993-3.492q-.488-.54-.947-1.1A25.256,25.256,0,0,1,72.04,309.723Z" transform="translate(-147.912 630.559)"/>
        <path id="Path_15-2" data-name="Path 15" d="M71.163,131.5l.008-.014a26.869,26.869,0,0,1,3.381-4.56l-5.993-3.492-5.651,9.782,5.978,3.484A27.662,27.662,0,0,1,71.163,131.5Z" transform="translate(-147.908 782.357)"/>
        <path id="Path_16-2" data-name="Path 16" d="M224.89,60.31c.229-.006.445-.01.676-.01a24.03,24.03,0,0,1,5.622.645V54H220v6.942a24.393,24.393,0,0,1,4.863-.63C224.885,60.311,224.869,60.31,224.89,60.31Z" transform="translate(-280.594 841)"/>
        <path id="Path_17-2" data-name="Path 17" d="M183.579,170.6a13.268,13.268,0,1,0,13.268,13.268A13.31,13.31,0,0,0,183.579,170.6Z" transform="translate(-238.578 742.513)"/>
        <path id="Path_18-2" data-name="Path 18" d="M377.261,308.363a24.911,24.911,0,0,1-3.367,4.565l6.03,3.489,5.652-9.831-6.026-3.443A24.829,24.829,0,0,1,377.261,308.363Z" transform="translate(-410.576 630.567)"/>
        <path id="Path_19-2" data-name="Path 19" d="M379.558,136.686l6.028-3.488-5.651-9.782L373.9,126.9a23.168,23.168,0,0,1,3.369,4.573A24.822,24.822,0,0,1,379.558,136.686Z" transform="translate(-410.586 782.369)"/>
        <path id="Path_20-2" data-name="Path 20" d="M134.148,105.344a24.861,24.861,0,0,0-5.277-.784l-.054,0q-.371-.013-.74-.013c-.241,0-.482,0-.723.012l-.122,0a24.558,24.558,0,0,0-5.383.821,23.519,23.519,0,0,0-13.319,35.78c.5.733,1.041,1.444,1.616,2.133a23.579,23.579,0,0,0,11.71,7.476,24.565,24.565,0,0,0,5.376.82l.123,0c.241.008.482.012.723.012s.492,0,.74-.013l.054,0a24.879,24.879,0,0,0,5.271-.783,23.547,23.547,0,0,0,.005-45.466Zm-6.07,37.554A14.822,14.822,0,1,1,142.9,128.077,14.865,14.865,0,0,1,128.077,142.9Z" transform="translate(-183.077 798.308)"/>
        <path id="Path_39-2" data-name="Path 39" d="M52.558,38.416A8.3,8.3,0,0,0,60,30a8.3,8.3,0,0,0-7.434-8.419A.985.985,0,0,1,51.9,20a8.289,8.289,0,0,0-.7-11.209A8.289,8.289,0,0,0,40,8.092a.97.97,0,0,1-.981.132.939.939,0,0,1-.6-.787A8.3,8.3,0,0,0,30,0a8.3,8.3,0,0,0-8.419,7.434.939.939,0,0,1-.6.791A.921.921,0,0,1,20,8.092a8.289,8.289,0,0,0-11.209.7A8.289,8.289,0,0,0,8.092,20a.986.986,0,0,1-.656,1.582A8.3,8.3,0,0,0,0,30a8.3,8.3,0,0,0,7.434,8.419A.985.985,0,0,1,8.092,40a8.289,8.289,0,0,0,.7,11.209A8.289,8.289,0,0,0,20,51.9a.986.986,0,0,1,1.582.656A8.3,8.3,0,0,0,30,60a8.3,8.3,0,0,0,8.419-7.434.939.939,0,0,1,.6-.791A.967.967,0,0,1,40,51.9,8.483,8.483,0,0,0,51.9,40a.986.986,0,0,1,.656-1.582Zm-.923-7.441a8.483,8.483,0,0,0-5.65,13.63A.984.984,0,0,1,44.6,45.985a8.483,8.483,0,0,0-13.63,5.65.986.986,0,0,1-1.956,0,8.39,8.39,0,0,0-5.171-6.793,8.513,8.513,0,0,0-3.274-.659,8.419,8.419,0,0,0-5.185,1.8.855.855,0,0,1-1.3-.081.86.86,0,0,1-.081-1.3,8.483,8.483,0,0,0-5.65-13.63.986.986,0,0,1,0-1.956,8.483,8.483,0,0,0,5.65-13.63.86.86,0,0,1,.081-1.3.861.861,0,0,1,1.3-.081,8.483,8.483,0,0,0,13.63-5.65.986.986,0,0,1,1.956,0,8.483,8.483,0,0,0,13.63,5.65.86.86,0,0,1,1.3.081.86.86,0,0,1,.081,1.3,8.483,8.483,0,0,0,5.65,13.63.986.986,0,0,1,0,1.956Z" transform="translate(1372.003 894.003)"/>
        <path id="Path_40-2" data-name="Path 40" d="M43.5,36A7.5,7.5,0,1,0,51,43.5,7.5,7.5,0,0,0,43.5,36Z" transform="translate(1358.501 880.5)"/>
        <circle id="Ellipse_3-2" data-name="Ellipse 3" cx="3.557" cy="3.557" r="3.557" transform="translate(1432.443 914.795)"/>
        <path id="Path_41-2" data-name="Path 41" d="M136.125,152.249A16.125,16.125,0,1,0,120,136.125,16.143,16.143,0,0,0,136.125,152.249Zm0-23.239a7.114,7.114,0,1,1-7.114,7.114A7.122,7.122,0,0,1,136.125,129.011Z" transform="translate(1299.875 782.228)"/>
        <path id="Path_42-2" data-name="Path 42" d="M59.767,30.352c0-.581-.019-1.168-.057-1.754l3.262-2.985-.189-.977a30.63,30.63,0,0,0-2.334-7.182l-.422-.9-4.392-.5a26.994,26.994,0,0,0-2.064-2.836l.884-4.334-.727-.68a30.631,30.631,0,0,0-6.11-4.439l-.871-.481L42.908,5.462a26.69,26.69,0,0,0-3.343-1.085L37.736.356,36.748.234a30.624,30.624,0,0,0-7.552,0l-.988.122-1.829,4.02a26.716,26.716,0,0,0-3.343,1.085L19.195,3.285l-.871.481a30.627,30.627,0,0,0-6.11,4.439l-.727.68.884,4.334a26.94,26.94,0,0,0-2.064,2.836l-4.392.5-.422.9a30.618,30.618,0,0,0-2.334,7.183l-.189.977L6.234,28.6c-.038.586-.057,1.173-.057,1.754s.019,1.168.057,1.754L2.972,35.091l.189.977a30.622,30.622,0,0,0,2.334,7.183l.422.9,4.392.5a26.956,26.956,0,0,0,2.064,2.836l-.884,4.334.727.68a30.631,30.631,0,0,0,6.11,4.439l.871.481,3.842-2.177a26.7,26.7,0,0,0,3.343,1.085l1.829,4.02.988.123a30.61,30.61,0,0,0,7.552,0l.988-.123,1.829-4.02a26.7,26.7,0,0,0,3.343-1.085l3.842,2.177.871-.481A30.627,30.627,0,0,0,53.73,52.5l.727-.68-.884-4.334a26.976,26.976,0,0,0,2.064-2.836l4.392-.5.422-.9a30.635,30.635,0,0,0,2.334-7.182l.189-.977L59.71,32.106c.038-.586.057-1.173.057-1.754Zm-46.477,0A19.682,19.682,0,1,1,32.972,50.034,19.7,19.7,0,0,1,13.29,30.352Z" transform="translate(1403.027 888)"/>
        <path id="iconfinder_UI_Essentials_settings_cog_gear_6646388-3" data-name="iconfinder_UI_Essentials_settings_cog_gear_6646388" d="M60.723,24.16a2.306,2.306,0,0,0-2.34-1.7A6.146,6.146,0,0,1,52,19.266a6.466,6.466,0,0,1,.426-7.021,1.989,1.989,0,0,0-.213-2.766A29.069,29.069,0,0,0,40.3,2.671a2.171,2.171,0,0,0-2.553,1.277,6.548,6.548,0,0,1-11.915,0,1.982,1.982,0,0,0-2.553-1.277A27.308,27.308,0,0,0,11.362,9.692a1.989,1.989,0,0,0-.213,2.766,6.49,6.49,0,0,1,.426,7.021,6.871,6.871,0,0,1-6.383,3.191,2.108,2.108,0,0,0-2.34,1.7A23.905,23.905,0,0,0,2,31.181,26.431,26.431,0,0,0,2.851,38.2a1.96,1.96,0,0,0,2.34,1.489,6.146,6.146,0,0,1,6.383,3.191,6.466,6.466,0,0,1-.426,7.021,1.989,1.989,0,0,0,.213,2.766,30.3,30.3,0,0,0,12.128,7.021,2.171,2.171,0,0,0,2.553-1.277,6.548,6.548,0,0,1,11.915,0,2.045,2.045,0,0,0,1.915,1.277h.638a30.3,30.3,0,0,0,12.128-7.021,2,2,0,0,0,.213-2.766,6.49,6.49,0,0,1-.426-7.021,6.871,6.871,0,0,1,6.383-3.191,2.108,2.108,0,0,0,2.34-1.7A26.431,26.431,0,0,0,62,30.969,25.609,25.609,0,0,0,60.723,24.16ZM31.787,39.692A8.511,8.511,0,1,1,40.3,31.181,8.536,8.536,0,0,1,31.787,39.692Z" transform="translate(889 899.463)"/>
        <path id="iconfinder_UI_Essentials_settings_cog_gear_6646388-4" data-name="iconfinder_UI_Essentials_settings_cog_gear_6646388" d="M60.723,24.16a2.306,2.306,0,0,0-2.34-1.7A6.146,6.146,0,0,1,52,19.266a6.466,6.466,0,0,1,.426-7.021,1.989,1.989,0,0,0-.213-2.766A29.069,29.069,0,0,0,40.3,2.671a2.171,2.171,0,0,0-2.553,1.277,6.548,6.548,0,0,1-11.915,0,1.982,1.982,0,0,0-2.553-1.277A27.308,27.308,0,0,0,11.362,9.692a1.989,1.989,0,0,0-.213,2.766,6.49,6.49,0,0,1,.426,7.021,6.871,6.871,0,0,1-6.383,3.191,2.108,2.108,0,0,0-2.34,1.7A23.905,23.905,0,0,0,2,31.181,26.431,26.431,0,0,0,2.851,38.2a1.96,1.96,0,0,0,2.34,1.489,6.146,6.146,0,0,1,6.383,3.191,6.466,6.466,0,0,1-.426,7.021,1.989,1.989,0,0,0,.213,2.766,30.3,30.3,0,0,0,12.128,7.021,2.171,2.171,0,0,0,2.553-1.277,6.548,6.548,0,0,1,11.915,0,2.045,2.045,0,0,0,1.915,1.277h.638a30.3,30.3,0,0,0,12.128-7.021,2,2,0,0,0,.213-2.766,6.49,6.49,0,0,1-.426-7.021,6.871,6.871,0,0,1,6.383-3.191,2.108,2.108,0,0,0,2.34-1.7A26.431,26.431,0,0,0,62,30.969,25.609,25.609,0,0,0,60.723,24.16ZM31.787,39.692A8.511,8.511,0,1,1,40.3,31.181,8.536,8.536,0,0,1,31.787,39.692Z" transform="translate(578 899.463)"/>
        <path id="iconfinder_UI_Essentials_settings_cog_gear_6646388-5" data-name="iconfinder_UI_Essentials_settings_cog_gear_6646388" d="M68.935,27.184a2.628,2.628,0,0,0-2.668-1.94,7.005,7.005,0,0,1-7.276-3.638,7.37,7.37,0,0,1,.485-8,2.268,2.268,0,0,0-.243-3.153A33.134,33.134,0,0,0,45.653,2.689a2.474,2.474,0,0,0-2.91,1.455,7.464,7.464,0,0,1-13.581,0,2.259,2.259,0,0,0-2.91-1.455,31.126,31.126,0,0,0-13.581,8,2.268,2.268,0,0,0-.243,3.153,7.4,7.4,0,0,1,.485,8,7.832,7.832,0,0,1-7.276,3.638,2.4,2.4,0,0,0-2.668,1.94A27.248,27.248,0,0,0,2,35.187a30.127,30.127,0,0,0,.97,8,2.234,2.234,0,0,0,2.668,1.7,7.005,7.005,0,0,1,7.276,3.638,7.37,7.37,0,0,1-.485,8,2.268,2.268,0,0,0,.243,3.153,34.535,34.535,0,0,0,13.824,8,2.474,2.474,0,0,0,2.91-1.455,7.464,7.464,0,0,1,13.581,0,2.331,2.331,0,0,0,2.183,1.455H45.9a34.535,34.535,0,0,0,13.824-8,2.285,2.285,0,0,0,.243-3.153,7.4,7.4,0,0,1-.485-8,7.832,7.832,0,0,1,7.276-3.638,2.4,2.4,0,0,0,2.668-1.94,30.128,30.128,0,0,0,.97-8A29.191,29.191,0,0,0,68.935,27.184Zm-32.983,17.7a9.7,9.7,0,1,1,9.7-9.7A9.729,9.729,0,0,1,35.953,44.888Z" transform="translate(691 895.463)"/>
        <path id="iconfinder_UI_Essentials_settings_cog_gear_6646388-6" data-name="iconfinder_UI_Essentials_settings_cog_gear_6646388" d="M60.723,24.16a2.306,2.306,0,0,0-2.34-1.7A6.146,6.146,0,0,1,52,19.266a6.466,6.466,0,0,1,.426-7.021,1.989,1.989,0,0,0-.213-2.766A29.069,29.069,0,0,0,40.3,2.671a2.171,2.171,0,0,0-2.553,1.277,6.548,6.548,0,0,1-11.915,0,1.982,1.982,0,0,0-2.553-1.277A27.308,27.308,0,0,0,11.362,9.692a1.989,1.989,0,0,0-.213,2.766,6.49,6.49,0,0,1,.426,7.021,6.871,6.871,0,0,1-6.383,3.191,2.108,2.108,0,0,0-2.34,1.7A23.905,23.905,0,0,0,2,31.181,26.431,26.431,0,0,0,2.851,38.2a1.96,1.96,0,0,0,2.34,1.489,6.146,6.146,0,0,1,6.383,3.191,6.466,6.466,0,0,1-.426,7.021,1.989,1.989,0,0,0,.213,2.766,30.3,30.3,0,0,0,12.128,7.021,2.171,2.171,0,0,0,2.553-1.277,6.548,6.548,0,0,1,11.915,0,2.045,2.045,0,0,0,1.915,1.277h.638a30.3,30.3,0,0,0,12.128-7.021,2,2,0,0,0,.213-2.766,6.49,6.49,0,0,1-.426-7.021,6.871,6.871,0,0,1,6.383-3.191,2.108,2.108,0,0,0,2.34-1.7A26.431,26.431,0,0,0,62,30.969,25.609,25.609,0,0,0,60.723,24.16ZM31.787,39.692A8.511,8.511,0,1,1,40.3,31.181,8.536,8.536,0,0,1,31.787,39.692Z" transform="translate(949 899.463)"/>
        <path id="iconfinder_UI_Essentials_settings_cog_gear_6646388-7" data-name="iconfinder_UI_Essentials_settings_cog_gear_6646388" d="M60.723,24.16a2.306,2.306,0,0,0-2.34-1.7A6.146,6.146,0,0,1,52,19.266a6.466,6.466,0,0,1,.426-7.021,1.989,1.989,0,0,0-.213-2.766A29.069,29.069,0,0,0,40.3,2.671a2.171,2.171,0,0,0-2.553,1.277,6.548,6.548,0,0,1-11.915,0,1.982,1.982,0,0,0-2.553-1.277A27.308,27.308,0,0,0,11.362,9.692a1.989,1.989,0,0,0-.213,2.766,6.49,6.49,0,0,1,.426,7.021,6.871,6.871,0,0,1-6.383,3.191,2.108,2.108,0,0,0-2.34,1.7A23.905,23.905,0,0,0,2,31.181,26.431,26.431,0,0,0,2.851,38.2a1.96,1.96,0,0,0,2.34,1.489,6.146,6.146,0,0,1,6.383,3.191,6.466,6.466,0,0,1-.426,7.021,1.989,1.989,0,0,0,.213,2.766,30.3,30.3,0,0,0,12.128,7.021,2.171,2.171,0,0,0,2.553-1.277,6.548,6.548,0,0,1,11.915,0,2.045,2.045,0,0,0,1.915,1.277h.638a30.3,30.3,0,0,0,12.128-7.021,2,2,0,0,0,.213-2.766,6.49,6.49,0,0,1-.426-7.021,6.871,6.871,0,0,1,6.383-3.191,2.108,2.108,0,0,0,2.34-1.7A26.431,26.431,0,0,0,62,30.969,25.609,25.609,0,0,0,60.723,24.16ZM31.787,39.692A8.511,8.511,0,1,1,40.3,31.181,8.536,8.536,0,0,1,31.787,39.692Z" transform="translate(1034 899.463)"/>
        <path id="iconfinder_UI_Essentials_settings_cog_gear_6646388-8" data-name="iconfinder_UI_Essentials_settings_cog_gear_6646388" d="M60.723,24.16a2.306,2.306,0,0,0-2.34-1.7A6.146,6.146,0,0,1,52,19.266a6.466,6.466,0,0,1,.426-7.021,1.989,1.989,0,0,0-.213-2.766A29.069,29.069,0,0,0,40.3,2.671a2.171,2.171,0,0,0-2.553,1.277,6.548,6.548,0,0,1-11.915,0,1.982,1.982,0,0,0-2.553-1.277A27.308,27.308,0,0,0,11.362,9.692a1.989,1.989,0,0,0-.213,2.766,6.49,6.49,0,0,1,.426,7.021,6.871,6.871,0,0,1-6.383,3.191,2.108,2.108,0,0,0-2.34,1.7A23.905,23.905,0,0,0,2,31.181,26.431,26.431,0,0,0,2.851,38.2a1.96,1.96,0,0,0,2.34,1.489,6.146,6.146,0,0,1,6.383,3.191,6.466,6.466,0,0,1-.426,7.021,1.989,1.989,0,0,0,.213,2.766,30.3,30.3,0,0,0,12.128,7.021,2.171,2.171,0,0,0,2.553-1.277,6.548,6.548,0,0,1,11.915,0,2.045,2.045,0,0,0,1.915,1.277h.638a30.3,30.3,0,0,0,12.128-7.021,2,2,0,0,0,.213-2.766,6.49,6.49,0,0,1-.426-7.021,6.871,6.871,0,0,1,6.383-3.191,2.108,2.108,0,0,0,2.34-1.7A26.431,26.431,0,0,0,62,30.969,25.609,25.609,0,0,0,60.723,24.16ZM31.787,39.692A8.511,8.511,0,1,1,40.3,31.181,8.536,8.536,0,0,1,31.787,39.692Z" transform="translate(1264 899.463)"/>
        <path id="iconfinder_UI_Essentials_settings_cog_gear_6646388-9" data-name="iconfinder_UI_Essentials_settings_cog_gear_6646388" d="M60.723,24.16a2.306,2.306,0,0,0-2.34-1.7A6.146,6.146,0,0,1,52,19.266a6.466,6.466,0,0,1,.426-7.021,1.989,1.989,0,0,0-.213-2.766A29.069,29.069,0,0,0,40.3,2.671a2.171,2.171,0,0,0-2.553,1.277,6.548,6.548,0,0,1-11.915,0,1.982,1.982,0,0,0-2.553-1.277A27.308,27.308,0,0,0,11.362,9.692a1.989,1.989,0,0,0-.213,2.766,6.49,6.49,0,0,1,.426,7.021,6.871,6.871,0,0,1-6.383,3.191,2.108,2.108,0,0,0-2.34,1.7A23.905,23.905,0,0,0,2,31.181,26.431,26.431,0,0,0,2.851,38.2a1.96,1.96,0,0,0,2.34,1.489,6.146,6.146,0,0,1,6.383,3.191,6.466,6.466,0,0,1-.426,7.021,1.989,1.989,0,0,0,.213,2.766,30.3,30.3,0,0,0,12.128,7.021,2.171,2.171,0,0,0,2.553-1.277,6.548,6.548,0,0,1,11.915,0,2.045,2.045,0,0,0,1.915,1.277h.638a30.3,30.3,0,0,0,12.128-7.021,2,2,0,0,0,.213-2.766,6.49,6.49,0,0,1-.426-7.021,6.871,6.871,0,0,1,6.383-3.191,2.108,2.108,0,0,0,2.34-1.7A26.431,26.431,0,0,0,62,30.969,25.609,25.609,0,0,0,60.723,24.16ZM31.787,39.692A8.511,8.511,0,1,1,40.3,31.181,8.536,8.536,0,0,1,31.787,39.692Z" transform="translate(268 899.463)"/>
        <path id="iconfinder_UI_Essentials_settings_cog_gear_6646388-10" data-name="iconfinder_UI_Essentials_settings_cog_gear_6646388" d="M60.723,24.16a2.306,2.306,0,0,0-2.34-1.7A6.146,6.146,0,0,1,52,19.266a6.466,6.466,0,0,1,.426-7.021,1.989,1.989,0,0,0-.213-2.766A29.069,29.069,0,0,0,40.3,2.671a2.171,2.171,0,0,0-2.553,1.277,6.548,6.548,0,0,1-11.915,0,1.982,1.982,0,0,0-2.553-1.277A27.308,27.308,0,0,0,11.362,9.692a1.989,1.989,0,0,0-.213,2.766,6.49,6.49,0,0,1,.426,7.021,6.871,6.871,0,0,1-6.383,3.191,2.108,2.108,0,0,0-2.34,1.7A23.905,23.905,0,0,0,2,31.181,26.431,26.431,0,0,0,2.851,38.2a1.96,1.96,0,0,0,2.34,1.489,6.146,6.146,0,0,1,6.383,3.191,6.466,6.466,0,0,1-.426,7.021,1.989,1.989,0,0,0,.213,2.766,30.3,30.3,0,0,0,12.128,7.021,2.171,2.171,0,0,0,2.553-1.277,6.548,6.548,0,0,1,11.915,0,2.045,2.045,0,0,0,1.915,1.277h.638a30.3,30.3,0,0,0,12.128-7.021,2,2,0,0,0,.213-2.766,6.49,6.49,0,0,1-.426-7.021,6.871,6.871,0,0,1,6.383-3.191,2.108,2.108,0,0,0,2.34-1.7A26.431,26.431,0,0,0,62,30.969,25.609,25.609,0,0,0,60.723,24.16ZM31.787,39.692A8.511,8.511,0,1,1,40.3,31.181,8.536,8.536,0,0,1,31.787,39.692Z" transform="translate(121 899.463)"/>
        <path id="iconfinder_UI_Essentials_settings_cog_gear_6646388-11" data-name="iconfinder_UI_Essentials_settings_cog_gear_6646388" d="M60.723,24.16a2.306,2.306,0,0,0-2.34-1.7A6.146,6.146,0,0,1,52,19.266a6.466,6.466,0,0,1,.426-7.021,1.989,1.989,0,0,0-.213-2.766A29.069,29.069,0,0,0,40.3,2.671a2.171,2.171,0,0,0-2.553,1.277,6.548,6.548,0,0,1-11.915,0,1.982,1.982,0,0,0-2.553-1.277A27.308,27.308,0,0,0,11.362,9.692a1.989,1.989,0,0,0-.213,2.766,6.49,6.49,0,0,1,.426,7.021,6.871,6.871,0,0,1-6.383,3.191,2.108,2.108,0,0,0-2.34,1.7A23.905,23.905,0,0,0,2,31.181,26.431,26.431,0,0,0,2.851,38.2a1.96,1.96,0,0,0,2.34,1.489,6.146,6.146,0,0,1,6.383,3.191,6.466,6.466,0,0,1-.426,7.021,1.989,1.989,0,0,0,.213,2.766,30.3,30.3,0,0,0,12.128,7.021,2.171,2.171,0,0,0,2.553-1.277,6.548,6.548,0,0,1,11.915,0,2.045,2.045,0,0,0,1.915,1.277h.638a30.3,30.3,0,0,0,12.128-7.021,2,2,0,0,0,.213-2.766,6.49,6.49,0,0,1-.426-7.021,6.871,6.871,0,0,1,6.383-3.191,2.108,2.108,0,0,0,2.34-1.7A26.431,26.431,0,0,0,62,30.969,25.609,25.609,0,0,0,60.723,24.16ZM31.787,39.692A8.511,8.511,0,1,1,40.3,31.181,8.536,8.536,0,0,1,31.787,39.692Z" transform="translate(43 899.463)"/>
      </g>
      <path id="modiogear2" d="M118.547,45.134l.688-.351c.232-.15.464-.307.7-.449-.172-.568-.374-1.121-.568-1.682l-.075-.224q-.882-2.572-1.981-5.039l-.164-.366q-.628-1.4-1.338-2.774l-.284-.583q-.374-.71-.748-1.413c-.179-.329-.374-.65-.561-.972s-.314-.553-.486-.83c-.434-.748-.875-1.413-1.331-2.1l-.179-.277c-.434-.65-.882-1.293-1.346-1.921l-.269-.381q-.718-.935-1.465-1.824l-.254-.321c-.217-.277-.434-.561-.658-.83h0c-.314-.381-.621-.748-.949-1.136l-.075-.09a22.84,22.84,0,0,1-21.516.187A22.832,22.832,0,0,1,75.006,2.408c0-.164,0-.321,0-.486h-.045A62.837,62.837,0,0,0,59.979.09H58.79c-.8,0-1.607.045-2.4.09s-1.66.112-2.5.194l-.964.1q-1.009.15-2,.292L49.654.965l-.568.09h-.112c-.688.12-1.368.232-2.056.381h-.075a22.825,22.825,0,0,1-11.05,18.952,22.945,22.945,0,0,1-3.536,1.727,22.855,22.855,0,0,1-6.108.83,22.743,22.743,0,0,1-11.715-3.23l-.045.052c-.374.4-.748.815-1.1,1.226h-.045l-.112.127a62.292,62.292,0,0,0-6.676,9.009l-.142.239c-.486.807-.949,1.622-1.406,2.452l-.277.5c-.4.748-.748,1.5-1.129,2.243-.12.254-.254.508-.374.748-.314.665-.6,1.346-.89,2.034-.142.336-.3.665-.434,1-.262.635-.493,1.293-.748,1.936-.127.359-.277.7-.4,1.062v.075A22.922,22.922,0,0,1,9.985,54.442h0a22.855,22.855,0,0,1-10,26.653H-.07l.052.172h0l.052.157v.1q.419,1.338.9,2.654L1.1,84.5c.314.86.658,1.712,1.009,2.557l.224.516c.366.852.748,1.7,1.151,2.542v.067c.411.845.845,1.682,1.293,2.512l.164.314c.4.748.815,1.5,1.249,2.183l.187.3.209.336q.673,1.092,1.391,2.153l.411.583q.658.89,1.308,1.742l.628.822q.568.748,1.159,1.45l.359.449h0c.277.336.553.673.837,1l.1.12a22.787,22.787,0,0,1,16.8-2.011A22.84,22.84,0,0,1,44.69,123.611v.06h0a62.837,62.837,0,0,0,15.274,1.884h.912c.867,0,1.742-.045,2.609-.1l1.1-.075,1.5-.127q.92-.09,1.839-.2l.65-.09c.748-.1,1.5-.217,2.28-.351H71c.688-.12,1.376-.239,2.063-.389v-.067a22.825,22.825,0,0,1,11.05-18.885,22.6,22.6,0,0,1,3.14-1.555A22.884,22.884,0,0,1,105.5,105.96c.4-.419.748-.852,1.151-1.278h.052a62.523,62.523,0,0,0,11.424-18.406c.217-.538.411-1.084.613-1.622.135-.374.284-.748.419-1.106h0a22.855,22.855,0,0,1-.613-38.413Z" transform="translate(613.07 885.91)"/>
      <path id="modiogear1" d="M-4642.278-20.909v-.055a15.281,15.281,0,0,0-11.829-14.841,31.888,31.888,0,0,0,10.131-14.567,32.257,32.257,0,0,1,10.3,7.174,31.629,31.629,0,0,1,18.674-9.8,31.313,31.313,0,0,1-.657-12.76,34.035,34.035,0,0,0,8.16,1.04,32.958,32.958,0,0,0,8.872-1.205,15.214,15.214,0,0,0,6.08,18.073h.054a42.047,42.047,0,0,1-8.269,14.074c-.33.329-.6.713-.931,1.041a15,15,0,0,0-7.12-2.136A15.237,15.237,0,0,0-4624.7-20.306h-.11a41.469,41.469,0,0,1-7.314.649A41.883,41.883,0,0,1-4642.278-20.909Zm-29.9-28.149v-.11a15.261,15.261,0,0,0,7.448-13.088,15.233,15.233,0,0,0-7.009-12.815v-.055a42.006,42.006,0,0,1,9.146-15.06v-.055a15.707,15.707,0,0,0,7.83,2.136,15.293,15.293,0,0,0,15.28-14.568h.055a42.241,42.241,0,0,1,17.361.6v.328a15.227,15.227,0,0,0,15.225,15.225,14.926,14.926,0,0,0,4.873-.821c.658-.274,1.37-.548,2.027-.876a42.918,42.918,0,0,1,7.831,14.4,2.208,2.208,0,0,0-.493.274,31.461,31.461,0,0,1-14.9,3.723,30.876,30.876,0,0,1-6.735-.712l-.33-.054a32.165,32.165,0,0,1-16.209-9.31,31.829,31.829,0,0,1-17.306,9.528,30.838,30.838,0,0,1,.876,7.448,32.1,32.1,0,0,1-1.917,10.844v.055a32.134,32.134,0,0,1-15.169,17.36A41.628,41.628,0,0,1-4672.18-49.058Z" transform="translate(5305.039 1009.263)" fill="#44bfd5"/>
    </g>
  </g>
</svg>
