<svg xmlns="http://www.w3.org/2000/svg" width="128" height="128" xmlns:v="https://vecta.io/nano"><defs><clipPath id="A"><path d="M0 0h128v128H0z"/></clipPath></defs><g clip-path="url(#A)"><path fill="#fff" d="M0 0h128v128H0z"/><circle cx="60" cy="64" r="45" fill="#44bfd5"/><g fill="#92b46b"><path d="M50.372 122.227c-2.037 0-4.404-.498-6.67-1.402-23.97-8.88-39.51-32.102-38.67-57.8L5.033 63c.6-14.88 6.752-28.928 17.294-39.56 5.138-5.182 11.08-9.322 17.662-12.305 6.798-3.08 14.012-4.8 21.44-5.112l.024-.001.024-.001L63.22 6c16.04 0 30.412 5.704 41.565 16.495 11.667 11.285 18.09 26.426 18.09 42.632 0 6.023-.938 12-2.79 17.796a59.84 59.84 0 0 1-7.832 15.873 59.59 59.59 0 0 1-12.094 12.87c-4.737 3.732-9.972 6.68-15.56 8.76a6.5 6.5 0 0 1-2.393.451c-1.422 0-2.812-.438-4.022-1.267-1.2-.823-2.114-1.956-2.64-3.278-1.392-3.492.47-7.66 4.066-9.105l.047-.02.047-.017c4.32-1.567 8.346-3.793 11.968-6.616 3.54-2.758 6.636-6.04 9.207-9.754s4.557-7.776 5.916-12.087a45.22 45.22 0 0 0 2.089-13.607c0-12.484-4.913-24.09-13.834-32.68-4.338-3.984-9.248-7.08-14.592-9.2-5.41-2.146-11.124-3.234-16.98-3.234a47.29 47.29 0 0 0-1.426.022c-5.556.183-11.006 1.473-16.2 3.834-5.03 2.286-9.6 5.47-13.578 9.462s-7.153 8.578-9.432 13.625c-2.355 5.216-3.642 10.688-3.824 16.265v.008.008a46.21 46.21 0 0 0 1.722 14.407c1.29 4.532 3.264 8.832 5.872 12.78 2.588 3.918 5.748 7.413 9.392 10.387a46.59 46.59 0 0 0 12.132 7.154c.618.164 1.265.248 1.925.248 1.36 0 2.67-.36 3.707-1.013 1.8-1.557 2.79-3.542 2.79-5.605v-6.53c-1.73-.57-3.384-1.336-4.94-2.292a23.29 23.29 0 0 1-5.809-5.052c-1.66-2.016-2.95-4.272-3.84-6.707a22.88 22.88 0 0 1-1.387-7.874V57.11c0-4.06 2.94-7.008 6.994-7.008h.994V41.08c0-4.06 2.942-7.008 6.995-7.008s6.994 2.947 6.994 7.008v9.023h1.99V41.08c0-4.06 2.94-7.008 6.994-7.008s6.995 2.947 6.995 7.008v9.023h.994c4.052 0 6.994 2.947 6.994 7.008v16.03c0 2.706-.467 5.355-1.387 7.874-.89 2.438-2.183 4.694-3.84 6.707a23.28 23.28 0 0 1-5.808 5.052 23.46 23.46 0 0 1-4.941 2.292v6.53c0 6.74-3.402 13.208-8.88 16.894-3.48 2.48-7.28 3.74-11.295 3.74z"/><path d="M50.372 119.227c3.392 0 6.618-1.08 9.587-3.206 4.68-3.132 7.59-8.66 7.59-14.427V92.78a20.51 20.51 0 0 0 6.372-2.561 20.29 20.29 0 0 0 5.062-4.402c1.442-1.75 2.565-3.712 3.34-5.83a19.88 19.88 0 0 0 1.205-6.844V57.11c0-2.397-1.605-4.008-3.994-4.008h-3.994V41.08c0-2.397-1.605-4.008-3.995-4.008s-3.994 1.6-3.994 4.008v12.023h-7.99V41.08c0-2.397-1.605-4.008-3.994-4.008s-3.995 1.6-3.995 4.008v12.023h-3.994c-2.39 0-3.994 1.61-3.994 4.008v16.03a19.88 19.88 0 0 0 1.205 6.844 19.91 19.91 0 0 0 3.339 5.83 20.29 20.29 0 0 0 5.062 4.402c1.964 1.205 4.108 2.068 6.372 2.56v8.816c0 3.016-1.418 5.862-3.994 8.015-1.545 1.034-3.5 1.603-5.503 1.603-.987 0-1.958-.135-2.885-.4-4.735-1.88-9.132-4.464-13.07-7.677a49.4 49.4 0 0 1-9.999-11.058c-2.776-4.204-4.88-8.784-6.254-13.613a49.21 49.21 0 0 1-1.834-15.341c.195-5.972 1.57-11.827 4.088-17.402 2.428-5.378 5.807-10.26 10.042-14.51s9.1-7.638 14.46-10.075c5.557-2.526 11.392-3.906 17.345-4.102a50.33 50.33 0 0 1 1.522-.023 48.84 48.84 0 0 1 18.087 3.446c5.697 2.26 10.926 5.558 15.542 9.802 9.53 9.164 14.78 21.546 14.78 34.865a48.21 48.21 0 0 1-2.228 14.508c-1.45 4.6-3.572 8.936-6.3 12.893-2.743 3.965-6.05 7.468-9.83 10.413-3.87 3.016-8.174 5.395-12.79 7.07-2.055.825-3.175 3.26-2.397 5.2.624 1.564 2.218 2.656 3.876 2.656.458 0 .9-.085 1.316-.25 5.306-1.972 10.28-4.77 14.78-8.316a56.59 56.59 0 0 0 11.485-12.223 56.84 56.84 0 0 0 7.439-15.078c1.756-5.488 2.646-11.168 2.646-16.88 0-15.386-6.1-29.76-17.177-40.476C92.115 14.412 78.463 9 63.22 9l-1.663.02c-7.042.294-13.882 1.925-20.328 4.847a56.24 56.24 0 0 0-16.77 11.685C14.444 35.65 8.6 48.994 8.03 63.123c-.8 24.42 13.97 46.482 36.748 54.902 1.932.775 3.918 1.202 5.593 1.202m10.016-44.51h0 0c1.102.487 2.127 1.21 2.967 2.09 1.416-1.54 3.328-2.553 5.384-2.854-.316-1.213-.38-2.464-.19-3.715a9.75 9.75 0 0 0 2.352.303 9.5 9.5 0 0 0 2.557-.35c-.708 1.94.028 4.153 1.752 5.26h.016c-.534 1.534-1.336 2.913-2.384 4.098a2.57 2.57 0 0 0-.138.156 2.63 2.63 0 0 1-.129.148c-.63-.38-1.32-.6-2.054-.623-.067-.003-.136-.005-.203-.005-2.347 0-4.27 1.865-4.375 4.246h-.032c-.693.125-1.403.19-2.11.19a11.97 11.97 0 0 1-2.928-.364v-.016c0-.995-.34-1.975-.96-2.76s-1.488-1.34-2.45-1.562c1.358-1.117 2.37-2.584 2.92-4.242h0M55.02 63.1c.683.4 1.484.62 2.256.62 2.36 0 4.295-1.863 4.405-4.24h.016c.698-.12 1.405-.182 2.103-.182.978 0 1.955.12 2.902.357v.096c0 2.444 1.97 4.432 4.39 4.432.477 0 .95-.08 1.405-.238l.093-.04.03-.012.01-.004c.15-.062.308-.127.454-.2 1.03 1.27 1.79 2.68 2.258 4.193-.045.015-.088.043-.135.075l-.008.005a9.05 9.05 0 0 1-4.294 1.084c-.683 0-1.335-.07-1.94-.208l-.096-.016c-1.793-.416-3.41-1.353-4.673-2.71a9.21 9.21 0 0 1-4.989 2.774 9.07 9.07 0 0 1 .252 2.168c0 1.07-.186 2.13-.553 3.158v.016a9.32 9.32 0 0 1-4.373 5.054 12.23 12.23 0 0 1-2.273-4.193v-.032c1.324-.796 2.146-2.256 2.146-3.81 0-1.497-.774-2.927-2.02-3.73V67.5c.566-1.637 1.478-3.153 2.637-4.385V63.1m-4.648 62.118c-2.457 0-5.164-.565-7.828-1.634-25.052-9.257-41.394-33.66-40.5-60.666.642-15.678 7.092-30.434 18.164-41.6 5.396-5.442 11.638-9.79 18.553-12.925 7.15-3.24 14.74-5.05 22.555-5.377L63.22 3c16.833 0 31.927 5.996 43.65 17.34 12.256 11.856 19.005 27.762 19.005 44.788a61.33 61.33 0 0 1-2.932 18.71c-1.894 5.92-4.66 11.53-8.223 16.668a62.59 62.59 0 0 1-12.703 13.518 60.57 60.57 0 0 1-16.403 9.227c-.982.397-2.178.627-3.405.627-4.118 0-7.916-2.586-9.45-6.434-1.993-5 .634-10.952 5.735-13 4.212-1.532 7.962-3.605 11.337-6.234a41.31 41.31 0 0 0 8.583-9.094 41.98 41.98 0 0 0 5.521-11.282c1.294-4.107 1.95-8.382 1.95-12.705 0-11.672-4.595-22.518-12.937-30.54-3.976-3.654-8.583-6.562-13.596-8.55-5.057-2.006-10.398-3.023-15.875-3.023l-1.34.02c-5.144.17-10.21 1.37-15.044 3.567-4.7 2.136-8.972 5.114-12.695 8.85s-6.692 8.024-8.823 12.742c-2.193 4.856-3.4 9.946-3.56 15.128-.173 4.61.368 9.142 1.61 13.504a42.99 42.99 0 0 0 5.49 11.948 43.4 43.4 0 0 0 8.785 9.716 43.61 43.61 0 0 0 11.491 6.749c-.072-.033-.042-.043.047-.043.126 0 .372.02.623.02.805 0 1.615-.22 2.167-.6.33-.32 1.33-1.48 1.33-3.028V97.14c-1.21-.514-2.383-1.118-3.5-1.81-2.496-1.532-4.7-3.45-6.556-5.702a25.9 25.9 0 0 1-4.342-7.584c-1.042-2.85-1.57-5.845-1.57-8.904V57.11c0-5.013 3.318-8.943 7.988-9.823V41.08c0-5.705 4.297-10.008 9.995-10.008 3.338 0 6.195 1.477 7.99 3.847 1.794-2.37 4.65-3.847 7.99-3.847 5.698 0 9.995 4.302 9.995 10.008v6.207c4.67.88 7.988 4.8 7.988 9.823v16.03c0 3.058-.528 6.054-1.57 8.903-1.008 2.758-2.47 5.31-4.343 7.585-1.855 2.253-4.06 4.17-6.555 5.702-1.127.692-2.3 1.296-3.5 1.81v4.454c0 7.744-3.928 15.183-10.252 19.414-3.85 2.763-8.252 4.22-12.923 4.22z" fill="#fff"/></g></g></svg>