<svg xmlns="http://www.w3.org/2000/svg" width="128" height="128" xmlns:v="https://vecta.io/nano"><defs><clipPath id="A"><path d="M0 0h128v128H0z"/></clipPath></defs><g clip-path="url(#A)"><path fill="#fff" d="M0 0h128v128H0z"/><rect width="81" height="81" rx="8" fill="#44bfd5" x="30" y="30"/><g transform="matrix(.966 -.259 .259 .966 4698.619 -1394.332)" fill="#92b46b"><path d="M-4823.997 250h-61c-6.066 0-11-4.934-11-11v-61c0-6.066 4.935-11 11-11h61c6.065 0 11 4.935 11 11v61c0 6.065-4.935 11-11 11zm-52.35-21.874l3.153 2.828 11.386-13.006-2.592-2.315-11.947 12.493zm30.898-6.438l.73.657-.432 1.747c-.004.016-.008.032-.012.048l3.962-4.334-.048.015-1.617.496-11.86-10.586.04-.042-2.19-1.957-.015.015-12.157-10.9.383-1.78-3.98 4.375.042-.014 1.673-.586 1.896 1.7.347-.427 2.178 2.68 21.105 18.85-.044.048zm-5.773-19.86l1.977 1.766 5.462-6.24-1.716-1.538-5.723 6.01zm18.65-.678l.576.52 3.607-3.945-.586-.526-1.413 1.5-15.354-13.765c-1.14-1.005-2.27-1.514-3.36-1.514a3.9 3.9 0 0 0-.19.005c-.462.023-.93.116-1.4.28 1.43.433 2.734 1.155 3.858 2.148l.01.008.01.008 15.502 13.9-1.258 1.374z"/><path d="M-4823.997 247a8.01 8.01 0 0 0 8-7.999v-61a8.01 8.01 0 0 0-8-8h-61a8.01 8.01 0 0 0-8 8v61a8.01 8.01 0 0 0 8 7.999h61m-40.567-35.537h0l6.97 6.226-15.342 17.524-7.72-6.922 16.093-16.828m-4.124-6.594h0l-.005.006-2.92-2.618c-.814.285-1.66.45-2.512.492a9.78 9.78 0 0 1-.484.012 8.07 8.07 0 0 1-5.54-2.127c-1.692-1.515-2.61-3.442-2.724-5.726-.04-.77.036-1.564.22-2.356l6.73 6.032 5.963-6.555-6.728-6.033a8.82 8.82 0 0 1 2.377-.453 9.82 9.82 0 0 1 .475-.012c2.106 0 3.974.716 5.55 2.13 1.69 1.516 2.61 3.466 2.726 5.794a8.95 8.95 0 0 1-.189 2.32l8.71 7.81.01-.01 6.616 5.908-.04.042 8.322 7.428a9.59 9.59 0 0 1 2.347-.416 10.03 10.03 0 0 1 .485-.012c2.125 0 4 .715 5.572 2.125a7.96 7.96 0 0 1 2.723 5.727 8.46 8.46 0 0 1-.22 2.355l-6.73-6.034-5.996 6.56 6.73 6.033c-.773.26-1.562.4-2.345.45l-.488.01c-2.124 0-3.993-.715-5.555-2.124-1.68-1.518-2.6-3.457-2.707-5.763a8.61 8.61 0 0 1 .248-2.49l-1.646-1.48.036-.04-19.014-16.982m23.022-13.23h0 0l6.092 5.46-9.41 10.75-6.546-5.848 9.866-10.363m-8.35-5.405a10.51 10.51 0 0 0-.513.013 11.92 11.92 0 0 0-4.342 1.051c1.47-2.195 3.01-3.885 4.575-5.023s3.198-1.756 4.854-1.838l.337-.008c1.848 0 3.65.765 5.356 2.274l13.174 11.81 1.413-1.5 5.03 4.51-7.663 8.38-5.03-4.54 1.25-1.367-13.245-11.876c-1.4-1.245-3.158-1.876-5.195-1.876m15.116-1.96h0l6.055 5.43-1.06 1.158-6.055-5.43 1.06-1.158m14.902 68.728h-61a14.02 14.02 0 0 1-14-13.999v-61a14.02 14.02 0 0 1 14-14h61a14.02 14.02 0 0 1 14 14v61a14.02 14.02 0 0 1-14 13.999z" fill="#fff"/></g></g></svg>