<svg xmlns="http://www.w3.org/2000/svg" xmlns:xlink="http://www.w3.org/1999/xlink" fill="currentColor" viewBox="0 0 500 523">
  <path d="M451.094,94.251h0c-4.1,2.052-8.55,3.762-12.654,5.472A93.253,93.253,0,0,1,408,104.852,95.091,95.091,0,0,1,312.927,9.777h0V7.725h0A263.642,263.642,0,0,0,204.514,3.963h-.342a95.5,95.5,0,0,1-95.417,90.971A98.139,98.139,0,0,1,59.849,81.6v.342A262.511,262.511,0,0,0,2.736,175.988v.342a95.118,95.118,0,0,1,43.776,80.027A95.305,95.305,0,0,1,0,338.095H0v.684a259.91,259.91,0,0,0,49.248,89.945,200.678,200.678,0,0,0,94.733-108.413v-.342a200.389,200.389,0,0,0,11.97-67.715,192.293,192.293,0,0,0-5.472-46.512A198.733,198.733,0,0,0,258.55,146.234a200.831,200.831,0,0,0,101.231,58.14l2.052.342a193.173,193.173,0,0,0,42.066,4.446,196.416,196.416,0,0,0,93.023-23.256A13.863,13.863,0,0,1,500,184.2,268.046,268.046,0,0,0,451.094,94.251Z" transform="translate(0.322 -0.058)" />
  <path d="M324.04,75.824a212.351,212.351,0,0,1-50.958-6.5,195.6,195.6,0,0,0,4.1,79.685,197.533,197.533,0,0,0-116.621,61.218,201.557,201.557,0,0,0-64.3-44.8A199.214,199.214,0,0,1,33,256.4a95.426,95.426,0,0,1,73.871,92.682v.342h0a260.748,260.748,0,0,0,109.1,3.762h.684c2.394-52.668,46.854-93.365,99.179-90.971a93.578,93.578,0,0,1,44.46,13.338c2.052-2.052,3.762-4.446,5.814-6.5a262.611,262.611,0,0,0,51.642-87.893H417.4A95.01,95.01,0,0,1,379.443,68.3,205.926,205.926,0,0,1,324.04,75.824Z" transform="translate(80.184 165.083)" />
  <path d="M108.3,4.094a3.7,3.7,0,0,0-2.617-2.613A77.763,77.763,0,0,0,87.989,0c-22.132,0-35.4,11.835-45.313,27.443H20.333a11.274,11.274,0,0,0-9.195,5.678L.539,54.306A6.089,6.089,0,0,0,0,56.6a5.147,5.147,0,0,0,5.147,5.145H27.4l-4.818,4.817a6.983,6.983,0,0,0,0,9.7L33.5,87.178a6.992,6.992,0,0,0,9.707,0l4.818-4.817v22.264a5.147,5.147,0,0,0,5.147,5.145,6.123,6.123,0,0,0,2.3-.539L76.633,98.642a11.238,11.238,0,0,0,5.683-9.189V67.062c15.565-9.929,27.45-23.242,27.45-45.257A76.1,76.1,0,0,0,108.3,4.094ZM82.336,36.018a8.576,8.576,0,1,1,8.578-8.576,8.575,8.575,0,0,1-8.578,8.576Z" transform="translate(171.528 268.083) rotate(-45)" />
</svg>
